{"glyphs":{"0":{"ha":819,"x_min":61,"x_max":758,"o":"m 410 -19 q 157 117 253 -19 q 61 519 61 253 q 157 916 61 785 q 410 1047 253 1047 q 663 916 567 1047 q 758 519 758 785 q 663 117 758 253 q 410 -19 567 -19 m 410 140 q 489 174 454 140 q 544 292 524 208 q 564 519 564 375 q 544 743 564 663 q 489 857 524 824 q 410 890 454 890 q 330 857 365 890 q 274 743 294 824 q 254 519 254 663 q 274 292 254 375 q 330 174 294 208 q 410 140 365 140 z "},"1":{"ha":819,"x_min":114,"x_max":732,"o":"m 114 0 l 114 167 l 336 167 l 336 815 l 149 815 l 149 943 q 283 978 226 957 q 388 1029 339 999 l 539 1029 l 539 167 l 732 167 l 732 0 l 114 0 z "},"2":{"ha":819,"x_min":49,"x_max":749,"o":"m 60 0 l 60 118 q 388 453 271 306 q 504 721 504 601 q 464 842 504 797 q 350 886 424 886 q 248 855 294 886 q 163 781 201 824 l 49 890 q 196 1008 121 968 q 376 1047 271 1047 q 547 1008 474 1047 q 660 898 619 969 q 700 731 700 826 q 653 541 700 638 q 529 349 607 444 q 357 160 451 253 q 444 169 397 165 q 526 172 490 172 l 749 172 l 749 0 l 60 0 z "},"3":{"ha":819,"x_min":36,"x_max":742,"o":"m 379 -19 q 174 22 258 -19 q 36 124 90 63 l 132 253 q 234 178 178 208 q 361 147 290 147 q 488 185 439 147 q 536 290 536 222 q 512 378 536 342 q 426 434 488 414 q 254 454 365 454 l 254 601 q 449 645 394 601 q 503 758 503 689 q 467 853 503 819 q 365 886 431 886 q 263 863 310 886 q 172 796 217 839 l 67 922 q 209 1013 133 979 q 375 1047 285 1047 q 616 976 524 1047 q 708 774 708 906 q 664 631 708 690 q 538 539 619 571 l 538 532 q 683 444 624 508 q 742 278 742 381 q 692 117 742 183 q 560 15 643 50 q 379 -19 478 -19 z "},"4":{"ha":819,"x_min":29,"x_max":781,"o":"m 468 0 l 468 267 l 29 267 l 29 406 l 413 1029 l 658 1029 l 658 422 l 781 422 l 781 267 l 658 267 l 658 0 l 468 0 m 468 422 l 468 632 q 471 738 468 676 q 476 846 474 800 l 469 846 q 388 678 432 763 l 228 422 l 468 422 z "},"5":{"ha":819,"x_min":36,"x_max":743,"o":"m 385 -19 q 178 22 263 -19 q 36 121 94 64 l 131 251 q 231 178 175 208 q 357 147 286 147 q 488 197 438 147 q 539 336 539 246 q 491 474 539 426 q 365 522 443 522 q 289 510 321 522 q 211 469 257 499 l 118 529 l 146 1029 l 696 1029 l 696 857 l 322 857 l 303 639 q 426 667 360 667 q 585 632 514 667 q 700 526 657 597 q 743 342 743 454 q 692 147 743 228 q 560 23 642 65 q 385 -19 479 -19 z "},"6":{"ha":819,"x_min":69,"x_max":761,"o":"m 439 -19 q 258 35 342 -19 q 122 205 174 90 q 69 500 69 319 q 102 748 69 644 q 190 917 135 851 q 317 1015 246 983 q 467 1047 389 1047 q 631 1013 561 1047 q 746 931 700 979 l 638 808 q 568 861 611 839 q 481 883 525 883 q 372 851 421 883 q 292 742 322 818 q 256 539 261 667 q 358 619 299 592 q 465 647 417 647 q 618 613 551 647 q 723 506 685 578 q 761 325 761 435 q 717 142 761 219 q 600 23 674 65 q 439 -19 526 -19 m 260 394 q 323 194 275 254 q 435 135 371 135 q 534 183 493 135 q 575 325 575 232 q 535 460 575 417 q 428 503 494 503 q 343 478 388 503 q 260 394 299 453 z "},"7":{"ha":819,"x_min":69,"x_max":753,"o":"m 258 0 q 281 247 265 133 q 328 460 297 360 q 409 658 360 561 q 532 857 458 756 l 69 857 l 69 1029 l 753 1029 l 753 904 q 609 695 664 794 q 525 493 554 596 q 483 270 496 390 q 464 0 471 150 l 258 0 z "},"8":{"ha":819,"x_min":65,"x_max":756,"o":"m 410 -19 q 233 16 311 -19 q 110 113 154 51 q 65 256 65 175 q 117 420 65 354 q 242 524 169 486 l 242 531 q 144 633 182 574 q 106 774 106 693 q 146 918 106 857 q 256 1013 186 979 q 415 1046 326 1046 q 574 1012 507 1046 q 677 916 640 978 q 714 772 714 854 q 673 635 714 696 q 582 538 632 574 l 582 531 q 705 426 654 492 q 756 256 756 361 q 713 115 756 178 q 592 17 669 53 q 410 -19 514 -19 m 474 588 q 529 670 511 626 q 547 760 547 714 q 512 863 547 822 q 411 903 476 903 q 323 869 360 903 q 286 774 286 836 q 340 660 286 701 q 474 588 393 619 m 414 125 q 522 160 479 125 q 565 263 565 196 q 536 351 565 317 q 455 414 507 386 q 336 469 403 442 q 268 385 294 435 q 242 278 242 336 q 292 167 242 208 q 414 125 342 125 z "},"9":{"ha":819,"x_min":56,"x_max":749,"o":"m 354 -19 q 188 15 258 -19 q 72 97 118 50 l 181 221 q 253 169 208 190 q 343 147 297 147 q 448 180 400 147 q 526 288 496 213 q 561 492 557 364 q 462 410 521 440 q 350 381 403 381 q 138 460 221 381 q 56 704 56 540 q 100 887 56 810 q 218 1006 144 964 q 379 1047 292 1047 q 562 994 478 1047 q 697 829 646 942 q 749 538 749 717 q 716 286 749 392 q 628 113 683 181 q 501 13 572 46 q 354 -19 431 -19 m 558 638 q 496 835 544 778 q 382 893 447 893 q 284 846 325 893 q 243 704 243 799 q 283 570 243 614 q 389 526 322 526 q 476 552 431 526 q 558 638 521 578 z "},"!":{"ha":514,"x_min":131,"x_max":383,"o":"m 190 350 l 161 863 l 154 1057 l 360 1057 l 353 863 l 324 350 l 190 350 m 257 -19 q 167 19 203 -19 q 131 114 131 58 q 167 209 131 171 q 257 247 203 247 q 348 209 313 247 q 383 114 383 171 q 348 19 383 58 q 257 -19 313 -19 z "},"\"":{"ha":797,"x_min":121,"x_max":676,"o":"m 168 590 l 128 890 l 121 1082 l 329 1082 l 322 890 l 282 590 l 168 590 m 515 590 l 475 890 l 468 1082 l 676 1082 l 669 890 l 629 590 l 515 590 z "},"#":{"ha":819,"x_min":54,"x_max":772,"o":"m 138 0 l 174 301 l 54 301 l 54 435 l 189 435 l 213 625 l 86 625 l 86 757 l 229 757 l 263 1025 l 382 1025 l 350 757 l 525 757 l 560 1025 l 679 1025 l 647 757 l 772 757 l 772 625 l 631 625 l 607 435 l 740 435 l 740 301 l 590 301 l 556 0 l 433 0 l 469 301 l 294 301 l 258 0 l 138 0 m 310 435 l 485 435 l 508 625 l 333 625 l 310 435 z "},"%":{"ha":1338,"x_min":44,"x_max":1293,"o":"m 294 396 q 115 482 185 396 q 44 724 44 568 q 115 963 44 878 q 294 1047 185 1047 q 476 963 406 1047 q 546 724 546 878 q 476 482 546 568 q 294 396 406 396 m 294 511 q 370 560 339 511 q 401 724 401 610 q 370 884 401 836 q 294 932 339 932 q 219 884 250 932 q 188 724 188 836 q 219 560 188 610 q 294 511 250 511 m 328 -19 l 888 1047 l 1008 1047 l 450 -19 l 328 -19 m 1043 -19 q 863 67 933 -19 q 792 308 792 153 q 863 548 792 463 q 1043 633 933 633 q 1223 548 1153 633 q 1293 308 1293 463 q 1223 67 1293 153 q 1043 -19 1153 -19 m 1043 97 q 1118 147 1088 97 q 1149 308 1149 196 q 1118 470 1149 424 q 1043 517 1088 517 q 967 470 997 517 q 936 308 936 424 q 967 147 936 196 q 1043 97 997 97 z "},"&":{"ha":1028,"x_min":42,"x_max":999,"o":"m 378 -19 q 195 21 271 -19 q 81 127 119 61 q 42 272 42 193 q 69 397 42 344 q 140 491 96 450 q 235 565 183 532 q 188 678 204 622 q 171 786 171 735 q 203 917 171 858 q 297 1012 236 976 q 439 1047 357 1047 q 613 985 549 1047 q 678 822 678 924 q 645 701 678 754 q 563 606 613 649 q 457 526 513 564 q 560 414 503 468 q 679 313 617 360 q 752 433 719 367 q 804 575 785 499 l 992 575 q 920 390 963 478 q 817 221 878 301 q 913 174 867 193 q 999 147 960 154 l 950 -19 q 692 89 822 8 q 550 10 628 39 q 378 -19 472 -19 m 551 189 q 428 304 488 243 q 321 429 369 365 q 260 362 283 397 q 236 285 236 326 q 283 179 236 219 q 403 139 329 139 q 479 152 442 139 q 551 189 517 165 m 376 650 q 478 726 438 686 q 519 822 519 767 q 501 886 519 861 q 443 911 483 911 q 369 877 399 911 q 339 788 339 843 q 349 721 339 756 q 376 650 358 686 z "},"'":{"ha":451,"x_min":121,"x_max":329,"o":"m 168 590 l 128 890 l 121 1082 l 329 1082 l 322 890 l 282 590 l 168 590 z "},"(":{"ha":525,"x_min":118,"x_max":453,"o":"m 326 -281 q 173 55 228 -119 q 118 438 118 229 q 173 821 118 646 q 326 1157 228 996 l 453 1103 q 324 780 365 951 q 283 438 283 608 q 324 97 283 267 q 453 -226 365 -74 l 326 -281 z "},")":{"ha":525,"x_min":72,"x_max":407,"o":"m 199 -281 l 72 -226 q 201 97 160 -74 q 242 438 242 267 q 201 780 242 608 q 72 1103 160 951 l 199 1157 q 352 821 297 996 q 407 438 407 646 q 352 55 407 229 q 199 -281 297 -119 z "},"*":{"ha":704,"x_min":69,"x_max":635,"o":"m 229 581 l 142 644 l 233 803 l 69 876 l 103 979 l 278 940 l 297 1122 l 407 1122 l 424 940 l 601 979 l 635 876 l 468 803 l 563 644 l 475 581 l 351 719 l 229 581 z "},"+":{"ha":819,"x_min":54,"x_max":765,"o":"m 333 153 l 333 447 l 54 447 l 54 593 l 333 593 l 333 889 l 485 889 l 485 593 l 765 593 l 765 447 l 485 447 l 485 153 l 333 153 z "},",":{"ha":451,"x_min":74,"x_max":379,"o":"m 117 -297 l 74 -186 q 197 -103 154 -154 q 242 7 240 -53 l 228 6 q 139 37 178 6 q 100 126 100 68 q 139 215 100 182 q 233 247 178 247 q 341 194 303 247 q 379 46 379 140 q 311 -165 379 -76 q 117 -297 243 -254 z "},"-":{"ha":514,"x_min":68,"x_max":447,"o":"m 68 324 l 68 471 l 447 471 l 447 324 l 68 324 z "},".":{"ha":451,"x_min":99,"x_max":353,"o":"m 226 -19 q 135 19 171 -19 q 99 114 99 58 q 135 209 99 171 q 226 247 171 247 q 317 209 281 247 q 353 114 353 171 q 317 19 353 58 q 226 -19 281 -19 z "},"/":{"ha":538,"x_min":19,"x_max":500,"o":"m 19 -251 l 365 1119 l 500 1119 l 156 -251 l 19 -251 z "},":":{"ha":451,"x_min":99,"x_max":353,"o":"m 226 508 q 135 547 171 508 q 99 640 99 585 q 135 735 99 697 q 226 774 171 774 q 317 735 281 774 q 353 640 353 697 q 317 547 353 585 q 226 508 281 508 m 226 -19 q 135 19 171 -19 q 99 114 99 58 q 135 209 99 171 q 226 247 171 247 q 317 209 281 247 q 353 114 353 171 q 317 19 353 58 q 226 -19 281 -19 z "},";":{"ha":451,"x_min":74,"x_max":379,"o":"m 226 508 q 135 547 171 508 q 99 640 99 585 q 135 735 99 697 q 226 774 171 774 q 317 735 281 774 q 353 640 353 697 q 317 547 353 585 q 226 508 281 508 m 117 -297 l 74 -186 q 197 -103 154 -154 q 242 7 240 -53 l 228 6 q 139 37 178 6 q 100 126 100 68 q 139 215 100 182 q 233 247 178 247 q 341 194 303 247 q 379 46 379 140 q 311 -165 379 -76 q 117 -297 243 -254 z "},"<":{"ha":819,"x_min":54,"x_max":765,"o":"m 765 175 l 54 451 l 54 596 l 765 871 l 765 701 l 474 603 l 260 526 l 260 521 l 474 444 l 765 344 l 765 175 z "},"=":{"ha":819,"x_min":54,"x_max":765,"o":"m 54 628 l 54 772 l 765 772 l 765 628 l 54 628 m 54 268 l 54 414 l 765 414 l 765 268 l 54 268 z "},">":{"ha":819,"x_min":54,"x_max":765,"o":"m 54 175 l 54 344 l 346 444 l 558 521 l 558 526 l 346 603 l 54 701 l 54 871 l 765 596 l 765 451 l 54 175 z "},"?":{"ha":714,"x_min":63,"x_max":646,"o":"m 246 350 q 253 471 236 418 q 303 567 271 524 q 368 647 335 610 q 425 720 401 683 q 449 796 449 757 q 417 879 449 849 q 331 910 385 910 q 247 888 285 910 q 176 831 210 867 l 63 935 q 191 1035 117 996 q 356 1075 265 1075 q 505 1046 439 1075 q 608 958 571 1017 q 646 810 646 899 q 622 704 646 750 q 562 619 597 658 q 492 540 526 579 q 438 454 458 500 q 424 350 418 408 l 246 350 m 336 -19 q 244 19 281 -19 q 208 114 208 58 q 244 209 208 171 q 336 247 281 247 q 426 209 390 247 q 463 114 463 171 q 426 19 463 58 q 336 -19 390 -19 z "},"@":{"ha":1399,"x_min":76,"x_max":1319,"o":"m 664 -264 q 440 -228 546 -264 q 253 -119 335 -192 q 124 65 171 -46 q 76 322 76 175 q 132 619 76 486 q 284 847 188 751 q 506 993 381 942 q 774 1044 632 1044 q 1064 974 942 1044 q 1253 781 1186 904 q 1319 494 1319 657 q 1288 307 1319 388 q 1206 173 1257 226 q 1094 92 1156 119 q 974 65 1033 65 q 858 96 907 65 q 799 185 810 126 l 794 185 q 706 109 760 139 q 603 79 653 79 q 458 142 514 79 q 401 313 401 204 q 424 450 401 382 q 490 573 447 518 q 590 660 532 628 q 715 693 647 693 q 786 674 756 693 q 838 615 817 656 l 840 615 l 863 681 l 988 681 l 919 342 q 994 193 883 193 q 1088 229 1043 193 q 1161 331 1132 265 q 1190 488 1190 397 q 1145 703 1190 606 q 1004 860 1100 801 q 757 919 908 919 q 559 878 656 919 q 385 758 463 836 q 262 572 307 681 q 217 328 217 463 q 280 69 217 172 q 449 -85 343 -33 q 679 -137 554 -137 q 809 -119 744 -137 q 924 -75 874 -101 l 969 -187 q 823 -245 899 -226 q 664 -264 747 -264 m 647 208 q 702 226 675 208 q 763 286 729 244 l 803 508 q 721 560 774 560 q 633 522 671 560 q 576 429 596 483 q 556 324 556 375 q 581 237 556 265 q 647 208 606 208 z "},"A":{"ha":890,"x_min":-6,"x_max":896,"o":"m -6 0 l 324 1029 l 567 1029 l 896 0 l 679 0 l 607 264 l 275 264 l 203 0 l -6 0 m 319 424 l 564 424 l 533 536 q 488 703 510 617 q 443 872 467 790 l 438 872 q 395 702 417 788 q 350 536 374 617 l 319 424 z "},"B":{"ha":946,"x_min":126,"x_max":890,"o":"m 126 0 l 126 1029 l 467 1029 q 656 1006 572 1029 q 790 926 740 982 q 839 775 839 871 q 801 639 839 703 q 699 551 764 575 l 699 546 q 836 466 782 526 q 890 303 890 406 q 838 133 890 200 q 697 33 786 65 q 493 0 607 0 l 126 0 m 332 610 l 453 610 q 595 647 551 610 q 639 744 639 683 q 593 842 639 813 q 454 871 547 871 l 332 871 l 332 610 m 332 158 l 475 158 q 635 197 579 158 q 690 315 690 235 q 636 424 690 390 q 475 458 582 458 l 332 458 l 332 158 z "},"C":{"ha":911,"x_min":75,"x_max":874,"o":"m 544 -19 q 309 42 415 -19 q 139 221 203 103 q 75 510 75 339 q 113 737 75 638 q 217 906 150 836 q 369 1011 283 975 q 553 1047 456 1047 q 728 1008 651 1047 q 854 915 804 968 l 747 785 q 662 847 708 822 q 557 871 615 871 q 418 828 479 871 q 322 707 357 786 q 286 517 286 628 q 358 253 286 349 q 553 158 431 158 q 672 187 619 158 q 764 260 724 215 l 874 132 q 728 19 810 58 q 544 -19 646 -19 z "},"D":{"ha":992,"x_min":126,"x_max":917,"o":"m 126 0 l 126 1029 l 408 1029 q 781 904 644 1029 q 917 519 917 779 q 856 231 917 346 q 683 58 794 115 q 419 0 572 0 l 126 0 m 332 167 l 394 167 q 623 249 539 167 q 707 519 707 332 q 669 720 707 644 q 561 830 631 796 q 394 864 492 864 l 332 864 l 332 167 z "},"E":{"ha":854,"x_min":126,"x_max":772,"o":"m 126 0 l 126 1029 l 757 1029 l 757 857 l 332 857 l 332 619 l 692 619 l 692 447 l 332 447 l 332 172 l 772 172 l 772 0 l 126 0 z "},"F":{"ha":813,"x_min":126,"x_max":760,"o":"m 126 0 l 126 1029 l 760 1029 l 760 857 l 332 857 l 332 589 l 697 589 l 697 417 l 332 417 l 332 0 l 126 0 z "},"G":{"ha":996,"x_min":75,"x_max":903,"o":"m 568 -19 q 317 42 429 -19 q 140 221 206 103 q 75 510 75 339 q 141 799 75 679 q 319 983 207 919 q 568 1047 432 1047 q 758 1007 679 1047 q 886 915 836 967 l 776 785 q 691 846 738 821 q 575 871 644 871 q 424 828 489 871 q 322 707 358 786 q 286 517 286 628 q 363 253 286 349 q 590 158 439 158 q 662 169 626 158 q 718 197 697 179 l 718 400 l 536 400 l 536 568 l 903 568 l 903 104 q 763 17 850 53 q 568 -19 675 -19 z "},"H":{"ha":1051,"x_min":126,"x_max":925,"o":"m 126 0 l 126 1029 l 332 1029 l 332 622 l 721 622 l 721 1029 l 925 1029 l 925 0 l 721 0 l 721 444 l 332 444 l 332 0 l 126 0 z "},"I":{"ha":458,"x_min":126,"x_max":332,"o":"m 126 0 l 126 1029 l 332 1029 l 332 0 l 126 0 z "},"J":{"ha":789,"x_min":32,"x_max":668,"o":"m 350 -19 q 161 26 239 -19 q 32 161 83 71 l 172 265 q 242 184 201 210 q 325 158 282 158 q 428 201 393 158 q 463 349 463 243 l 463 1029 l 668 1029 l 668 332 q 635 156 668 236 q 531 28 601 76 q 350 -19 461 -19 z "},"K":{"ha":953,"x_min":126,"x_max":958,"o":"m 126 0 l 126 1029 l 332 1029 l 332 582 l 336 582 l 676 1029 l 903 1029 l 589 624 l 958 0 l 733 0 l 467 463 l 332 289 l 332 0 l 126 0 z "},"L":{"ha":803,"x_min":126,"x_max":750,"o":"m 126 0 l 126 1029 l 332 1029 l 332 172 l 750 172 l 750 0 l 126 0 z "},"M":{"ha":1185,"x_min":126,"x_max":1060,"o":"m 126 0 l 126 1029 l 354 1029 l 529 546 q 561 449 546 499 q 592 350 576 399 l 599 350 q 630 449 615 399 q 660 546 644 499 l 832 1029 l 1060 1029 l 1060 0 l 872 0 l 872 429 q 876 539 872 479 q 887 658 881 599 q 899 767 893 718 l 892 767 l 808 525 l 650 93 l 532 93 l 372 525 l 290 767 l 285 767 q 296 658 290 718 q 306 539 301 599 q 311 429 311 479 l 311 0 l 126 0 z "},"N":{"ha":1040,"x_min":126,"x_max":913,"o":"m 126 0 l 126 1029 l 336 1029 l 635 481 l 739 258 l 746 258 q 728 435 738 339 q 718 618 718 531 l 718 1029 l 913 1029 l 913 0 l 703 0 l 407 550 l 303 771 l 296 771 q 313 594 303 688 q 322 413 322 501 l 322 0 l 126 0 z "},"O":{"ha":1069,"x_min":75,"x_max":994,"o":"m 535 -19 q 295 46 399 -19 q 133 232 192 111 q 75 519 75 353 q 133 804 75 686 q 295 985 192 922 q 535 1047 399 1047 q 774 985 671 1047 q 936 804 878 922 q 994 519 994 686 q 936 232 994 353 q 774 46 878 111 q 535 -19 671 -19 m 535 158 q 667 203 611 158 q 754 328 724 247 q 785 519 785 410 q 717 778 785 685 q 535 871 650 871 q 353 778 421 871 q 286 519 286 685 q 353 257 286 356 q 535 158 421 158 z "},"P":{"ha":926,"x_min":126,"x_max":867,"o":"m 126 0 l 126 1029 l 464 1029 q 669 999 578 1029 q 813 898 760 968 q 867 706 867 828 q 813 513 867 589 q 670 401 760 438 q 469 365 581 365 l 332 365 l 332 0 l 126 0 m 332 528 l 456 528 q 665 706 665 528 q 610 831 665 796 q 449 865 556 865 l 332 865 l 332 528 z "},"Q":{"ha":1069,"x_min":75,"x_max":1040,"o":"m 535 149 q 717 247 650 149 q 785 519 785 346 q 717 778 785 685 q 535 871 650 871 q 353 778 421 871 q 286 519 286 685 q 353 247 286 346 q 535 149 421 149 m 867 -279 q 601 -203 710 -279 q 440 -11 493 -128 q 249 81 331 11 q 121 261 167 150 q 75 519 75 372 q 133 804 75 686 q 295 985 192 922 q 535 1047 399 1047 q 774 985 671 1047 q 936 804 878 922 q 994 519 994 686 q 953 271 994 379 q 835 92 911 163 q 657 -4 760 22 q 757 -89 693 -62 q 890 -115 821 -115 q 952 -110 924 -115 q 1003 -97 981 -104 l 1040 -249 q 969 -271 1014 -262 q 867 -279 924 -279 z "},"R":{"ha":947,"x_min":126,"x_max":915,"o":"m 332 551 l 465 551 q 617 593 564 551 q 669 717 669 635 q 617 833 669 800 q 465 865 564 865 l 332 865 l 332 551 m 686 0 l 475 389 l 332 389 l 332 0 l 126 0 l 126 1029 l 483 1029 q 680 1000 592 1029 q 819 903 768 971 q 871 717 871 835 q 817 528 871 601 q 675 421 764 456 l 915 0 l 686 0 z "},"S":{"ha":867,"x_min":58,"x_max":811,"o":"m 433 -19 q 232 19 331 -19 q 58 131 133 58 l 176 272 q 300 190 231 221 q 438 158 369 158 q 560 190 518 158 q 601 276 601 222 q 582 338 601 315 q 527 378 563 361 q 446 415 492 396 l 310 475 q 210 532 258 496 q 131 622 161 568 q 100 750 100 675 q 146 901 100 833 q 272 1008 192 968 q 456 1047 351 1047 q 631 1013 546 1047 q 779 914 717 978 l 675 786 q 574 849 626 826 q 456 871 521 871 q 349 842 388 871 q 310 763 310 814 q 331 703 310 726 q 390 662 353 679 q 469 626 426 644 l 604 572 q 755 468 699 533 q 811 292 811 403 q 766 138 811 208 q 637 24 721 67 q 433 -19 553 -19 z "},"T":{"ha":868,"x_min":42,"x_max":826,"o":"m 331 0 l 331 857 l 42 857 l 42 1029 l 826 1029 l 826 857 l 536 857 l 536 0 l 331 0 z "},"U":{"ha":1039,"x_min":122,"x_max":918,"o":"m 522 -19 q 228 94 333 -19 q 122 463 122 207 l 122 1029 l 326 1029 l 326 444 q 350 275 326 338 q 418 185 374 213 q 522 158 463 158 q 626 185 582 158 q 696 275 671 213 q 721 444 721 338 l 721 1029 l 918 1029 l 918 463 q 814 94 918 207 q 522 -19 710 -19 z "},"V":{"ha":860,"x_min":-7,"x_max":867,"o":"m 307 0 l -7 1029 l 210 1029 l 344 528 q 388 363 368 443 q 431 196 407 282 l 438 196 q 482 363 463 282 q 525 528 501 443 l 658 1029 l 867 1029 l 553 0 l 307 0 z "},"W":{"ha":1271,"x_min":26,"x_max":1243,"o":"m 224 0 l 26 1029 l 236 1029 l 315 526 q 340 364 328 446 q 364 199 353 282 l 369 199 q 401 364 385 282 q 435 526 418 446 l 553 1029 l 729 1029 l 849 526 q 882 365 867 447 q 914 199 897 282 l 921 199 q 944 364 932 282 q 967 526 956 446 l 1049 1029 l 1243 1029 l 1053 0 l 797 0 l 682 510 q 658 628 669 569 q 639 746 647 688 l 633 746 q 610 628 622 688 q 588 510 599 569 l 475 0 l 224 0 z "},"X":{"ha":871,"x_min":21,"x_max":851,"o":"m 21 0 l 308 529 l 36 1029 l 265 1029 l 368 815 q 405 742 388 781 q 444 654 422 703 l 450 654 q 486 742 469 703 q 519 815 503 781 l 617 1029 l 833 1029 l 563 521 l 851 0 l 624 0 l 508 228 q 470 309 490 268 q 428 397 450 350 l 422 397 q 385 309 403 350 q 347 228 367 268 l 238 0 l 21 0 z "},"Y":{"ha":806,"x_min":-8,"x_max":815,"o":"m 301 0 l 301 376 l -8 1029 l 210 1029 l 313 778 q 356 665 335 721 q 401 550 378 610 l 407 550 q 453 665 431 610 q 499 778 476 721 l 601 1029 l 815 1029 l 506 376 l 506 0 l 301 0 z "},"Z":{"ha":851,"x_min":60,"x_max":796,"o":"m 60 0 l 60 124 l 539 857 l 106 857 l 106 1029 l 792 1029 l 792 906 l 313 172 l 796 172 l 796 0 l 60 0 z "},"[":{"ha":525,"x_min":140,"x_max":458,"o":"m 140 -239 l 140 1115 l 458 1115 l 458 1006 l 293 1006 l 293 -131 l 458 -131 l 458 -239 l 140 -239 z "},"\\":{"ha":538,"x_min":39,"x_max":519,"o":"m 383 -251 l 39 1119 l 174 1119 l 519 -251 l 383 -251 z "},"]":{"ha":525,"x_min":67,"x_max":383,"o":"m 67 -239 l 67 -131 l 232 -131 l 232 1006 l 67 1006 l 67 1115 l 383 1115 l 383 -239 l 67 -239 z "},"a":{"ha":821,"x_min":71,"x_max":722,"o":"m 300 -19 q 179 10 231 -19 q 99 93 128 40 q 71 213 71 146 q 177 405 71 336 q 518 499 283 474 q 488 594 517 556 q 386 633 458 633 q 279 612 332 633 q 172 558 226 590 l 100 694 q 250 767 168 736 q 424 797 332 797 q 647 710 572 797 q 722 454 722 624 l 722 0 l 556 0 l 542 83 l 535 83 q 426 10 485 39 q 300 -19 368 -19 m 368 140 q 447 160 413 140 q 518 217 482 181 l 518 372 q 320 318 375 356 q 265 228 265 281 q 294 161 265 182 q 368 140 324 140 z "},"b":{"ha":894,"x_min":110,"x_max":831,"o":"m 500 -19 q 293 82 390 -19 l 286 82 l 269 0 l 110 0 l 110 1108 l 314 1108 l 314 829 l 307 704 q 410 772 354 746 q 524 797 467 797 q 688 748 619 797 q 794 610 757 699 q 831 403 831 522 q 783 175 831 269 q 661 31 736 81 q 500 -19 586 -19 m 456 149 q 573 210 525 149 q 621 399 621 272 q 584 569 621 510 q 467 629 547 629 q 391 610 428 629 q 314 550 354 590 l 314 207 q 387 162 350 175 q 456 149 424 149 z "},"c":{"ha":732,"x_min":61,"x_max":694,"o":"m 440 -19 q 247 28 333 -19 q 111 168 161 76 q 61 389 61 260 q 117 609 61 518 q 263 749 172 700 q 458 797 353 797 q 586 773 531 797 q 685 710 642 749 l 588 581 q 530 617 558 604 q 469 631 501 631 q 325 565 381 631 q 269 389 269 499 q 324 213 269 279 q 463 147 378 147 q 544 165 506 147 q 614 210 582 183 l 694 75 q 572 3 639 26 q 440 -19 506 -19 z "},"d":{"ha":894,"x_min":65,"x_max":786,"o":"m 383 -19 q 151 89 238 -19 q 65 389 65 197 q 113 607 65 515 q 234 748 160 699 q 392 797 308 797 q 502 774 457 797 q 589 713 547 751 l 582 835 l 582 1108 l 786 1108 l 786 0 l 619 0 l 604 81 l 599 81 q 500 9 556 38 q 383 -19 444 -19 m 436 149 q 513 167 476 149 q 582 229 549 186 l 582 571 q 510 616 547 603 q 436 629 474 629 q 323 568 371 629 q 275 392 275 507 q 317 209 275 269 q 436 149 360 149 z "},"e":{"ha":807,"x_min":61,"x_max":749,"o":"m 449 -19 q 252 29 340 -19 q 113 169 164 78 q 61 389 61 261 q 92 558 61 483 q 174 687 122 633 q 290 769 225 740 q 424 797 354 797 q 603 749 531 797 q 712 617 675 701 q 749 425 749 533 q 739 331 749 365 l 260 331 q 331 188 272 236 q 476 139 389 139 q 565 152 524 139 q 650 192 607 165 l 719 67 q 592 4 663 28 q 449 -19 521 -19 m 256 468 l 574 468 q 538 592 574 546 q 426 639 503 639 q 317 596 365 639 q 256 468 268 553 z "},"f":{"ha":517,"x_min":39,"x_max":563,"o":"m 39 617 l 39 768 l 144 776 l 144 840 q 172 986 144 921 q 258 1090 199 1051 q 414 1128 317 1128 q 498 1120 460 1128 q 563 1101 536 1113 l 525 949 q 442 967 488 967 q 372 938 397 967 q 347 844 347 910 l 347 778 l 496 778 l 496 617 l 347 617 l 347 0 l 144 0 l 144 617 l 39 617 z "},"g":{"ha":829,"x_min":60,"x_max":807,"o":"m 383 -337 q 219 -316 292 -337 q 103 -250 146 -294 q 60 -137 60 -206 q 171 24 60 -37 l 171 31 q 120 82 140 50 q 100 163 100 114 q 126 244 100 206 q 186 307 151 282 l 186 313 q 114 395 146 342 q 82 517 82 449 q 126 671 82 608 q 241 765 169 733 q 394 797 313 797 q 459 792 429 797 q 514 778 489 786 l 793 778 l 793 628 l 661 628 q 686 577 676 608 q 696 510 696 546 q 656 363 696 422 q 547 275 615 304 q 394 246 479 246 q 347 250 372 246 q 294 264 321 254 q 271 235 281 250 q 261 196 261 221 q 288 149 261 165 q 383 133 315 133 l 517 133 q 732 88 657 133 q 807 -61 807 42 q 755 -202 807 -139 q 608 -301 703 -265 q 383 -337 514 -337 m 394 372 q 483 410 447 372 q 518 517 518 447 q 483 621 518 585 q 394 657 447 657 q 308 621 343 657 q 274 517 274 585 q 309 410 274 447 q 394 372 344 372 m 414 -207 q 557 -174 503 -207 q 611 -96 611 -140 q 578 -40 611 -54 q 482 -25 544 -25 l 386 -25 q 279 -15 319 -25 q 229 -107 229 -56 q 279 -181 229 -154 q 414 -207 329 -207 z "},"h":{"ha":889,"x_min":110,"x_max":789,"o":"m 110 0 l 110 1108 l 314 1108 l 314 829 l 304 683 q 410 763 350 728 q 549 797 469 797 q 732 715 675 797 q 789 485 789 632 l 789 0 l 585 0 l 585 460 q 558 586 585 550 q 475 622 532 622 q 392 600 428 622 q 314 535 357 578 l 314 0 l 110 0 z "},"i":{"ha":422,"x_min":94,"x_max":331,"o":"m 110 0 l 110 778 l 314 778 l 314 0 l 110 0 m 213 904 q 126 934 158 904 q 94 1015 94 964 q 126 1096 94 1065 q 213 1126 158 1126 q 298 1096 265 1126 q 331 1015 331 1065 q 298 934 331 964 q 213 904 265 904 z "},"j":{"ha":425,"x_min":-75,"x_max":332,"o":"m 56 -318 q -20 -312 11 -318 q -75 -296 -51 -306 l -39 -146 q -8 -154 -24 -151 q 26 -157 8 -157 q 93 -124 75 -157 q 111 -25 111 -90 l 111 778 l 317 778 l 317 -19 q 292 -171 317 -103 q 211 -278 268 -239 q 56 -318 154 -318 m 213 904 q 128 934 161 904 q 94 1015 94 964 q 128 1096 94 1065 q 213 1126 161 1126 q 299 1096 265 1126 q 332 1015 332 1065 q 299 934 332 964 q 213 904 265 904 z "},"k":{"ha":839,"x_min":110,"x_max":831,"o":"m 110 0 l 110 1108 l 311 1108 l 311 444 l 317 444 l 582 778 l 806 778 l 539 457 l 831 0 l 608 0 l 419 324 l 311 197 l 311 0 l 110 0 z "},"l":{"ha":438,"x_min":110,"x_max":407,"o":"m 303 -19 q 153 45 196 -19 q 110 218 110 110 l 110 1108 l 314 1108 l 314 210 q 327 161 314 175 q 354 147 340 147 q 367 148 361 147 q 382 150 372 149 l 407 -1 q 364 -14 389 -8 q 303 -19 339 -19 z "},"m":{"ha":1339,"x_min":110,"x_max":1236,"o":"m 110 0 l 110 778 l 276 778 l 292 674 l 296 674 q 401 761 344 725 q 535 797 458 797 q 669 762 618 797 q 747 661 721 726 q 861 758 801 718 q 996 797 921 797 q 1178 715 1119 797 q 1236 485 1236 632 l 1236 0 l 1033 0 l 1033 460 q 1007 586 1033 550 q 925 622 981 622 q 775 535 857 622 l 775 0 l 572 0 l 572 460 q 546 586 572 550 q 463 622 519 622 q 314 535 393 622 l 314 0 l 110 0 z "},"n":{"ha":890,"x_min":110,"x_max":789,"o":"m 110 0 l 110 778 l 276 778 l 292 675 l 296 675 q 408 761 347 725 q 549 797 469 797 q 732 715 675 797 q 789 485 789 632 l 789 0 l 585 0 l 585 460 q 558 586 585 550 q 475 622 532 622 q 392 600 428 622 q 314 535 357 578 l 314 0 l 110 0 z "},"o":{"ha":869,"x_min":61,"x_max":808,"o":"m 435 -19 q 252 28 338 -19 q 114 168 167 76 q 61 389 61 260 q 114 609 61 518 q 252 749 167 700 q 435 797 338 797 q 617 749 532 797 q 756 609 703 700 q 808 389 808 518 q 756 168 808 260 q 617 28 703 76 q 435 -19 532 -19 m 435 147 q 557 213 514 147 q 600 389 600 279 q 557 565 600 499 q 435 631 514 631 q 312 565 354 631 q 269 389 269 499 q 312 213 269 279 q 435 147 354 147 z "},"p":{"ha":894,"x_min":110,"x_max":831,"o":"m 110 -299 l 110 778 l 276 778 l 292 697 l 296 697 q 403 768 344 739 q 525 797 461 797 q 689 748 621 797 q 794 610 757 699 q 831 401 831 521 q 783 174 831 268 q 661 30 736 79 q 500 -19 586 -19 q 400 3 449 -19 q 307 65 351 25 l 314 -61 l 314 -299 l 110 -299 m 456 149 q 573 210 525 149 q 621 399 621 272 q 584 569 621 510 q 467 629 547 629 q 391 610 428 629 q 314 550 354 590 l 314 207 q 388 162 351 175 q 456 149 424 149 z "},"q":{"ha":894,"x_min":65,"x_max":786,"o":"m 582 -299 l 582 -51 l 589 74 q 494 7 549 33 q 383 -19 440 -19 q 151 89 238 -19 q 65 389 65 197 q 113 607 65 515 q 234 748 160 699 q 392 797 308 797 q 506 774 457 797 q 603 701 556 750 l 608 701 l 626 778 l 786 778 l 786 -299 l 582 -299 m 436 149 q 513 167 476 149 q 582 229 549 186 l 582 571 q 510 616 547 603 q 436 629 474 629 q 323 568 371 629 q 275 392 275 507 q 317 209 275 269 q 436 149 360 149 z "},"r":{"ha":606,"x_min":110,"x_max":607,"o":"m 110 0 l 110 778 l 276 778 l 292 640 l 296 640 q 398 757 339 717 q 517 797 457 797 q 569 792 549 797 q 607 781 590 788 l 574 604 q 534 614 553 611 q 490 617 515 617 q 397 583 446 617 q 314 464 347 549 l 314 0 l 110 0 z "},"s":{"ha":688,"x_min":36,"x_max":642,"o":"m 332 -19 q 174 11 254 -19 q 36 89 94 42 l 129 218 q 232 156 182 179 q 338 133 282 133 q 423 156 396 133 q 450 215 450 179 q 426 265 450 244 q 366 301 403 285 q 288 332 329 317 q 190 379 239 351 q 110 451 142 407 q 79 560 79 494 q 115 683 79 629 q 215 767 150 736 q 369 797 281 797 q 520 768 454 797 q 633 701 586 739 l 542 578 q 459 626 500 607 q 375 644 418 644 q 297 624 322 644 q 271 569 271 603 q 317 506 271 526 q 425 461 363 485 q 526 415 476 442 q 609 343 576 388 q 642 226 642 299 q 606 102 642 158 q 502 13 571 46 q 332 -19 433 -19 z "},"t":{"ha":585,"x_min":29,"x_max":560,"o":"m 394 -19 q 247 17 303 -19 q 165 119 190 54 q 139 271 139 185 l 139 617 l 29 617 l 29 768 l 150 778 l 174 988 l 342 988 l 342 778 l 535 778 l 535 617 l 342 617 l 342 272 q 449 142 342 142 q 489 147 468 142 q 525 158 510 153 l 560 10 q 487 -10 528 0 q 394 -19 446 -19 z "},"u":{"ha":885,"x_min":101,"x_max":776,"o":"m 342 -19 q 158 63 215 -19 q 101 293 101 146 l 101 778 l 304 778 l 304 318 q 331 192 304 228 q 415 156 358 156 q 498 178 463 156 q 572 253 533 201 l 572 778 l 776 778 l 776 0 l 610 0 l 594 113 l 589 113 q 481 17 539 53 q 342 -19 422 -19 z "},"v":{"ha":800,"x_min":19,"x_max":781,"o":"m 285 0 l 19 778 l 225 778 l 338 390 q 369 274 354 333 q 401 154 385 214 l 408 154 q 440 274 424 214 q 471 390 456 333 l 585 778 l 781 778 l 521 0 l 285 0 z "},"w":{"ha":1199,"x_min":39,"x_max":1160,"o":"m 239 0 l 39 778 l 242 778 l 328 394 q 346 281 338 338 q 364 167 354 224 l 371 167 q 394 281 382 224 q 419 394 406 339 l 514 778 l 694 778 l 792 394 q 817 281 806 338 q 842 167 828 224 l 847 167 q 867 281 858 224 q 886 394 876 338 l 969 778 l 1160 778 l 968 0 l 728 0 l 646 339 q 622 449 633 394 q 600 567 611 504 l 593 567 q 573 449 583 504 q 551 339 563 393 l 472 0 l 239 0 z "},"x":{"ha":781,"x_min":22,"x_max":758,"o":"m 22 0 l 265 404 l 38 778 l 257 778 l 335 640 q 369 574 351 607 q 404 508 386 540 l 410 508 q 438 574 424 540 q 467 640 453 607 l 532 778 l 743 778 l 515 382 l 758 0 l 539 0 l 453 143 q 416 212 435 178 q 378 278 397 246 l 371 278 q 338 212 354 246 q 306 143 322 178 l 235 0 l 22 0 z "},"y":{"ha":797,"x_min":19,"x_max":779,"o":"m 178 -311 q 119 -307 143 -311 q 71 -297 94 -303 l 108 -140 q 134 -147 119 -143 q 163 -150 149 -150 q 257 -117 222 -150 q 308 -32 292 -83 l 322 15 l 19 778 l 225 778 l 349 417 q 382 310 367 365 q 414 197 397 254 l 421 197 q 448 307 433 251 q 476 417 463 363 l 583 778 l 779 778 l 503 -24 q 427 -179 469 -115 q 325 -277 385 -243 q 178 -311 265 -311 z "},"z":{"ha":710,"x_min":57,"x_max":672,"o":"m 57 0 l 57 108 l 406 617 l 96 617 l 96 778 l 660 778 l 660 668 l 311 161 l 672 161 l 672 0 l 57 0 z "},"{":{"ha":525,"x_min":51,"x_max":458,"o":"m 367 -239 q 218 -192 265 -239 q 171 -19 171 -146 q 174 81 171 38 q 181 166 178 124 q 185 258 185 208 q 157 340 185 303 q 51 378 129 376 l 51 499 q 157 538 129 501 q 185 617 185 574 q 181 710 185 668 q 174 795 178 751 q 171 894 171 839 q 218 1069 171 1022 q 367 1115 265 1115 l 458 1115 l 458 1006 l 426 1006 q 354 981 372 1006 q 336 886 336 956 q 339 758 336 821 q 342 622 342 696 q 315 496 342 536 q 232 440 289 456 l 232 435 q 315 380 289 421 q 342 253 342 339 q 339 118 342 181 q 336 -11 336 56 q 354 -105 336 -79 q 426 -131 372 -131 l 458 -131 l 458 -239 l 367 -239 z "},"|":{"ha":411,"x_min":139,"x_max":272,"o":"m 139 -394 l 139 1182 l 272 1182 l 272 -394 l 139 -394 z "},"}":{"ha":525,"x_min":67,"x_max":475,"o":"m 67 -239 l 67 -131 l 99 -131 q 170 -105 151 -131 q 189 -11 189 -79 q 185 118 189 56 q 182 253 182 181 q 209 380 182 339 q 293 435 236 421 l 293 440 q 209 496 236 456 q 182 622 182 536 q 185 758 182 696 q 189 886 189 821 q 170 981 189 956 q 99 1006 151 1006 l 67 1006 l 67 1115 l 157 1115 q 306 1069 258 1115 q 354 894 354 1022 q 351 795 354 839 q 344 710 347 751 q 340 617 340 668 q 369 538 340 574 q 475 499 397 501 l 475 378 q 369 340 397 376 q 340 258 340 303 q 344 166 340 208 q 351 81 347 124 q 354 -19 354 38 q 306 -192 354 -146 q 157 -239 258 -239 l 67 -239 z "},"~":{"ha":819,"x_min":49,"x_max":771,"o":"m 544 386 q 460 405 497 386 q 393 448 424 424 q 333 491 363 472 q 272 510 304 510 q 156 417 207 510 l 49 497 q 160 619 103 583 q 275 654 218 654 q 360 635 324 654 q 426 593 396 617 q 486 551 457 569 q 547 532 515 532 q 663 624 613 532 l 771 542 q 659 422 717 457 q 544 386 601 386 z "},"—":{"ha":1261,"x_min":68,"x_max":1193,"o":"m 68 333 l 68 464 l 1193 464 l 1193 333 l 68 333 z "},"…":{"ha":1389,"x_min":119,"x_max":1269,"o":"m 232 640 q 312 608 279 640 q 344 528 344 575 q 312 448 344 481 q 232 415 279 415 q 152 448 185 415 q 119 528 119 481 q 152 608 119 575 q 232 640 185 640 m 694 640 q 774 608 742 640 q 807 528 807 575 q 774 448 807 481 q 694 415 742 415 q 615 448 647 415 q 582 528 582 481 q 615 608 582 575 q 694 640 647 640 m 1157 640 q 1237 608 1204 640 q 1269 528 1269 575 q 1237 448 1269 481 q 1157 415 1204 415 q 1077 448 1110 415 q 1044 528 1044 481 q 1077 608 1044 575 q 1157 640 1110 640 z "},"。":{"ha":1389,"x_min":44,"x_max":493,"o":"m 268 344 q 382 314 331 344 q 463 233 433 283 q 493 119 493 182 q 463 7 493 58 q 382 -75 433 -44 q 268 -106 331 -106 q 156 -75 207 -106 q 75 7 106 -44 q 44 119 44 58 q 75 233 44 182 q 156 314 106 283 q 268 344 207 344 m 268 -6 q 357 31 321 -6 q 393 119 393 68 q 357 208 393 172 q 268 244 321 244 q 181 208 218 244 q 144 119 144 172 q 181 31 144 68 q 268 -6 218 -6 z "},"《":{"ha":1389,"x_min":719,"x_max":1351,"o":"m 1111 -92 l 996 -128 l 719 528 l 996 1183 l 1111 1147 l 849 528 l 1111 -92 m 1351 -92 l 1235 -128 l 960 528 l 1235 1183 l 1351 1147 l 1088 528 l 1351 -92 z "},"》":{"ha":1389,"x_min":38,"x_max":669,"o":"m 278 -92 l 540 528 l 278 1147 l 393 1183 l 669 528 l 393 -128 l 278 -92 m 38 -92 l 301 528 l 38 1147 l 154 1183 l 429 528 l 154 -128 l 38 -92 z "},"【":{"ha":1389,"x_min":917,"x_max":1350,"o":"m 1350 1176 q 1213 1014 1275 1111 q 1113 794 1150 917 q 1075 528 1075 671 q 1113 263 1075 386 q 1213 42 1150 139 q 1350 -121 1275 -56 l 1350 -128 l 917 -128 l 917 1183 l 1350 1183 l 1350 1176 z "},"】":{"ha":1389,"x_min":39,"x_max":472,"o":"m 472 -128 l 39 -128 l 39 -121 q 177 42 115 -56 q 276 263 239 139 q 314 528 314 386 q 276 794 314 671 q 177 1014 239 917 q 39 1176 115 1111 l 39 1183 l 472 1183 l 472 -128 z "},"·":{"ha":1389,"x_min":517,"x_max":872,"o":"m 694 706 q 783 681 743 706 q 848 617 824 657 q 872 528 872 576 q 848 439 872 479 q 783 374 824 399 q 694 350 743 350 q 606 374 646 350 q 541 439 565 399 q 517 528 517 479 q 541 617 517 576 q 606 681 565 657 q 694 706 646 706 z "},"一":{"ha":1389,"x_min":53,"x_max":1339,"o":"m 53 632 l 1339 632 l 1339 450 l 53 450 l 53 632 z "},"丁":{"ha":1389,"x_min":75,"x_max":1315,"o":"m 75 1075 l 1315 1075 l 1315 901 l 836 901 l 836 113 q 813 -16 836 28 q 732 -82 789 -60 q 589 -110 675 -104 q 390 -115 503 -115 q 372 -52 385 -87 q 342 19 358 -17 q 310 81 325 54 q 423 76 365 78 q 526 75 481 75 q 589 75 571 75 q 626 85 615 76 q 638 115 638 93 l 638 901 l 75 901 l 75 1075 z "},"七":{"ha":1389,"x_min":57,"x_max":1344,"o":"m 450 1151 l 632 1151 l 632 736 l 1317 840 l 1344 668 l 632 563 l 632 193 q 640 124 632 147 q 669 94 647 101 q 738 86 692 86 q 792 86 754 86 q 876 86 831 86 q 961 86 922 86 q 1017 86 1000 86 q 1088 108 1064 86 q 1122 193 1111 131 q 1142 375 1133 256 q 1225 327 1174 350 q 1311 296 1276 304 q 1274 75 1300 157 q 1190 -44 1247 -7 q 1029 -81 1133 -81 q 968 -81 1011 -81 q 875 -81 925 -81 q 783 -81 825 -81 q 724 -81 740 -81 q 558 -56 618 -81 q 474 28 499 -32 q 450 196 450 89 l 450 535 l 85 481 l 57 649 l 450 708 l 450 1151 z "},"万":{"ha":1389,"x_min":26,"x_max":1308,"o":"m 82 1085 l 1308 1085 l 1308 922 l 582 922 q 578 809 581 867 q 571 694 575 751 l 1196 694 q 1195 681 1196 694 q 1194 649 1194 667 q 1193 621 1194 632 q 1170 273 1183 407 q 1139 66 1157 139 q 1093 -39 1121 -7 q 1027 -89 1063 -75 q 944 -108 992 -103 q 837 -113 903 -114 q 701 -110 771 -112 q 682 -27 699 -74 q 642 54 665 19 q 780 47 715 49 q 875 46 844 46 q 913 49 899 46 q 940 64 926 53 q 985 200 968 89 q 1014 533 1003 311 l 550 533 q 484 284 529 404 q 358 60 439 164 q 147 -122 278 -43 q 94 -50 129 -89 q 26 13 60 -11 q 204 151 135 72 q 313 322 274 231 q 372 514 353 414 q 398 717 392 614 q 407 922 404 821 l 82 922 l 82 1085 z "},"丈":{"ha":1389,"x_min":72,"x_max":1328,"o":"m 751 1157 l 936 1157 l 933 929 l 1313 929 l 1313 767 l 926 767 q 880 456 917 597 q 757 204 843 315 q 1328 38 968 75 q 1272 -38 1301 10 q 1226 -122 1242 -86 q 886 -47 1033 -97 q 628 79 739 3 q 433 -28 546 19 q 168 -110 319 -75 q 128 -34 157 -78 q 72 38 100 10 q 316 106 213 67 q 492 196 419 146 q 342 412 404 290 q 233 685 279 533 l 392 722 q 481 494 426 596 q 617 313 536 392 q 710 515 683 401 q 746 767 738 628 l 79 767 l 79 929 l 750 929 l 751 1157 z "},"三":{"ha":1389,"x_min":88,"x_max":1299,"o":"m 165 1047 l 1225 1047 l 1225 876 l 165 876 l 165 1047 m 261 600 l 1114 600 l 1114 431 l 261 431 l 261 600 m 88 129 l 1299 129 l 1299 -40 l 88 -40 l 88 129 z "},"上":{"ha":1389,"x_min":60,"x_max":1331,"o":"m 560 1163 l 739 1163 l 739 763 l 1232 763 l 1232 594 l 739 594 l 739 113 l 1331 113 l 1331 -56 l 60 -56 l 60 113 l 560 113 l 560 1163 z "},"下":{"ha":1389,"x_min":72,"x_max":1318,"o":"m 72 1078 l 1318 1078 l 1318 910 l 756 910 l 756 689 l 785 724 q 908 660 842 696 q 1039 587 974 625 q 1162 511 1104 549 q 1260 440 1219 474 l 1136 288 q 1033 369 1096 325 q 899 458 971 413 q 756 543 826 503 l 756 -121 l 576 -121 l 576 910 l 72 910 l 72 1078 z "},"不":{"ha":1389,"x_min":46,"x_max":1354,"o":"m 90 1088 l 1301 1088 l 1301 917 l 867 917 q 828 852 849 885 q 786 788 808 819 l 786 642 l 890 729 q 1010 641 946 689 q 1140 542 1075 593 q 1260 442 1204 490 q 1354 351 1317 393 l 1213 222 q 1097 342 1169 275 q 943 476 1025 408 q 786 601 861 544 l 786 -122 l 604 -122 l 604 560 q 399 370 510 458 q 161 217 288 282 q 108 294 142 250 q 46 367 74 339 q 286 515 174 428 q 491 706 399 603 q 647 917 583 810 l 90 917 l 90 1088 z "},"与":{"ha":1389,"x_min":68,"x_max":1269,"o":"m 68 363 l 936 363 l 936 203 l 68 203 l 68 363 m 344 1157 l 515 1142 l 493 1011 l 1233 1011 l 1233 851 l 464 851 l 426 663 l 1269 663 q 1269 649 1269 663 q 1267 619 1268 636 q 1264 590 1265 601 q 1226 267 1246 393 q 1183 68 1207 140 q 1125 -37 1158 -4 q 1052 -87 1090 -74 q 958 -106 1014 -100 q 844 -108 915 -110 q 699 -104 774 -107 q 678 -20 696 -68 q 633 63 661 28 q 793 54 717 56 q 904 53 869 53 q 948 56 931 53 q 981 69 965 58 q 1041 203 1015 97 q 1085 508 1067 310 l 393 508 l 361 508 l 215 510 q 262 704 238 593 q 308 934 286 815 q 344 1157 329 1053 z "},"丐":{"ha":1389,"x_min":88,"x_max":1307,"o":"m 219 821 l 394 810 q 378 639 388 729 q 357 467 368 549 l 596 467 l 596 932 l 88 932 l 88 1092 l 1307 1092 l 1307 932 l 775 932 l 775 781 l 1228 781 l 1228 625 l 775 625 l 775 467 l 1292 467 q 1291 453 1292 467 q 1288 423 1290 440 q 1283 394 1286 406 q 1234 85 1263 190 q 1160 -61 1206 -19 q 1081 -108 1124 -96 q 975 -122 1039 -119 q 851 -123 928 -124 q 689 -119 774 -122 q 667 -37 686 -83 q 619 43 647 8 q 744 36 682 39 q 857 33 806 33 q 936 32 908 32 q 983 34 964 32 q 1019 46 1003 36 q 1100 306 1069 82 l 158 306 q 183 462 171 374 q 204 644 194 550 q 219 821 214 738 z "},"丑":{"ha":1389,"x_min":58,"x_max":1333,"o":"m 188 625 l 450 625 q 463 794 457 710 q 474 956 469 878 l 154 956 l 154 1124 l 1175 1124 q 1167 856 1172 994 q 1155 578 1161 717 q 1140 313 1149 440 q 1124 78 1132 185 l 1333 78 l 1333 -86 l 58 -86 l 58 78 l 389 78 q 412 257 400 160 q 433 457 424 354 l 188 457 l 188 625 m 647 956 q 635 793 642 876 q 621 625 628 710 l 982 625 q 989 792 986 708 q 993 956 992 875 l 647 956 m 565 78 l 944 78 q 960 258 953 161 q 974 457 968 354 l 606 457 q 586 256 596 353 q 565 78 576 160 z "},"专":{"ha":1389,"x_min":69,"x_max":1310,"o":"m 550 1189 l 724 1167 l 694 1053 l 1210 1053 l 1210 893 l 651 893 l 619 775 l 1310 775 l 1310 615 l 574 615 l 538 499 l 1089 499 l 1117 508 l 1244 433 q 1086 270 1172 357 q 913 97 1000 183 q 1019 53 969 75 q 1107 13 1068 32 l 1008 -133 q 875 -67 954 -101 q 704 3 796 -32 q 519 68 613 38 q 342 121 425 99 l 431 246 q 579 208 500 231 q 738 160 658 186 q 835 252 786 204 q 929 344 885 300 l 489 344 l 444 344 l 311 346 q 353 472 331 403 q 397 615 375 540 l 69 615 l 69 775 l 444 775 l 476 893 l 185 893 l 185 1053 l 518 1053 l 550 1189 z "},"且":{"ha":1389,"x_min":68,"x_max":1324,"o":"m 278 1106 l 1138 1106 l 1138 96 l 1324 96 l 1324 -67 l 68 -67 l 68 96 l 278 96 l 278 1106 m 443 96 l 964 96 l 964 276 l 443 276 l 443 96 m 443 615 l 443 438 l 964 438 l 964 615 l 443 615 m 443 769 l 964 769 l 964 944 l 443 944 l 443 769 z "},"世":{"ha":1389,"x_min":61,"x_max":1328,"o":"m 611 1168 l 776 1168 l 776 844 l 969 844 l 969 1156 l 1143 1156 l 1143 844 l 1328 844 l 1328 685 l 1143 685 l 1143 269 l 611 269 l 611 685 l 422 685 l 422 113 l 1292 113 l 1292 -49 l 250 -49 l 250 685 l 61 685 l 61 844 l 250 844 l 250 1139 l 422 1139 l 422 844 l 611 844 l 611 1168 m 969 685 l 776 685 l 776 422 l 969 422 l 969 685 z "},"丘":{"ha":1389,"x_min":56,"x_max":1335,"o":"m 1053 1161 l 1154 1013 q 937 958 1056 981 q 691 919 818 935 q 439 894 564 904 l 439 689 l 1257 689 l 1257 525 l 1056 525 l 1056 108 l 1335 108 l 1335 -56 l 56 -56 l 56 108 l 268 108 l 268 1039 q 552 1063 408 1047 q 826 1103 696 1079 q 1053 1161 956 1128 m 439 108 l 883 108 l 883 525 l 439 525 l 439 108 z "},"丙":{"ha":1389,"x_min":86,"x_max":1299,"o":"m 128 768 l 599 768 l 599 933 l 86 933 l 86 1097 l 1299 1097 l 1299 933 l 781 933 l 781 768 l 1267 768 l 1267 71 q 1249 -32 1267 6 q 1186 -89 1232 -69 q 1073 -112 1140 -108 q 911 -117 1006 -117 q 890 -33 906 -81 q 856 47 874 14 q 940 45 897 46 q 1016 44 982 44 q 1063 44 1050 44 q 1099 74 1099 44 l 1099 613 l 772 613 q 756 533 767 574 q 878 448 814 494 q 998 356 942 401 q 1090 272 1054 311 l 976 142 q 901 216 947 175 q 802 301 856 257 q 696 385 749 344 q 585 240 654 310 q 408 111 515 171 q 358 172 390 136 q 294 231 325 207 l 294 -122 l 128 -122 l 128 768 m 294 246 q 459 358 399 297 q 549 485 519 419 q 589 613 579 550 l 294 613 l 294 246 z "},"业":{"ha":1389,"x_min":71,"x_max":1321,"o":"m 89 842 l 242 888 q 310 711 275 806 q 375 528 344 617 q 422 372 406 439 l 256 311 q 214 470 242 379 q 153 659 186 561 q 89 842 121 757 m 1157 883 l 1310 813 q 1240 633 1278 725 q 1162 456 1201 540 q 1086 303 1122 371 l 958 369 l 958 107 l 1321 107 l 1321 -60 l 71 -60 l 71 107 l 432 107 l 432 1163 l 603 1163 l 603 107 l 788 107 l 788 1163 l 958 1163 l 958 393 q 1031 542 993 458 q 1101 714 1068 625 q 1157 883 1135 803 z "},"丛":{"ha":1389,"x_min":65,"x_max":1333,"o":"m 65 82 l 1328 82 l 1328 -93 l 65 -93 l 65 82 m 333 1169 l 514 1161 q 503 996 510 1076 q 486 839 497 915 q 581 719 535 782 q 667 598 628 657 q 732 492 706 539 l 603 364 q 537 481 578 415 q 449 614 496 546 q 357 333 414 460 q 210 111 300 206 q 172 153 197 128 q 118 203 146 178 q 69 243 90 229 q 223 477 168 338 q 302 792 278 617 q 333 1169 326 968 m 876 1169 l 1057 1158 q 1043 991 1051 1072 q 1024 833 1035 910 q 1089 629 1049 735 q 1190 433 1129 524 q 1333 282 1251 342 q 1290 238 1314 265 q 1244 181 1267 211 q 1208 128 1222 151 q 1060 308 1122 201 q 954 528 997 414 q 850 291 913 397 q 696 103 788 185 q 658 147 683 121 q 606 197 633 172 q 557 236 578 222 q 738 465 672 328 q 835 781 804 603 q 876 1169 867 958 z "},"东":{"ha":1389,"x_min":81,"x_max":1335,"o":"m 322 361 l 489 315 q 413 167 457 240 q 320 29 369 93 q 221 -82 271 -35 q 180 -47 206 -67 q 128 -7 154 -26 q 81 25 101 13 q 219 176 154 86 q 322 361 283 267 m 922 294 l 1063 363 q 1164 250 1111 311 q 1263 128 1217 189 q 1335 19 1308 68 l 1182 -60 q 1115 51 1158 -11 q 1022 176 1072 113 q 922 294 971 240 m 99 1003 l 474 1003 q 520 1097 497 1049 q 563 1193 543 1144 l 747 1128 q 717 1066 733 1097 q 683 1003 700 1035 l 1294 1003 l 1294 843 l 592 843 q 429 607 513 715 l 679 607 l 679 785 l 849 785 l 849 607 l 1231 607 l 1229 446 l 849 446 l 849 76 q 833 -24 849 13 q 775 -82 818 -61 q 674 -108 733 -103 q 539 -114 615 -114 q 515 -28 533 -78 q 478 57 497 22 q 581 54 532 56 q 649 54 631 53 q 673 60 667 54 q 679 79 679 65 l 679 446 l 393 446 q 289 440 338 446 q 231 424 240 435 q 216 472 226 442 q 193 536 206 503 q 169 593 181 569 q 226 627 200 601 q 285 696 251 653 q 327 753 300 715 q 385 843 354 792 l 99 843 l 99 1003 z "},"丝":{"ha":1389,"x_min":64,"x_max":1329,"o":"m 64 96 l 1328 96 l 1328 -57 l 64 -57 l 64 96 m 167 179 q 153 222 163 194 q 133 279 144 250 q 113 328 122 308 q 172 363 143 336 q 239 435 200 390 q 284 487 256 451 q 347 569 313 522 q 238 563 278 567 q 176 554 197 558 q 143 544 156 550 q 130 587 139 560 q 111 642 121 614 q 92 692 101 671 q 135 721 115 699 q 179 779 154 743 q 214 837 192 796 q 264 933 236 878 q 318 1053 292 989 q 365 1182 344 1118 l 522 1124 q 419 908 478 1015 q 300 711 361 801 l 444 715 q 515 831 481 771 q 578 951 549 892 l 726 875 q 553 604 649 736 q 358 361 457 472 l 672 375 q 663 297 667 340 q 660 228 658 254 q 424 212 514 218 q 284 200 335 206 q 208 190 233 194 q 167 179 182 185 m 744 185 q 731 228 740 200 q 712 285 722 256 q 692 335 701 314 q 752 367 722 342 q 824 436 782 393 q 873 490 842 454 q 943 576 904 526 q 826 568 868 572 q 763 560 783 564 q 728 550 742 556 q 716 593 725 567 q 697 649 707 619 q 676 697 686 678 q 721 726 700 704 q 765 783 742 747 q 802 840 778 800 q 855 934 826 879 q 911 1052 883 989 q 961 1179 939 1115 l 1117 1119 q 1010 908 1069 1014 q 888 715 950 803 l 1049 719 q 1119 829 1085 772 q 1183 942 1154 886 l 1329 864 q 1149 601 1247 729 q 947 368 1050 474 l 1301 382 q 1292 305 1296 349 q 1289 235 1289 261 q 1028 219 1128 226 q 873 208 929 213 q 789 197 817 203 q 744 185 761 192 z "},"丢":{"ha":1389,"x_min":75,"x_max":1313,"o":"m 1118 1178 l 1244 1035 q 1024 995 1142 1013 q 779 967 906 978 l 779 832 l 1206 832 l 1206 674 l 779 674 l 779 551 l 1313 551 l 1313 396 l 593 396 l 665 368 q 432 122 557 235 l 964 158 q 910 230 938 194 q 856 296 883 265 l 1007 358 q 1119 226 1063 299 q 1225 83 1176 154 q 1300 -49 1274 11 l 1133 -119 q 1060 19 1108 -58 q 698 -11 844 1 q 458 -32 551 -24 q 312 -47 365 -40 q 229 -59 258 -53 q 179 -74 200 -65 q 165 -26 175 -56 q 145 34 156 3 q 125 88 135 65 q 174 109 150 93 q 229 150 199 125 q 288 201 250 165 q 373 288 326 238 q 463 396 419 338 l 75 396 l 75 551 l 607 551 l 607 674 l 183 674 l 183 832 l 607 832 l 607 953 q 385 942 496 946 q 168 936 274 938 q 153 1013 165 968 q 128 1088 140 1058 q 396 1097 260 1090 q 663 1115 532 1104 q 911 1142 794 1126 q 1118 1178 1028 1157 z "},"两":{"ha":1389,"x_min":79,"x_max":1314,"o":"m 126 790 l 439 790 l 439 931 l 79 931 l 79 1090 l 1314 1090 l 1314 931 l 949 931 l 949 790 l 1263 790 l 1263 61 q 1246 -41 1263 -3 q 1183 -99 1229 -79 q 1074 -122 1140 -118 q 915 -126 1007 -126 q 894 -42 910 -90 q 861 39 878 6 q 942 35 901 36 q 1016 35 983 35 q 1061 35 1049 35 q 1094 65 1094 35 l 1094 236 l 1036 154 q 978 238 1014 190 q 903 333 943 286 q 837 178 878 253 q 731 40 796 103 q 676 102 711 67 q 613 157 642 138 q 721 303 685 221 q 770 472 757 385 q 785 633 783 558 l 601 633 q 593 508 601 574 q 667 428 631 469 q 721 356 703 388 l 625 222 q 595 271 614 244 q 554 324 576 297 q 488 174 529 247 q 383 40 447 101 q 344 88 369 61 q 293 136 318 115 l 293 -125 l 126 -125 l 126 790 m 603 931 l 603 790 l 785 790 l 785 931 l 603 931 m 1094 633 l 947 633 q 939 511 947 574 q 1022 424 981 469 q 1094 338 1064 378 l 1094 633 m 293 183 q 383 324 353 247 q 426 482 414 401 q 439 633 438 563 l 293 633 l 293 183 z "},"严":{"ha":1389,"x_min":26,"x_max":1307,"o":"m 186 914 l 329 961 q 390 840 363 907 q 429 722 418 774 l 278 669 q 244 789 269 719 q 186 914 218 858 m 1049 961 l 1222 915 q 1150 781 1188 847 q 1081 667 1113 714 l 944 710 q 1002 833 972 763 q 1049 961 1032 904 m 133 661 l 471 661 l 471 969 l 133 969 l 133 1113 l 1265 1113 l 1265 969 l 915 969 l 915 661 l 1307 661 l 1307 517 l 299 517 l 299 453 q 293 315 299 390 q 272 160 288 239 q 229 8 257 82 q 157 -126 201 -67 q 119 -86 144 -110 q 69 -40 94 -62 q 26 -8 43 -18 q 99 142 76 60 q 127 306 121 224 q 133 456 133 388 l 133 661 m 633 969 l 633 661 l 751 661 l 751 969 l 633 969 z "},"丧":{"ha":1389,"x_min":63,"x_max":1347,"o":"m 1011 889 l 1181 828 q 1081 694 1132 760 q 989 583 1031 628 l 860 639 q 942 760 900 690 q 1011 889 985 831 m 201 831 l 347 890 q 406 811 376 854 q 460 726 435 768 q 500 651 486 685 l 344 585 q 308 661 332 618 q 257 749 285 704 q 201 831 229 793 m 263 -126 q 238 -51 257 -96 q 199 21 218 -6 q 247 57 222 32 q 272 125 272 82 l 272 429 l 63 429 l 63 579 l 604 579 l 604 892 l 107 892 l 107 1043 l 604 1043 l 604 1181 l 769 1181 l 769 1043 l 1282 1043 l 1282 892 l 769 892 l 769 579 l 1331 579 l 1331 429 l 763 429 q 888 249 810 328 q 1013 336 949 288 q 1121 428 1078 385 l 1249 332 q 1126 240 1192 285 q 999 160 1060 196 q 1347 29 1136 67 q 1292 -40 1321 3 q 1246 -117 1263 -83 q 841 76 994 -60 q 600 429 688 211 l 446 429 l 446 89 l 739 146 q 728 63 732 111 q 725 -14 724 14 q 504 -62 589 -43 q 372 -92 419 -81 q 300 -110 324 -103 q 263 -126 276 -118 z "},"个":{"ha":1389,"x_min":32,"x_max":1365,"o":"m 606 731 l 779 731 l 779 -122 l 606 -122 l 606 731 m 692 1182 l 842 1111 l 800 1044 q 1103 802 961 888 q 1365 669 1244 717 q 1296 597 1331 640 q 1242 511 1261 553 q 1083 599 1167 549 q 903 726 999 650 q 700 914 808 801 q 446 683 586 783 q 154 513 306 582 q 101 596 135 551 q 32 675 68 640 q 290 799 165 725 q 517 968 414 872 q 692 1182 621 1064 z "},"丫":{"ha":1389,"x_min":158,"x_max":1238,"o":"m 158 1057 l 285 1160 q 414 1069 346 1119 q 544 965 482 1018 q 643 868 606 913 l 504 751 q 413 850 471 796 q 288 958 354 904 q 158 1057 221 1013 m 1063 1153 l 1238 1081 q 1087 928 1167 1007 q 928 777 1007 850 q 783 646 850 704 l 783 -124 l 606 -124 l 606 721 q 753 851 672 776 q 916 1004 835 925 q 1063 1153 997 1083 z "},"中":{"ha":1389,"x_min":122,"x_max":1269,"o":"m 603 1181 l 779 1181 l 779 939 l 1269 939 l 1269 242 l 1094 242 l 1094 311 l 779 311 l 779 -124 l 603 -124 l 603 311 l 289 311 l 289 235 l 122 235 l 122 939 l 603 939 l 603 1181 m 289 475 l 603 475 l 603 775 l 289 775 l 289 475 m 1094 475 l 1094 775 l 779 775 l 779 475 l 1094 475 z "},"丰":{"ha":1389,"x_min":65,"x_max":1325,"o":"m 603 1181 l 782 1181 l 782 982 l 1272 982 l 1272 817 l 782 817 l 782 675 l 1208 675 l 1208 515 l 782 515 l 782 358 l 1325 358 l 1325 192 l 782 192 l 782 -122 l 603 -122 l 603 192 l 65 192 l 65 358 l 603 358 l 603 515 l 186 515 l 186 675 l 603 675 l 603 817 l 114 817 l 114 982 l 603 982 l 603 1181 z "},"串":{"ha":1389,"x_min":126,"x_max":1271,"o":"m 600 374 l 300 374 l 300 239 l 600 239 l 600 374 m 185 1025 l 600 1025 l 600 1179 l 781 1179 l 781 1025 l 1211 1025 l 1211 610 l 781 610 l 781 525 l 1271 525 l 1271 38 l 1089 38 l 1089 90 l 781 90 l 781 -125 l 600 -125 l 600 90 l 300 90 l 300 36 l 126 36 l 126 525 l 600 525 l 600 610 l 185 610 l 185 1025 m 781 374 l 781 239 l 1089 239 l 1089 374 l 781 374 m 356 881 l 356 754 l 600 754 l 600 881 l 356 881 m 781 881 l 781 754 l 1029 754 l 1029 881 l 781 881 z "},"临":{"ha":1389,"x_min":88,"x_max":1331,"o":"m 88 1025 l 243 1025 l 243 36 l 88 36 l 88 1025 m 808 760 l 917 860 q 1006 794 960 829 q 1092 726 1051 760 q 1161 665 1133 692 l 1050 544 q 983 610 1024 572 q 896 688 942 649 q 808 760 850 728 m 721 1186 l 886 1154 q 869 1092 878 1124 q 850 1029 861 1060 l 1331 1029 l 1331 868 l 788 868 q 621 600 715 707 q 562 644 600 619 q 492 688 524 669 l 492 -110 l 328 -110 l 328 1164 l 492 1164 l 492 711 q 631 923 572 797 q 721 1186 689 1049 m 872 97 l 872 367 l 751 367 l 751 97 l 872 97 m 1024 97 l 1138 97 l 1138 367 l 1024 367 l 1024 97 m 590 526 l 1304 526 l 1304 -117 l 1138 -117 l 1138 -57 l 751 -57 l 751 -124 l 590 -124 l 590 526 z "},"丸":{"ha":1389,"x_min":31,"x_max":1375,"o":"m 160 513 l 274 629 q 357 580 314 607 q 444 525 400 553 q 463 623 456 574 q 476 724 471 672 l 111 724 l 111 889 l 486 889 q 488 1031 489 958 q 489 1175 488 1103 l 668 1175 q 666 1031 667 1103 q 663 889 665 960 l 1072 889 l 1072 128 q 1078 71 1072 83 q 1104 58 1083 58 q 1141 58 1114 58 q 1178 58 1168 58 q 1202 78 1194 58 q 1214 153 1210 99 q 1219 311 1218 208 q 1295 266 1249 288 q 1375 236 1342 244 q 1351 35 1369 110 q 1297 -72 1333 -40 q 1196 -104 1260 -104 q 1158 -104 1183 -104 q 1109 -104 1133 -104 q 1072 -104 1085 -104 q 969 -84 1007 -104 q 915 -13 931 -64 q 899 128 899 38 l 899 724 l 653 724 q 633 570 646 646 q 599 422 619 494 q 718 333 663 378 q 813 250 774 289 l 686 114 q 619 181 658 146 q 533 253 579 215 q 385 43 476 139 q 153 -126 293 -53 q 99 -55 135 -94 q 31 8 64 -15 q 254 165 168 75 q 389 361 340 254 q 272 440 331 401 q 160 513 214 479 z "},"丹":{"ha":1389,"x_min":35,"x_max":1325,"o":"m 513 838 l 631 932 q 719 861 672 900 q 808 783 765 822 q 876 714 850 744 l 749 608 q 685 681 725 640 q 599 763 644 721 q 513 838 554 804 m 256 1121 l 1151 1121 l 1151 585 l 1325 585 l 1325 425 l 1151 425 l 1151 68 q 1132 -40 1151 -3 q 1067 -97 1113 -78 q 947 -122 1019 -118 q 765 -126 874 -126 q 742 -44 760 -92 q 706 36 725 3 q 801 32 753 33 q 888 31 850 31 q 942 31 926 31 q 974 40 965 32 q 983 69 983 49 l 983 425 l 413 425 q 374 226 401 326 q 295 35 346 126 q 161 -125 244 -56 q 126 -85 149 -108 q 78 -41 103 -62 q 35 -8 53 -19 q 185 195 139 82 q 244 425 231 308 l 65 425 l 65 585 l 256 585 l 256 635 l 256 1121 m 424 967 l 424 635 l 424 585 l 983 585 l 983 967 l 424 967 z "},"为":{"ha":1389,"x_min":68,"x_max":1269,"o":"m 189 1086 l 335 1146 q 414 1040 374 1099 q 474 938 454 982 l 318 872 q 285 938 307 900 q 239 1014 264 975 q 189 1086 214 1053 m 669 492 l 810 557 q 874 472 842 518 q 935 383 907 426 q 979 303 964 339 l 829 228 q 789 310 815 264 q 731 403 763 356 q 669 492 700 451 m 535 1178 l 704 1178 l 704 988 q 703 924 704 957 q 701 856 703 892 l 1269 856 q 1269 840 1269 856 q 1269 806 1269 825 q 1268 776 1269 788 q 1253 433 1261 575 q 1236 198 1246 292 q 1212 50 1226 104 q 1176 -31 1197 -4 q 1114 -85 1146 -69 q 1038 -107 1082 -100 q 938 -112 999 -112 q 815 -111 878 -112 q 796 -22 813 -72 q 756 64 779 28 q 876 58 821 58 q 960 57 932 57 q 994 61 981 57 q 1019 79 1007 65 q 1051 167 1039 99 q 1074 362 1064 235 q 1090 688 1083 489 l 685 688 q 639 483 671 588 q 551 276 607 378 q 410 78 496 174 q 201 -99 325 -17 q 164 -56 188 -79 q 115 -10 140 -32 q 68 25 89 13 q 304 227 214 117 q 443 456 394 338 q 511 688 492 574 l 103 688 l 103 856 l 531 856 q 535 989 535 926 l 535 1178 z "},"主":{"ha":1389,"x_min":72,"x_max":1322,"o":"m 479 1086 l 617 1182 q 713 1117 663 1154 q 810 1042 764 1081 q 886 971 857 1004 l 813 918 l 1253 918 l 1253 754 l 786 754 l 786 513 l 1188 513 l 1188 351 l 786 351 l 786 83 l 1322 83 l 1322 -81 l 72 -81 l 72 83 l 603 83 l 603 351 l 206 351 l 206 513 l 603 513 l 603 754 l 132 754 l 132 918 l 686 918 q 587 1006 643 960 q 479 1086 531 1051 z "},"丽":{"ha":1389,"x_min":63,"x_max":1326,"o":"m 63 1110 l 1326 1110 l 1326 950 l 63 950 l 63 1110 m 131 851 l 649 851 l 649 61 q 638 -33 649 3 q 590 -87 626 -68 q 508 -112 556 -107 q 396 -118 461 -118 q 381 -36 393 -83 q 353 43 368 11 q 419 42 386 42 q 463 42 451 42 q 483 64 483 42 l 483 293 l 390 251 q 347 359 375 297 q 286 481 318 421 l 286 -124 l 131 -124 l 131 851 m 286 547 l 383 586 q 435 495 408 543 q 483 401 461 447 l 483 700 l 286 700 l 286 547 m 738 851 l 1268 851 l 1268 61 q 1256 -33 1268 3 q 1207 -89 1243 -69 q 1122 -111 1172 -107 q 1003 -115 1072 -115 q 987 -36 999 -82 q 960 42 975 10 q 1031 40 996 40 q 1078 40 1065 40 q 1101 63 1101 40 l 1101 293 l 1001 247 q 955 357 985 294 q 893 479 925 419 l 893 -124 l 738 -124 l 738 851 m 893 539 l 989 576 q 1049 473 1018 529 q 1101 367 1079 417 l 1101 700 l 893 700 l 893 539 z "},"举":{"ha":1389,"x_min":22,"x_max":1364,"o":"m 122 269 l 614 269 l 614 390 l 340 390 l 340 514 q 131 371 243 425 q 81 438 113 399 q 22 500 49 476 q 217 614 125 542 q 371 772 308 686 l 69 772 l 69 922 l 304 922 q 251 1007 282 963 q 188 1088 219 1051 l 329 1158 q 413 1058 371 1115 q 476 958 454 1001 l 407 922 l 642 922 q 593 1022 626 965 q 525 1126 560 1079 l 664 1189 q 740 1083 703 1142 q 794 981 778 1025 l 667 922 l 869 922 q 950 1044 910 975 q 1015 1168 990 1113 l 1196 1114 q 1124 1015 1161 1064 q 1053 922 1088 965 l 1324 922 l 1324 772 l 1035 772 q 1181 626 1094 693 q 1364 521 1268 560 q 1304 458 1338 499 q 1251 385 1271 417 q 1148 447 1199 411 q 1051 526 1097 483 l 1051 390 l 782 390 l 782 269 l 1283 269 l 1283 114 l 782 114 l 782 -124 l 614 -124 l 614 114 l 122 114 l 122 269 m 614 694 l 782 694 l 782 543 l 1035 543 q 940 652 983 594 q 863 772 896 710 l 544 772 q 467 652 511 710 q 371 543 424 594 l 614 543 l 614 694 z "},"乃":{"ha":1389,"x_min":26,"x_max":1269,"o":"m 114 1099 l 1071 1099 q 1014 851 1044 981 q 953 610 983 722 l 1269 610 q 1269 596 1269 610 q 1268 565 1268 582 q 1267 536 1268 547 q 1249 247 1260 360 q 1222 71 1239 133 q 1179 -21 1206 8 q 1110 -72 1149 -57 q 1022 -90 1072 -86 q 910 -94 979 -96 q 768 -92 842 -93 q 746 -2 765 -51 q 699 85 726 47 q 847 77 776 79 q 951 75 917 75 q 990 78 975 75 q 1019 92 1006 82 q 1057 197 1043 111 q 1081 450 1071 283 l 708 450 q 781 677 743 547 q 850 936 819 807 l 488 936 l 488 885 q 482 706 488 806 q 459 497 476 607 q 406 276 442 388 q 309 62 369 165 q 158 -129 249 -42 q 121 -81 144 -108 q 72 -28 97 -54 q 26 11 47 -3 q 160 177 107 88 q 244 363 213 267 q 290 552 275 458 q 310 732 306 646 q 314 886 314 818 l 314 936 l 114 936 l 114 1099 z "},"久":{"ha":1389,"x_min":31,"x_max":1358,"o":"m 436 1181 l 618 1138 q 557 969 592 1053 l 842 969 l 872 978 l 994 922 q 935 728 969 821 q 860 550 901 635 q 980 336 907 438 q 1149 156 1053 235 q 1358 29 1244 78 q 1292 -42 1328 3 q 1236 -121 1256 -86 q 960 83 1079 -43 q 758 374 842 210 q 494 75 643 200 q 176 -126 346 -50 q 141 -75 164 -104 q 92 -19 118 -46 q 46 24 67 8 q 487 319 296 124 q 772 801 678 514 l 478 801 q 340 583 415 683 q 181 408 265 483 q 138 449 165 425 q 82 497 111 474 q 31 533 53 519 q 201 705 124 604 q 338 927 279 806 q 436 1181 397 1049 z "},"么":{"ha":1389,"x_min":63,"x_max":1339,"o":"m 583 1172 l 757 1108 q 597 882 688 997 q 404 663 507 767 q 194 479 301 560 q 132 542 171 507 q 63 600 93 578 q 217 722 140 653 q 362 867 293 790 q 488 1023 431 944 q 583 1172 544 1101 m 883 414 l 1035 489 q 1153 319 1094 410 q 1260 142 1211 229 q 1339 -15 1308 54 l 1175 -103 q 1150 -40 1165 -74 q 1117 28 1135 -7 q 743 -1 894 10 q 495 -19 592 -12 q 342 -32 399 -26 q 256 -42 286 -37 q 204 -56 225 -47 q 186 -8 199 -37 q 160 55 174 22 q 133 113 146 88 q 217 153 174 122 q 328 243 261 185 q 432 338 365 272 q 582 497 499 404 q 752 699 665 589 q 917 926 839 808 l 1089 840 q 783 458 942 631 q 467 147 624 285 l 1031 186 q 958 304 996 246 q 883 414 919 363 z "},"义":{"ha":1389,"x_min":39,"x_max":1356,"o":"m 533 1133 l 679 1183 q 737 1069 708 1131 q 791 951 765 1008 q 832 847 817 893 l 678 786 q 640 894 664 833 q 588 1017 615 954 q 533 1133 560 1079 m 1079 1076 l 1253 1025 q 1080 626 1182 813 q 829 288 978 440 q 1072 138 940 203 q 1356 32 1203 72 q 1315 -12 1338 15 q 1274 -69 1293 -40 q 1242 -121 1254 -97 q 944 0 1081 -72 q 694 165 808 72 q 440 0 581 74 q 126 -128 299 -74 q 87 -53 113 -96 q 39 19 61 -10 q 332 131 200 65 q 571 282 464 197 q 347 583 443 417 q 179 946 250 750 l 338 994 q 487 672 396 822 q 701 399 578 522 q 931 711 839 539 q 1079 1076 1024 883 z "},"之":{"ha":1389,"x_min":57,"x_max":1350,"o":"m 346 218 l 354 217 q 581 376 468 286 q 794 565 694 467 q 969 758 894 664 l 128 758 l 128 922 l 672 922 q 612 1020 647 967 q 546 1117 576 1074 l 696 1197 q 753 1122 722 1163 q 810 1041 783 1081 q 854 971 838 1001 l 768 922 l 1096 922 l 1128 931 l 1256 847 q 1048 585 1168 717 q 790 336 928 454 q 511 125 651 218 q 665 74 576 86 q 863 63 753 63 q 1022 67 933 63 q 1197 78 1110 71 q 1350 94 1283 85 q 1331 40 1342 72 q 1313 -26 1321 7 q 1303 -82 1304 -60 q 1211 -87 1265 -85 q 1094 -92 1157 -90 q 970 -96 1032 -94 q 856 -97 908 -97 q 638 -81 726 -97 q 478 -22 550 -65 q 399 33 433 6 q 342 61 364 61 q 292 34 319 61 q 236 -35 265 7 q 178 -121 207 -76 l 57 36 q 209 167 132 117 q 346 218 286 218 z "},"乌":{"ha":1389,"x_min":71,"x_max":1306,"o":"m 71 290 l 1033 290 l 1033 143 l 71 143 l 71 290 m 1085 1038 l 1192 1038 q 1190 1011 1192 1038 q 1186 968 1189 985 q 1159 759 1176 829 q 1115 660 1142 689 q 1061 625 1092 635 q 994 613 1031 615 q 907 612 961 611 q 792 617 853 613 q 781 685 790 646 q 757 754 771 725 q 856 747 810 749 q 922 746 901 746 q 953 749 942 746 q 972 761 964 751 q 992 803 983 772 q 1008 890 1001 835 l 407 890 l 407 550 l 1306 550 q 1306 525 1306 550 q 1304 483 1306 500 q 1291 201 1299 310 q 1271 33 1283 92 q 1238 -53 1258 -26 q 1180 -97 1211 -85 q 1108 -114 1149 -108 q 1015 -118 1074 -118 q 893 -115 956 -118 q 875 -35 890 -79 q 838 39 860 8 q 957 33 901 35 q 1039 32 1013 32 q 1072 35 1058 32 q 1096 49 1085 39 q 1125 150 1115 68 q 1140 403 1135 232 l 247 403 l 247 1038 l 528 1038 q 552 1113 540 1074 q 569 1183 564 1151 l 750 1168 q 720 1100 736 1133 q 689 1038 704 1067 l 1085 1038 z "},"乍":{"ha":1389,"x_min":43,"x_max":1322,"o":"m 389 1181 l 565 1135 q 529 1045 549 1090 q 489 956 510 1000 l 1322 956 l 1322 793 l 696 793 l 696 640 l 1235 640 l 1235 481 l 696 481 l 696 324 l 1264 324 l 1264 161 l 696 161 l 696 -125 l 521 -125 l 521 793 l 404 793 q 303 634 356 708 q 197 501 250 560 q 152 536 181 517 q 94 575 124 556 q 43 607 65 594 q 179 766 114 674 q 298 965 244 858 q 389 1181 351 1071 z "},"乎":{"ha":1389,"x_min":64,"x_max":1328,"o":"m 199 838 l 340 890 q 392 797 367 847 q 436 698 417 746 q 465 611 456 650 l 313 551 q 288 638 306 589 q 246 740 269 688 q 199 838 222 792 m 1056 921 l 1235 864 q 1148 697 1192 781 q 1065 557 1104 614 l 926 608 q 974 706 950 651 q 1020 816 999 760 q 1056 921 1042 872 m 64 532 l 619 532 l 619 935 q 399 922 510 926 q 185 914 289 917 q 169 990 182 947 q 144 1064 157 1033 q 410 1078 275 1068 q 676 1101 544 1088 q 924 1132 807 1114 q 1138 1172 1042 1150 l 1221 1019 q 1022 981 1128 997 q 800 951 915 964 l 800 532 l 1328 532 l 1328 361 l 800 361 l 800 82 q 779 -34 800 6 q 707 -93 758 -74 q 579 -118 656 -112 q 396 -124 503 -124 q 367 -36 388 -87 q 326 50 347 15 q 428 46 378 47 q 519 44 479 44 q 575 44 560 44 q 609 53 599 46 q 619 83 619 61 l 619 361 l 64 361 l 64 532 z "},"乏":{"ha":1389,"x_min":46,"x_max":1364,"o":"m 304 232 q 346 219 326 232 q 390 188 365 207 q 584 287 488 231 q 767 406 681 343 q 924 533 854 469 l 165 533 l 165 697 l 629 697 q 581 789 610 738 q 526 882 551 840 l 647 940 q 410 925 529 931 q 178 917 290 919 q 163 994 176 949 q 138 1067 150 1039 q 410 1079 271 1071 q 685 1101 550 1088 q 938 1131 819 1114 q 1149 1171 1057 1149 l 1272 1029 q 991 978 1144 999 q 676 943 838 957 q 742 845 708 899 q 793 756 775 792 l 682 697 l 1081 697 l 1114 706 l 1238 618 q 1041 424 1154 521 q 799 241 928 326 q 536 90 669 156 q 676 58 597 65 q 853 50 756 50 q 1023 54 931 50 q 1205 66 1115 58 q 1364 83 1294 74 q 1342 29 1354 63 q 1323 -37 1331 -4 q 1314 -94 1315 -71 q 1218 -99 1275 -96 q 1095 -104 1161 -101 q 963 -108 1029 -107 q 843 -110 897 -110 q 608 -92 700 -110 q 442 -25 517 -74 q 356 40 394 7 q 297 74 318 74 q 258 42 279 74 q 217 -37 238 10 q 175 -133 196 -85 l 46 36 q 189 182 121 132 q 304 232 257 232 z "},"乐":{"ha":1389,"x_min":40,"x_max":1344,"o":"m 301 393 l 463 339 q 376 203 425 272 q 277 70 328 133 q 181 -40 226 7 q 140 -6 165 -25 q 87 33 114 14 q 40 63 60 51 q 135 159 88 104 q 226 274 183 214 q 301 393 269 335 m 943 331 l 1089 390 q 1183 272 1133 336 q 1275 147 1232 208 q 1344 35 1318 85 l 1186 -37 q 1122 75 1163 11 q 1035 206 1082 139 q 943 331 988 274 m 176 451 q 163 497 172 469 q 142 554 153 525 q 121 604 131 583 q 150 634 139 611 q 171 694 161 657 q 187 781 176 718 q 206 925 197 843 q 214 1089 214 1007 q 549 1101 378 1092 q 878 1129 721 1111 q 1154 1172 1035 1147 l 1239 1021 q 976 979 1119 996 q 679 953 832 963 q 379 940 526 944 q 358 787 372 864 q 329 642 344 710 l 639 642 l 639 882 l 811 882 l 811 642 l 1288 642 l 1288 474 l 811 474 l 811 75 q 795 -31 811 7 q 735 -87 779 -68 q 627 -114 692 -108 q 475 -118 563 -119 q 453 -33 469 -82 q 418 51 436 17 q 531 50 475 50 q 606 50 586 50 q 631 56 624 50 q 639 78 639 61 l 639 474 l 351 474 q 238 468 290 474 q 176 451 186 463 z "},"乒":{"ha":1389,"x_min":56,"x_max":1332,"o":"m 465 243 l 610 138 q 476 45 551 93 q 323 -45 401 -3 q 172 -118 244 -87 q 119 -56 153 -92 q 58 6 86 -21 q 206 74 129 33 q 352 159 283 114 q 465 243 421 204 m 861 406 l 861 653 l 463 653 l 463 406 l 861 406 m 1113 1181 l 1196 1026 q 969 992 1092 1007 q 718 968 847 978 q 463 953 589 958 l 463 807 l 1256 807 l 1256 653 l 1033 653 l 1033 406 l 1332 406 l 1332 249 l 56 249 l 56 406 l 290 406 l 290 1094 q 581 1113 433 1101 q 867 1142 729 1125 q 1113 1181 1004 1160 z "},"乓":{"ha":1389,"x_min":56,"x_max":1332,"o":"m 790 131 l 918 235 q 1056 158 981 201 q 1201 70 1131 114 q 1318 -10 1272 26 l 1181 -128 q 1073 -47 1140 -93 q 931 46 1006 -1 q 790 131 856 93 m 861 406 l 861 653 l 463 653 l 463 406 l 861 406 m 1113 1181 l 1196 1026 q 969 992 1092 1007 q 718 968 847 978 q 463 953 589 958 l 463 807 l 1256 807 l 1256 653 l 1033 653 l 1033 406 l 1332 406 l 1332 249 l 56 249 l 56 406 l 290 406 l 290 1094 q 581 1113 433 1101 q 867 1142 729 1125 q 1113 1181 1004 1160 z "},"乔":{"ha":1389,"x_min":25,"x_max":1354,"o":"m 1132 1168 l 1251 1038 q 1009 999 1140 1015 q 738 974 878 983 q 688 857 715 914 l 1318 857 l 1318 697 l 1007 697 q 1163 576 1074 629 q 1354 490 1253 522 q 1292 422 1325 464 q 1242 347 1258 379 q 1112 407 1174 371 q 996 488 1050 443 l 996 -125 l 825 -125 l 825 515 l 963 515 q 881 601 919 556 q 810 697 842 647 l 590 697 q 419 511 514 592 l 547 511 l 547 371 q 538 242 547 310 q 499 108 528 175 q 411 -20 469 42 q 256 -132 353 -82 q 219 -89 242 -112 q 171 -43 196 -65 q 125 -7 146 -21 q 260 81 210 33 q 336 178 311 128 q 369 280 361 229 q 378 376 378 331 l 378 476 q 265 401 324 436 q 142 336 207 365 q 110 382 131 356 q 66 435 89 408 q 25 478 43 461 q 374 697 233 556 l 68 697 l 68 857 l 494 857 q 523 908 510 882 q 549 963 536 935 q 167 954 353 954 q 153 1026 165 983 q 131 1094 142 1068 q 401 1101 263 1096 q 674 1115 540 1106 q 924 1137 807 1124 q 1132 1168 1042 1150 z "},"乖":{"ha":1389,"x_min":51,"x_max":1349,"o":"m 74 896 l 604 896 l 604 982 q 394 974 499 976 q 190 969 289 971 q 177 1040 189 999 q 154 1108 165 1082 q 410 1116 279 1111 q 667 1130 540 1121 q 906 1151 793 1139 q 1107 1176 1018 1163 l 1214 1040 q 1006 1013 1117 1025 q 779 993 896 1001 l 779 896 l 1317 896 l 1317 744 l 779 744 l 779 -125 l 604 -125 l 604 744 l 74 744 l 74 896 m 51 263 q 185 302 108 278 q 347 353 263 326 l 347 456 l 92 456 l 92 601 l 347 601 l 347 697 l 507 697 l 507 97 l 347 97 l 347 206 l 122 110 l 51 263 m 874 696 l 1035 696 l 1035 543 q 1128 597 1083 569 q 1206 651 1172 625 l 1318 531 q 1180 460 1254 493 q 1035 399 1106 426 l 1035 296 q 1042 256 1035 264 q 1072 247 1049 247 q 1098 247 1079 247 q 1137 247 1117 247 q 1165 247 1157 247 q 1189 257 1181 247 q 1201 297 1197 267 q 1207 385 1206 326 q 1273 349 1231 367 q 1349 324 1315 332 q 1322 189 1340 238 q 1270 121 1304 140 q 1182 101 1236 101 q 1141 101 1168 101 q 1087 101 1114 101 q 1046 101 1060 101 q 939 119 976 101 q 888 180 901 138 q 874 296 874 222 l 874 696 z "},"乘":{"ha":1389,"x_min":33,"x_max":1351,"o":"m 1181 682 l 1276 561 q 1156 518 1219 539 q 1031 482 1092 497 l 1031 426 q 1038 393 1031 400 q 1067 386 1044 386 q 1091 386 1074 386 q 1127 386 1108 386 q 1154 386 1146 386 q 1181 401 1174 386 q 1190 469 1188 415 q 1251 436 1211 451 q 1324 414 1292 421 q 1276 283 1310 317 q 1171 249 1242 249 q 1131 249 1157 249 q 1081 249 1106 249 q 1042 249 1056 249 q 943 263 976 249 q 1132 138 1028 192 q 1351 53 1236 83 q 1294 -12 1325 29 q 1244 -87 1263 -54 q 992 39 1108 -40 q 783 224 875 118 l 783 -124 l 607 -124 l 607 224 q 396 42 514 121 q 142 -83 278 -36 q 92 -10 124 -51 q 33 57 61 31 q 250 140 147 88 q 438 261 353 193 l 353 261 l 353 310 l 113 272 l 85 410 q 208 422 139 415 q 353 439 276 429 l 353 515 l 129 515 l 129 644 l 353 644 l 353 719 l 508 719 l 508 325 q 607 444 565 382 l 607 751 l 86 751 l 86 901 l 607 901 l 607 976 q 403 967 506 971 q 206 963 301 964 q 192 1035 204 994 q 169 1103 181 1076 q 422 1113 293 1106 q 678 1129 551 1119 q 918 1151 804 1139 q 1124 1181 1032 1164 l 1196 1036 q 1001 1010 1106 1022 q 783 989 896 997 l 783 901 l 1301 901 l 1301 751 l 783 751 l 783 440 q 900 303 832 368 q 884 354 889 324 q 879 426 879 385 l 879 724 l 1031 724 l 1031 614 q 1111 647 1072 629 q 1181 682 1150 665 z "},"乙":{"ha":1389,"x_min":114,"x_max":1326,"o":"m 133 1078 l 1004 1078 l 1044 1086 l 1163 1000 q 1150 989 1157 994 q 1133 978 1143 983 q 797 715 936 826 q 565 524 657 604 q 419 390 474 444 q 338 301 364 336 q 303 243 311 267 q 296 201 296 219 q 340 131 296 153 q 464 110 383 110 l 1024 110 q 1097 131 1069 110 q 1138 216 1124 153 q 1157 404 1153 279 q 1240 369 1193 386 q 1326 342 1288 351 q 1297 139 1318 218 q 1237 15 1275 60 q 1141 -47 1199 -29 q 1003 -64 1083 -64 l 479 -64 q 203 4 292 -64 q 114 186 114 72 q 123 260 114 222 q 165 348 132 297 q 266 472 197 399 q 453 651 335 546 q 754 904 572 757 l 133 904 l 133 1078 z "},"九":{"ha":1389,"x_min":31,"x_max":1372,"o":"m 101 839 l 444 839 q 447 996 447 915 q 447 1161 447 1076 l 629 1161 q 627 997 628 1078 q 624 839 626 917 l 1038 839 l 1038 125 q 1044 69 1038 82 q 1076 57 1050 57 q 1103 57 1085 57 q 1142 57 1122 57 q 1169 57 1161 57 q 1196 74 1188 57 q 1208 136 1204 90 q 1215 269 1213 182 q 1291 226 1244 247 q 1372 197 1338 206 q 1346 19 1365 85 q 1289 -76 1326 -47 q 1188 -104 1251 -104 q 1145 -104 1174 -104 q 1088 -104 1117 -104 q 1046 -104 1060 -104 q 938 -84 978 -104 q 881 -14 897 -64 q 864 126 864 36 l 864 671 l 613 671 q 550 353 596 501 q 409 83 504 204 q 151 -125 314 -37 q 98 -53 133 -93 q 31 10 63 -12 q 258 183 175 83 q 381 405 340 282 q 433 671 421 528 l 101 671 l 101 839 z "},"乞":{"ha":1389,"x_min":42,"x_max":1324,"o":"m 297 701 l 958 701 l 994 708 l 1117 619 q 1103 608 1111 614 q 1083 596 1094 601 q 756 419 886 492 q 550 297 626 346 q 437 217 474 249 q 389 167 400 186 q 378 132 378 147 q 411 89 378 101 q 503 76 444 76 l 1056 76 q 1114 89 1092 76 q 1148 140 1136 101 q 1163 260 1160 179 q 1242 224 1199 239 q 1324 203 1285 210 q 1282 19 1313 82 q 1193 -67 1251 -44 q 1039 -90 1135 -90 l 517 -90 q 278 -35 357 -90 q 200 117 200 21 q 206 171 200 143 q 235 232 213 199 q 307 308 258 265 q 440 409 356 351 q 653 543 524 467 l 297 543 l 297 701 m 392 1179 l 567 1125 q 538 1067 553 1096 q 507 1010 524 1038 l 1304 1010 l 1304 846 l 403 846 q 296 710 351 774 q 186 597 240 646 q 144 637 171 614 q 90 683 118 660 q 42 719 63 706 q 178 846 113 772 q 299 1005 243 919 q 392 1179 354 1090 z "},"也":{"ha":1389,"x_min":32,"x_max":1336,"o":"m 271 1083 l 435 1083 l 435 756 l 650 822 l 650 1178 l 815 1178 l 815 874 l 1065 953 l 1086 967 l 1119 989 l 1238 938 l 1229 908 q 1218 588 1226 713 q 1189 403 1210 463 q 1142 318 1171 346 q 1075 279 1113 290 q 990 267 1039 269 q 900 265 940 264 q 892 313 899 285 q 878 371 886 342 q 860 418 869 400 q 925 415 890 415 q 978 414 960 414 q 1015 425 1000 414 q 1042 474 1031 436 q 1058 588 1053 510 q 1065 792 1064 667 l 815 713 l 815 189 l 650 189 l 650 660 l 435 592 l 435 172 q 445 95 435 121 q 489 61 456 69 q 590 53 522 53 q 652 53 610 53 q 747 53 694 53 q 853 53 800 53 q 950 53 907 53 q 1014 53 993 53 q 1109 69 1076 53 q 1156 134 1142 86 q 1181 272 1171 182 q 1256 235 1211 254 q 1336 210 1301 217 q 1293 27 1322 94 q 1201 -69 1264 -40 q 1026 -97 1139 -97 q 964 -97 1008 -97 q 863 -97 919 -97 q 749 -97 806 -97 q 650 -97 693 -97 q 589 -97 607 -97 q 397 -74 467 -97 q 299 8 328 -51 q 271 174 271 67 l 271 539 l 76 478 l 32 629 l 271 704 l 271 1083 z "},"习":{"ha":1389,"x_min":125,"x_max":1260,"o":"m 304 758 l 415 868 q 535 783 469 831 q 664 688 601 735 q 765 604 726 640 l 646 478 q 550 565 610 515 q 425 665 490 614 q 304 758 360 717 m 125 219 q 361 293 225 249 q 649 390 497 338 q 946 493 800 442 l 976 339 q 698 236 840 288 q 424 138 556 185 q 182 51 292 90 l 125 219 m 147 1099 l 1260 1099 q 1260 1082 1260 1099 q 1260 1044 1260 1065 q 1260 1013 1260 1024 q 1251 565 1256 747 q 1239 266 1247 382 q 1217 85 1231 150 q 1182 -11 1203 19 q 1117 -77 1151 -58 q 1036 -103 1083 -96 q 918 -108 989 -108 q 782 -106 847 -107 q 765 -26 781 -72 q 725 53 749 19 q 868 47 806 47 q 964 46 931 46 q 1025 71 1004 46 q 1061 193 1049 96 q 1079 474 1074 290 q 1088 938 1085 657 l 147 938 l 147 1099 z "},"乡":{"ha":1389,"x_min":79,"x_max":1288,"o":"m 1107 642 l 1288 583 q 1028 227 1189 368 q 653 3 868 86 q 174 -124 439 -79 q 149 -71 165 -101 q 113 -9 132 -40 q 79 43 94 22 q 578 157 361 78 q 939 383 796 236 q 639 359 761 369 q 438 340 517 349 q 313 326 360 332 q 241 313 267 319 q 197 300 215 307 q 183 347 193 317 q 163 408 174 376 q 142 463 151 440 q 235 490 189 469 q 353 546 282 511 q 463 603 392 564 q 619 699 533 643 q 447 683 514 690 q 342 671 381 676 q 282 660 303 665 q 247 650 261 656 q 234 697 243 668 q 215 758 225 726 q 194 813 204 790 q 253 835 225 818 q 321 878 282 851 q 381 922 342 892 q 470 994 421 951 q 570 1088 519 1038 q 665 1190 621 1138 l 817 1093 q 670 956 749 1022 q 510 831 592 889 l 842 853 q 1003 986 928 918 l 1151 872 q 881 672 1021 763 q 599 507 740 581 l 1056 538 q 1083 589 1071 563 q 1107 642 1096 615 z "},"书":{"ha":1389,"x_min":79,"x_max":1339,"o":"m 154 947 l 535 947 l 535 1175 l 707 1175 l 707 947 l 1099 947 q 1024 999 1063 974 q 953 1044 986 1024 l 1050 1156 q 1151 1096 1096 1129 q 1256 1028 1206 1063 q 1339 968 1307 994 l 1236 840 q 1190 881 1218 858 q 1131 925 1163 903 l 1131 572 l 1332 572 q 1331 547 1332 572 q 1328 504 1331 521 q 1306 275 1318 365 q 1276 133 1293 185 q 1236 56 1260 81 q 1176 13 1208 25 q 1099 -1 1143 1 q 1003 -6 1063 -6 q 878 -4 943 -6 q 860 78 875 32 q 821 156 844 124 q 944 149 885 150 q 1032 147 1004 147 q 1067 150 1053 147 q 1094 163 1082 153 q 1128 239 1114 179 q 1151 415 1142 299 l 707 415 l 707 -118 l 535 -118 l 535 415 l 79 415 l 79 572 l 535 572 l 535 786 l 154 786 l 154 947 m 707 572 l 963 572 l 963 786 l 707 786 l 707 572 z "},"买":{"ha":1389,"x_min":51,"x_max":1326,"o":"m 722 124 l 807 244 q 994 168 900 210 q 1172 85 1089 126 q 1314 6 1256 43 l 1207 -124 q 1073 -42 1151 -86 q 904 45 994 1 q 722 124 814 89 m 278 797 l 368 908 q 467 865 414 890 q 569 814 519 840 q 650 764 618 788 l 554 639 q 478 691 525 663 q 378 748 431 719 q 278 797 325 776 m 118 603 l 210 713 q 302 673 253 696 q 397 626 351 650 q 472 579 443 601 l 376 456 q 305 505 349 478 q 212 558 261 532 q 118 603 163 583 m 85 454 l 653 454 q 681 656 675 544 q 689 897 686 767 l 857 897 q 847 660 853 771 q 821 454 840 550 l 1313 454 l 1313 300 l 775 300 q 656 116 733 197 q 453 -25 579 35 q 136 -125 326 -85 q 101 -53 126 -93 q 51 14 75 -12 q 406 127 279 57 q 593 300 532 197 l 85 300 l 85 454 m 140 1106 l 1174 1106 l 1201 1115 l 1326 1067 q 1233 879 1285 974 q 1132 718 1181 785 l 996 785 q 1042 860 1018 818 q 1089 949 1067 903 l 140 949 l 140 1106 z "},"乱":{"ha":1389,"x_min":42,"x_max":1351,"o":"m 824 1157 l 989 1157 l 989 128 q 997 58 989 72 q 1035 43 1004 43 q 1067 43 1044 43 q 1112 43 1089 43 q 1144 43 1135 43 q 1176 65 1165 43 q 1192 143 1186 88 q 1200 300 1197 199 q 1273 257 1229 278 q 1351 229 1317 236 q 1324 31 1343 106 q 1267 -78 1306 -44 q 1161 -112 1229 -112 q 1115 -112 1147 -112 q 1052 -112 1083 -112 q 1007 -112 1021 -112 q 896 -91 936 -112 q 840 -17 856 -69 q 824 129 824 36 l 824 1157 m 104 464 l 338 464 l 338 647 l 42 647 l 42 796 l 338 796 l 338 958 q 107 933 221 942 q 88 1000 101 961 q 60 1065 74 1039 q 272 1093 164 1076 q 475 1131 379 1110 q 642 1176 571 1153 l 763 1046 q 638 1013 704 1028 q 500 983 571 997 l 500 796 l 779 796 l 779 647 l 500 647 l 500 464 l 740 464 l 740 -79 l 578 -79 l 578 -49 l 258 -49 l 258 -93 l 104 -93 l 104 464 m 258 99 l 578 99 l 578 317 l 258 317 l 258 99 z "},"乳":{"ha":1389,"x_min":53,"x_max":1347,"o":"m 857 1147 l 1022 1147 l 1022 142 q 1029 73 1022 88 q 1061 58 1036 58 q 1088 58 1069 58 q 1125 58 1106 58 q 1153 58 1144 58 q 1180 80 1171 58 q 1193 158 1189 101 q 1200 317 1197 214 q 1272 272 1228 294 q 1347 243 1315 250 q 1323 49 1340 122 q 1269 -56 1306 -24 q 1168 -89 1233 -89 q 1128 -89 1156 -89 q 1072 -89 1100 -89 q 1032 -89 1044 -89 q 924 -67 963 -89 q 872 5 886 -46 q 857 143 857 56 l 857 1147 m 718 1182 l 822 1047 q 600 1004 721 1022 q 353 976 479 986 q 110 961 228 967 q 92 1028 106 989 q 67 1094 79 1068 q 301 1114 182 1101 q 529 1144 421 1126 q 718 1182 638 1161 m 319 929 l 453 971 q 497 856 475 918 q 528 747 518 793 l 388 697 q 359 810 379 746 q 319 929 339 875 m 647 1008 l 804 951 q 733 807 769 879 q 667 683 697 735 l 538 733 q 577 819 557 771 q 616 917 597 867 q 647 1008 635 967 m 96 893 l 229 944 q 287 829 258 892 q 331 722 315 767 l 219 675 l 624 675 l 660 685 l 767 600 q 654 476 717 540 q 528 358 592 411 l 528 351 l 785 372 l 786 224 l 528 200 l 528 39 q 515 -48 528 -15 q 461 -99 501 -81 q 370 -119 422 -115 q 249 -124 318 -124 q 228 -48 243 -90 q 199 25 214 -6 q 285 24 242 24 q 342 25 328 24 q 362 28 357 25 q 367 44 367 32 l 367 186 l 68 161 l 53 315 l 367 338 l 367 403 q 435 465 400 429 q 501 536 471 500 l 124 536 l 124 675 l 186 675 q 146 783 172 722 q 96 893 119 843 z "},"乾":{"ha":1389,"x_min":47,"x_max":1358,"o":"m 243 524 l 243 451 l 515 451 l 515 524 l 243 524 m 243 707 l 243 636 l 515 636 l 515 707 l 243 707 m 47 251 l 296 251 l 296 332 l 94 332 l 94 826 l 296 826 l 296 906 l 64 906 l 64 1051 l 296 1051 l 296 1181 l 457 1181 l 457 1051 l 688 1051 l 688 906 l 457 906 l 457 826 l 669 826 l 669 792 q 770 968 728 867 q 835 1179 813 1069 l 1000 1146 q 978 1060 990 1103 q 950 978 965 1018 l 1338 978 l 1338 825 l 886 825 q 797 678 847 746 l 1132 678 l 1169 681 l 1276 638 q 1270 621 1274 631 q 1261 604 1267 611 q 1090 400 1158 483 q 982 263 1022 317 q 922 176 942 208 q 897 124 903 143 q 892 90 892 104 q 910 60 892 68 q 960 51 928 51 l 1158 51 q 1191 63 1179 51 q 1209 115 1203 75 q 1217 236 1215 154 q 1358 183 1288 199 q 1328 -1 1351 63 q 1263 -87 1306 -64 q 1154 -110 1221 -110 l 957 -110 q 778 -62 835 -110 q 722 64 722 -15 q 729 122 722 90 q 760 202 736 153 q 839 330 785 251 q 986 529 893 408 l 771 529 l 771 643 l 760 631 q 720 669 746 646 q 669 711 694 692 l 669 332 l 457 332 l 457 251 l 697 251 l 697 103 l 457 103 l 457 -125 l 296 -125 l 296 103 l 47 103 l 47 251 z "},"了":{"ha":1389,"x_min":131,"x_max":1268,"o":"m 131 1083 l 1097 1083 l 1135 1093 l 1268 993 q 1127 856 1206 925 q 963 722 1049 786 q 789 607 876 658 l 789 67 q 769 -42 789 -4 q 697 -99 750 -79 q 570 -122 646 -117 q 394 -126 494 -128 q 368 -41 389 -90 q 328 42 347 8 q 428 40 378 40 q 517 39 478 39 q 572 39 557 39 q 614 71 614 39 l 614 690 q 781 794 696 733 q 933 918 865 856 l 131 918 l 131 1083 z "},"予":{"ha":1389,"x_min":65,"x_max":1342,"o":"m 393 771 l 478 897 l 696 819 q 786 881 740 847 q 872 949 832 914 l 200 949 l 200 1103 l 1035 1103 l 1072 1111 l 1192 1017 q 1040 881 1124 950 q 869 753 956 811 l 988 704 l 954 650 l 1175 650 l 1206 661 l 1342 601 q 1236 406 1296 504 q 1118 238 1176 308 l 975 321 q 1029 399 1001 354 q 1082 490 1057 443 l 790 490 l 790 57 q 772 -44 790 -8 q 704 -97 754 -79 q 588 -119 657 -115 q 429 -122 519 -122 q 406 -40 424 -86 q 368 38 388 6 q 454 35 410 36 q 533 35 499 35 q 582 35 568 35 q 609 42 601 36 q 617 61 617 47 l 617 490 l 65 490 l 65 650 l 699 650 q 542 714 622 682 q 393 771 461 746 z "},"争":{"ha":1389,"x_min":46,"x_max":1346,"o":"m 444 1181 l 624 1146 l 571 1065 l 921 1065 l 949 1072 l 1067 990 q 1003 908 1040 951 q 926 824 967 865 l 1165 824 l 1165 579 l 1346 579 l 1346 428 l 1165 428 l 1165 172 l 772 172 l 772 57 q 755 -44 772 -8 q 692 -99 738 -79 q 582 -121 647 -117 q 428 -125 517 -125 q 404 -44 422 -90 q 368 35 386 1 q 449 32 408 33 q 522 31 490 31 q 567 31 554 31 q 594 38 586 32 q 601 60 601 44 l 601 172 l 203 172 l 203 324 l 601 324 l 601 428 l 46 428 l 46 579 l 601 579 l 601 678 l 257 678 l 257 736 l 183 683 q 127 747 164 711 q 61 800 90 782 q 297 983 201 881 q 444 1181 393 1085 m 772 678 l 772 579 l 1001 579 l 1001 678 l 772 678 m 772 428 l 772 324 l 1001 324 l 1001 428 l 772 428 m 363 824 l 722 824 q 766 871 744 846 q 807 922 788 896 l 460 922 q 413 872 438 897 q 363 824 389 847 z "},"事":{"ha":1389,"x_min":53,"x_max":1339,"o":"m 182 200 l 604 200 l 604 264 l 53 264 l 53 390 l 604 390 l 604 450 l 193 450 l 193 563 l 604 563 l 604 625 l 226 625 l 226 901 l 604 901 l 604 958 l 85 958 l 85 1089 l 604 1089 l 604 1181 l 774 1181 l 774 1089 l 1307 1089 l 1307 958 l 774 958 l 774 901 l 1169 901 l 1169 625 l 774 625 l 774 563 l 1193 563 l 1193 390 l 1339 390 l 1339 264 l 1193 264 l 1193 19 l 1024 19 l 1024 79 l 774 79 l 774 35 q 757 -57 774 -26 q 700 -106 740 -87 q 601 -124 660 -121 q 453 -128 542 -128 q 431 -62 447 -100 q 397 3 414 -24 q 466 1 431 1 q 530 0 501 0 q 569 0 558 0 q 597 9 589 1 q 604 35 604 17 l 604 79 l 182 79 l 182 200 m 386 796 l 386 731 l 604 731 l 604 796 l 386 796 m 774 796 l 774 731 l 999 731 l 999 796 l 774 796 m 774 450 l 774 390 l 1024 390 l 1024 450 l 774 450 m 774 264 l 774 200 l 1024 200 l 1024 264 l 774 264 z "},"二":{"ha":1389,"x_min":75,"x_max":1315,"o":"m 192 989 l 1200 989 l 1200 806 l 192 806 l 192 989 m 75 182 l 1315 182 l 1315 -8 l 75 -8 l 75 182 z "},"于":{"ha":1389,"x_min":69,"x_max":1321,"o":"m 164 1092 l 1225 1092 l 1225 926 l 797 926 l 797 640 l 1321 640 l 1321 475 l 797 475 l 797 89 q 778 -27 797 13 q 707 -86 758 -67 q 581 -112 658 -107 q 401 -118 504 -118 q 374 -29 394 -81 q 332 58 353 22 q 435 54 385 56 q 523 53 485 53 q 578 54 561 54 q 611 63 601 56 q 621 92 621 71 l 621 475 l 69 475 l 69 640 l 621 640 l 621 926 l 164 926 l 164 1092 z "},"亏":{"ha":1389,"x_min":63,"x_max":1324,"o":"m 157 1115 l 1232 1115 l 1232 960 l 157 960 l 157 1115 m 63 786 l 1324 786 l 1324 631 l 567 631 l 524 433 l 1197 433 q 1196 408 1197 433 q 1192 364 1194 382 q 1169 147 1182 233 q 1140 10 1157 61 q 1096 -67 1122 -40 q 1023 -110 1063 -99 q 926 -126 983 -122 q 807 -127 882 -128 q 650 -124 732 -126 q 629 -43 649 -87 q 583 35 610 1 q 700 28 642 31 q 805 25 758 26 q 876 24 851 24 q 921 26 903 24 q 953 38 939 28 q 1014 281 993 68 l 310 282 l 296 282 q 338 447 317 353 q 378 631 360 540 l 63 631 l 63 786 z "},"云":{"ha":1389,"x_min":67,"x_max":1324,"o":"m 225 1089 l 1181 1089 l 1181 917 l 225 917 l 225 1089 m 188 -75 q 171 -22 182 -56 q 147 48 160 11 q 122 111 133 85 q 178 142 153 118 q 236 204 203 165 q 290 272 256 225 q 365 386 324 319 q 446 526 407 453 l 67 526 l 67 699 l 1324 699 l 1324 526 l 682 526 q 551 322 622 421 q 408 139 481 222 l 964 172 q 897 273 931 224 q 832 367 864 322 l 986 447 q 1104 283 1044 371 q 1217 113 1164 196 q 1304 -36 1269 29 l 1142 -135 q 1107 -65 1128 -103 q 1063 13 1086 -28 q 709 -15 853 -4 q 473 -34 565 -26 q 326 -48 381 -42 q 241 -60 272 -54 q 188 -75 210 -67 z "},"互":{"ha":1389,"x_min":65,"x_max":1335,"o":"m 65 74 l 835 74 l 864 253 l 243 253 q 300 467 271 346 q 357 718 329 589 q 404 964 385 847 l 107 964 l 107 1124 l 1293 1124 l 1293 964 l 588 964 l 551 782 l 951 782 l 979 789 l 1107 775 q 1081 554 1097 674 q 1047 311 1065 435 q 1010 74 1028 188 l 1335 74 l 1335 -89 l 65 -89 l 65 74 m 518 628 l 469 408 l 888 408 l 917 628 l 518 628 z "},"五":{"ha":1389,"x_min":75,"x_max":1321,"o":"m 232 650 l 496 650 l 529 889 l 156 889 l 156 1053 l 1229 1053 l 1229 889 l 714 889 l 678 650 l 935 650 l 965 657 l 1097 647 q 1079 384 1092 525 q 1051 107 1067 243 l 1321 107 l 1321 -58 l 75 -58 l 75 107 l 399 107 q 435 290 418 193 q 469 488 453 386 l 232 488 l 232 650 m 583 107 l 874 107 q 894 301 885 201 q 908 488 903 401 l 651 488 q 617 288 635 385 q 583 107 600 192 z "},"井":{"ha":1389,"x_min":69,"x_max":1322,"o":"m 110 915 l 371 915 l 371 1175 l 547 1175 l 547 915 l 856 915 l 856 1178 l 1032 1178 l 1032 915 l 1286 915 l 1286 747 l 1032 747 l 1032 481 l 1322 481 l 1322 311 l 1032 311 l 1032 -125 l 856 -125 l 856 311 l 521 311 q 429 69 494 183 q 236 -136 364 -46 q 194 -93 221 -117 q 138 -48 167 -69 q 86 -14 110 -26 q 248 138 190 56 q 333 311 306 219 l 69 311 l 69 481 l 364 481 q 369 562 368 521 q 371 644 371 603 l 371 747 l 110 747 l 110 915 m 543 481 l 856 481 l 856 747 l 547 747 l 547 644 q 543 481 547 563 z "},"亚":{"ha":1389,"x_min":44,"x_max":1340,"o":"m 94 739 l 242 793 q 308 628 274 717 q 374 456 343 539 q 421 310 404 372 l 260 242 q 218 391 246 306 q 158 568 190 476 q 94 739 125 660 m 93 1103 l 1303 1103 l 1303 938 l 951 938 l 951 314 q 1013 460 982 378 q 1072 631 1044 543 q 1117 796 1099 718 l 1282 743 q 1224 569 1256 657 q 1161 401 1193 481 q 1099 257 1129 321 l 951 307 l 951 104 l 1340 104 l 1340 -56 l 44 -56 l 44 104 l 426 104 l 426 938 l 93 938 l 93 1103 m 608 104 l 768 104 l 768 938 l 608 938 l 608 104 z "},"些":{"ha":1389,"x_min":44,"x_max":1335,"o":"m 226 361 l 1175 361 l 1175 201 l 226 201 l 226 361 m 64 71 l 1325 71 l 1325 -96 l 64 -96 l 64 71 m 122 1038 l 275 1038 l 275 585 l 356 592 l 356 1181 l 521 1181 l 521 969 l 693 969 l 693 821 l 521 821 l 521 608 l 704 628 l 708 476 q 479 449 594 463 q 257 422 364 435 q 63 400 150 410 l 44 564 l 122 571 l 122 1038 m 1168 1046 l 1293 914 q 1109 844 1208 876 q 915 786 1010 811 l 915 661 q 926 610 915 621 q 975 599 936 599 q 1016 599 986 599 q 1078 599 1046 599 q 1124 599 1110 599 q 1159 611 1147 599 q 1176 659 1171 624 q 1185 765 1182 694 q 1256 727 1211 746 q 1335 700 1300 708 q 1306 544 1326 600 q 1245 466 1285 489 q 1139 443 1206 443 q 1100 443 1126 443 q 1044 443 1074 443 q 988 443 1014 443 q 950 443 963 443 q 825 463 869 443 q 764 531 781 483 q 747 661 747 578 l 747 1181 l 915 1181 l 915 936 q 1052 990 986 961 q 1168 1046 1118 1019 z "},"亡":{"ha":1389,"x_min":64,"x_max":1329,"o":"m 567 1132 l 744 1185 q 808 1057 776 1126 q 851 935 839 988 l 719 893 l 1329 893 l 1329 729 l 424 729 l 424 114 l 1231 114 l 1231 -58 l 244 -58 l 244 729 l 64 729 l 64 893 l 658 893 q 621 1010 647 943 q 567 1132 594 1076 z "},"亢":{"ha":1389,"x_min":38,"x_max":1360,"o":"m 569 1149 l 740 1204 q 794 1094 768 1153 q 835 990 821 1035 l 714 949 l 1311 949 l 1311 789 l 81 789 l 81 949 l 651 949 q 615 1047 638 993 q 569 1149 592 1101 m 364 667 l 1031 667 l 1031 104 q 1043 50 1031 57 q 1083 43 1056 43 q 1118 43 1096 43 q 1156 43 1140 43 q 1199 50 1181 43 q 1213 64 1207 54 q 1222 94 1219 74 q 1227 160 1225 115 q 1231 265 1229 206 q 1291 227 1254 246 q 1360 197 1328 208 q 1353 77 1358 138 q 1336 -11 1347 17 q 1267 -90 1318 -65 q 1215 -105 1246 -100 q 1157 -110 1185 -110 q 1097 -110 1135 -110 q 1039 -110 1058 -110 q 968 -101 1003 -110 q 908 -74 933 -93 q 869 -19 883 -54 q 856 96 856 15 l 856 510 l 538 510 l 538 456 q 522 297 538 379 q 463 135 506 215 q 344 -15 421 56 q 144 -137 267 -85 q 116 -90 136 -118 q 74 -37 96 -62 q 38 3 53 -11 q 214 103 149 49 q 311 219 279 158 q 353 341 343 279 q 364 461 364 403 l 364 667 z "},"交":{"ha":1389,"x_min":61,"x_max":1332,"o":"m 411 829 l 575 767 q 463 645 526 706 q 333 533 400 585 q 204 442 267 481 q 165 482 189 458 q 115 528 140 506 q 71 564 90 550 q 198 638 135 596 q 317 730 261 681 q 411 829 372 779 m 828 743 l 958 838 q 1088 745 1019 797 q 1217 641 1156 693 q 1318 544 1279 589 l 1175 435 q 1083 534 1142 479 q 958 644 1025 589 q 828 743 890 699 m 518 582 q 697 314 582 429 q 878 589 817 429 l 1046 540 q 949 361 1004 443 q 825 211 894 279 q 1332 33 1026 79 q 1276 -38 1306 7 q 1231 -117 1246 -83 q 694 103 904 -54 q 451 -31 585 25 q 163 -124 317 -86 q 135 -76 153 -104 q 97 -21 117 -49 q 61 25 78 7 q 341 100 213 54 q 572 214 469 146 q 459 363 510 282 q 368 536 408 443 l 518 582 m 557 1142 l 715 1197 q 773 1099 743 1153 q 817 1006 803 1046 l 813 1004 l 1307 1004 l 1307 842 l 82 842 l 82 1004 l 625 1004 q 593 1074 611 1038 q 557 1142 575 1111 z "},"亥":{"ha":1389,"x_min":61,"x_max":1324,"o":"m 1086 601 l 1244 514 q 958 219 1124 343 q 1085 145 1021 185 q 1206 67 1149 106 q 1303 -4 1263 29 l 1147 -124 q 1055 -48 1111 -89 q 934 36 999 -7 q 806 118 869 79 q 502 -24 664 36 q 161 -125 340 -83 q 119 -44 147 -89 q 61 35 92 0 q 477 153 282 79 q 828 338 672 228 q 1086 601 983 449 m 224 499 q 215 555 221 521 q 201 622 208 589 q 186 674 193 654 q 242 688 210 678 q 300 718 275 699 q 360 776 319 733 q 440 865 400 819 l 71 865 l 71 1029 l 621 1029 q 592 1088 607 1058 q 561 1144 576 1118 l 733 1196 q 783 1113 757 1158 q 826 1029 808 1067 l 1324 1029 l 1324 865 l 656 865 q 506 696 582 776 l 832 714 q 913 814 876 758 l 1071 735 q 834 487 971 593 q 533 306 697 381 q 182 181 368 231 q 138 260 167 217 q 81 336 110 304 q 370 422 231 369 q 628 547 510 475 q 443 533 515 539 q 328 521 371 526 q 263 510 286 515 q 224 499 239 506 z "},"亦":{"ha":1389,"x_min":46,"x_max":1333,"o":"m 221 679 l 388 646 q 305 394 357 515 q 190 193 253 274 q 148 224 175 207 q 94 259 121 242 q 46 286 67 276 q 152 461 107 356 q 221 679 197 567 m 986 622 l 1131 685 q 1215 536 1174 615 q 1288 380 1256 457 q 1333 242 1319 303 l 1176 168 q 1134 307 1164 229 q 1066 467 1104 385 q 986 622 1028 550 m 560 1140 l 719 1194 q 778 1095 747 1150 q 825 1001 808 1040 l 713 961 l 1313 961 l 1313 799 l 971 799 l 971 72 q 956 -32 971 6 q 897 -89 940 -69 q 791 -114 854 -108 q 642 -119 728 -119 q 622 -35 638 -83 q 589 50 606 14 q 698 48 644 49 q 769 47 751 47 q 793 53 786 47 q 800 75 800 58 l 800 799 l 639 799 l 639 660 q 628 468 639 571 q 581 259 617 365 q 476 53 546 153 q 288 -131 406 -47 q 228 -65 267 -103 q 160 -6 190 -26 q 328 151 265 67 q 421 325 390 236 q 460 500 451 414 q 469 661 469 586 l 469 799 l 76 799 l 76 961 l 647 961 q 608 1050 633 1000 q 560 1140 583 1100 z "},"产":{"ha":1389,"x_min":33,"x_max":1300,"o":"m 560 1144 l 732 1186 q 782 1111 758 1153 q 819 1036 806 1069 l 1271 1036 l 1271 878 l 496 878 q 559 787 528 836 q 606 699 590 738 l 510 656 l 832 656 q 888 765 860 704 q 933 876 917 826 l 1121 818 l 1006 656 l 1300 656 l 1300 493 l 329 493 l 329 460 q 323 316 329 394 q 300 156 317 238 q 253 -3 283 74 q 174 -142 222 -79 q 133 -101 160 -125 q 80 -54 107 -76 q 33 -22 53 -32 q 114 135 89 49 q 147 306 139 221 q 154 463 154 392 l 154 656 l 440 656 q 397 742 424 696 q 342 826 369 788 l 461 878 l 142 878 l 142 1036 l 622 1036 q 560 1144 593 1096 z "},"亩":{"ha":1389,"x_min":79,"x_max":1311,"o":"m 331 275 l 331 107 l 608 107 l 608 275 l 331 275 m 1051 275 l 774 275 l 774 107 l 1051 107 l 1051 275 m 331 428 l 608 428 l 608 586 l 331 586 l 331 428 m 1051 428 l 1051 586 l 774 586 l 774 428 l 1051 428 m 168 746 l 1224 746 l 1224 -122 l 1051 -122 l 1051 -51 l 331 -51 l 331 -125 l 168 -125 l 168 746 m 558 1132 l 718 1186 q 771 1097 743 1147 q 817 1007 799 1046 l 1311 1007 l 1311 844 l 79 844 l 79 1007 l 622 1007 q 591 1072 608 1039 q 558 1132 574 1104 z "},"享":{"ha":1389,"x_min":67,"x_max":1322,"o":"m 414 760 l 414 682 l 974 682 l 974 760 l 414 760 m 249 874 l 1151 874 l 1151 567 l 249 567 l 249 874 m 1044 513 l 1082 519 l 1188 425 q 797 269 1015 333 l 1322 269 l 1322 128 l 781 128 l 781 29 q 760 -62 781 -32 q 689 -107 739 -92 q 571 -123 640 -121 q 411 -125 501 -125 q 387 -55 403 -93 q 354 11 371 -17 q 439 9 394 10 q 519 8 483 8 q 567 8 556 8 q 595 15 588 10 q 603 36 603 21 l 603 128 l 67 128 l 67 269 l 603 269 l 604 329 q 692 353 647 340 q 779 382 736 367 l 203 382 l 203 511 l 999 511 l 1044 513 m 571 1161 l 742 1190 q 788 1076 769 1136 l 1300 1076 l 1300 936 l 88 936 l 88 1076 l 600 1076 q 587 1120 594 1099 q 571 1161 579 1142 z "},"京":{"ha":1389,"x_min":56,"x_max":1308,"o":"m 404 647 l 404 497 l 985 497 l 985 647 l 404 647 m 925 203 l 1061 288 q 1150 193 1103 244 q 1240 92 1197 142 q 1307 3 1282 42 l 1160 -96 q 1098 -3 1138 -56 q 1013 103 1058 49 q 925 203 967 158 m 290 285 l 453 225 q 322 55 397 142 q 176 -93 247 -32 q 118 -38 154 -69 q 56 13 82 -7 q 144 95 99 49 q 228 192 189 142 q 290 285 267 242 m 560 1142 l 724 1193 q 774 1108 747 1156 q 817 1022 800 1061 l 1308 1022 l 1308 858 l 79 858 l 79 1022 l 619 1022 q 590 1084 606 1053 q 560 1142 575 1115 m 238 790 l 1161 790 l 1161 353 l 789 353 l 789 47 q 774 -51 789 -15 q 710 -104 758 -86 q 601 -126 665 -122 q 453 -129 538 -129 q 432 -47 447 -93 q 400 32 417 -1 q 474 31 436 31 q 541 31 511 31 q 582 31 571 31 q 606 35 600 31 q 613 53 613 39 l 613 353 l 238 353 l 238 790 z "},"亭":{"ha":1389,"x_min":75,"x_max":1317,"o":"m 76 531 l 1310 531 l 1310 246 l 1156 246 l 1156 404 l 224 404 l 224 246 l 76 246 l 76 531 m 428 778 l 428 700 l 956 700 l 956 778 l 428 778 m 261 886 l 1132 886 l 1132 590 l 261 590 l 261 886 m 567 1158 l 731 1197 q 764 1139 746 1171 q 796 1078 782 1107 l 1317 1078 l 1317 940 l 75 940 l 75 1078 l 607 1078 l 567 1158 m 283 339 l 1103 339 l 1103 204 l 803 204 l 803 43 q 784 -53 803 -19 q 717 -101 765 -86 q 599 -119 667 -117 q 443 -122 532 -122 q 421 -45 438 -87 q 388 29 404 -3 q 467 26 425 28 q 542 25 508 25 q 588 25 576 25 q 614 31 607 26 q 621 50 621 36 l 621 204 l 283 204 l 283 339 z "},"亮":{"ha":1389,"x_min":63,"x_max":1328,"o":"m 82 525 l 1306 525 l 1306 257 l 1140 257 l 1140 399 l 239 399 l 239 254 l 82 254 l 82 525 m 429 769 l 429 692 l 954 692 l 954 769 l 429 769 m 264 879 l 1132 879 l 1132 582 l 264 582 l 264 879 m 389 336 l 1000 336 l 1000 89 q 1007 51 1000 58 q 1040 43 1014 43 q 1067 43 1049 43 q 1106 43 1086 43 q 1133 43 1125 43 q 1158 53 1150 43 q 1171 94 1167 64 q 1178 182 1175 124 q 1248 146 1203 164 q 1328 121 1293 128 q 1301 -14 1321 35 q 1247 -81 1282 -62 q 1153 -100 1211 -100 q 1109 -100 1138 -100 q 1053 -100 1081 -100 q 1010 -100 1025 -100 q 892 -83 933 -100 q 836 -24 851 -65 q 821 88 821 17 l 821 199 l 547 199 q 492 53 532 115 q 371 -52 451 -8 q 151 -124 290 -96 q 115 -49 142 -92 q 63 19 88 -7 q 235 62 171 36 q 330 125 299 88 q 373 215 361 163 q 389 336 385 267 m 572 1161 l 742 1194 q 774 1135 758 1168 q 800 1074 790 1101 l 1321 1074 l 1321 936 l 65 936 l 65 1074 l 610 1074 q 592 1119 601 1096 q 572 1161 583 1142 z "},"亲":{"ha":1389,"x_min":89,"x_max":1299,"o":"m 331 272 l 494 224 q 378 59 447 139 q 243 -75 308 -21 q 202 -41 228 -60 q 150 -4 176 -22 q 103 25 124 14 q 233 136 171 69 q 331 272 294 203 m 878 203 l 1018 283 q 1106 197 1060 244 q 1194 101 1153 149 q 1261 15 1236 54 l 1111 -75 q 1050 12 1089 -37 q 966 111 1011 61 q 878 203 921 161 m 567 1146 l 733 1185 q 772 1103 753 1147 q 800 1021 790 1058 l 1243 1021 l 1243 882 l 483 882 q 531 789 507 839 q 567 699 554 739 l 833 699 q 871 789 853 742 q 899 875 889 836 l 1069 844 l 1001 699 l 1299 699 l 1299 554 l 788 554 l 788 449 l 1278 449 l 1278 303 l 788 303 l 788 43 q 773 -49 788 -17 q 717 -100 758 -82 q 620 -122 676 -118 q 489 -124 564 -125 q 467 -48 483 -90 q 436 26 451 -6 q 528 24 481 25 q 590 24 575 24 q 611 29 606 25 q 617 47 617 33 l 617 303 l 126 303 l 126 449 l 617 449 l 617 554 l 89 554 l 89 699 l 393 699 q 363 774 381 735 q 328 849 346 814 l 464 882 l 163 882 l 163 1021 l 613 1021 q 567 1146 594 1088 z "},"人":{"ha":1389,"x_min":39,"x_max":1358,"o":"m 585 1178 l 776 1178 q 773 1078 775 1133 q 767 957 771 1022 q 784 838 772 910 q 821 681 796 767 q 888 504 846 596 q 994 324 931 413 q 1147 160 1057 236 q 1358 31 1238 85 q 1287 -39 1319 0 q 1236 -114 1254 -78 q 975 69 1082 -40 q 800 303 868 178 q 692 547 732 428 q 589 303 654 425 q 424 73 524 182 q 178 -122 324 -36 q 118 -51 156 -89 q 39 14 81 -14 q 276 188 181 90 q 431 397 372 286 q 522 621 490 508 q 567 839 554 733 q 581 1032 579 944 q 585 1178 583 1119 z "},"亿":{"ha":1389,"x_min":25,"x_max":1331,"o":"m 538 1063 l 1156 1063 l 1194 1068 l 1299 1013 q 1290 1000 1296 1007 q 1278 986 1285 993 q 1031 697 1133 819 q 862 488 929 575 q 755 344 794 401 q 696 250 715 286 q 671 191 676 214 q 665 151 665 168 q 698 95 665 113 q 790 78 731 78 l 1086 78 q 1141 96 1121 78 q 1171 169 1161 114 q 1183 335 1181 225 q 1256 303 1215 318 q 1331 282 1296 289 q 1307 96 1324 168 q 1260 -15 1290 24 q 1185 -69 1231 -54 q 1074 -83 1139 -83 l 796 -83 q 569 -24 640 -83 q 497 132 497 35 q 504 196 497 161 q 537 283 511 231 q 616 415 563 335 q 761 614 669 494 q 993 904 853 733 l 538 904 l 538 1063 m 343 1175 l 500 1126 q 441 987 474 1057 q 372 849 408 917 l 372 -122 l 211 -122 l 211 596 q 163 536 188 565 q 114 481 139 507 q 91 534 107 501 q 58 600 75 567 q 25 653 40 633 q 148 800 89 717 q 258 980 207 883 q 343 1175 308 1076 z "},"什":{"ha":1389,"x_min":35,"x_max":1335,"o":"m 356 1175 l 513 1125 q 457 991 488 1058 q 392 858 426 924 l 392 -122 l 229 -122 l 229 599 q 177 532 203 564 q 124 472 151 500 q 101 526 117 493 q 67 592 85 560 q 35 646 49 625 q 159 794 99 710 q 270 977 219 879 q 356 1175 321 1075 m 818 1158 l 992 1158 l 992 719 l 1335 719 l 1335 556 l 992 556 l 992 -125 l 818 -125 l 818 556 l 460 556 l 460 719 l 818 719 l 818 1158 z "},"仁":{"ha":1389,"x_min":22,"x_max":1346,"o":"m 558 957 l 1290 957 l 1290 781 l 558 781 l 558 957 m 482 138 l 1346 138 l 1346 -40 l 482 -40 l 482 138 m 369 1175 l 535 1121 q 473 978 507 1050 q 399 838 439 907 l 399 -122 l 232 -122 l 232 586 q 177 520 206 551 q 121 461 149 489 q 94 515 113 482 q 57 582 76 549 q 22 636 38 615 q 156 788 92 701 q 276 973 221 874 q 369 1175 331 1072 z "},"仅":{"ha":1389,"x_min":18,"x_max":1369,"o":"m 519 1035 l 1160 1035 l 1188 1042 l 1297 1006 q 1191 576 1263 763 q 1014 250 1119 390 q 1174 119 1086 176 q 1369 25 1263 63 q 1311 -39 1343 3 q 1261 -112 1279 -81 q 1064 -10 1153 -69 q 901 124 975 49 q 726 -17 821 44 q 522 -122 631 -78 q 478 -49 507 -90 q 424 14 450 -8 q 796 251 639 90 q 647 528 708 375 q 542 861 586 681 l 625 879 l 519 879 l 519 1035 m 700 879 q 783 613 732 738 q 904 382 833 488 q 1028 608 975 483 q 1111 879 1081 732 l 700 879 m 369 1172 l 535 1119 q 472 975 507 1047 q 396 833 436 903 l 396 -122 l 232 -122 l 232 590 q 174 521 204 554 q 115 458 144 488 q 90 513 107 479 q 53 581 72 547 q 18 635 33 614 q 154 785 89 699 q 275 970 219 871 q 369 1172 331 1069 z "},"仆":{"ha":1389,"x_min":28,"x_max":1354,"o":"m 711 1164 l 892 1164 l 892 729 l 971 813 q 1067 727 1014 774 q 1174 633 1119 681 q 1275 540 1228 585 q 1354 461 1322 496 l 1229 318 q 1135 420 1193 363 q 1014 540 1078 478 q 892 657 950 601 l 892 -121 l 711 -121 l 711 1164 m 367 1175 l 532 1121 q 472 979 506 1050 q 399 839 438 908 l 399 -122 l 228 -122 l 228 581 q 176 517 201 547 q 122 458 150 486 q 97 515 114 481 q 62 585 81 550 q 28 643 43 621 q 159 792 96 707 q 276 975 222 876 q 367 1175 329 1074 z "},"仇":{"ha":1389,"x_min":26,"x_max":1358,"o":"m 640 1175 l 808 1175 q 808 1022 808 1097 q 806 872 808 946 l 1128 872 l 1128 111 q 1133 57 1128 63 q 1153 50 1139 50 q 1169 50 1160 50 q 1186 50 1179 50 q 1208 56 1203 50 q 1217 69 1214 60 q 1222 100 1221 79 q 1225 165 1224 121 q 1226 267 1226 210 q 1288 226 1251 244 q 1358 196 1325 207 q 1351 83 1357 140 q 1339 -3 1346 25 q 1318 -51 1332 -32 q 1285 -82 1304 -69 q 1242 -99 1267 -93 q 1194 -104 1218 -104 q 1149 -104 1175 -104 q 1106 -104 1122 -104 q 1048 -94 1078 -104 q 999 -67 1018 -85 q 968 -12 978 -46 q 958 107 958 22 l 958 710 l 800 710 q 760 375 790 531 q 666 92 729 219 q 492 -131 603 -35 q 438 -61 474 -99 q 369 -4 401 -24 q 522 185 467 78 q 601 424 576 292 q 633 710 626 556 l 436 710 l 436 872 l 639 872 l 640 1175 m 336 1175 l 493 1126 q 363 838 438 979 l 363 -124 l 199 -124 l 199 579 q 157 528 178 553 q 115 481 136 504 q 92 534 108 501 q 58 600 76 567 q 26 653 40 633 q 147 800 89 717 q 253 980 204 883 q 336 1175 301 1076 z "},"今":{"ha":1389,"x_min":35,"x_max":1354,"o":"m 529 706 l 639 810 q 734 740 682 779 q 834 663 786 701 q 911 594 882 625 l 826 507 l 1069 507 l 1099 515 l 1231 453 q 1094 265 1169 365 q 939 63 1018 164 q 785 -132 860 -39 l 611 -53 q 772 141 689 38 q 926 336 856 244 l 215 336 l 215 507 l 763 507 q 651 608 717 553 q 529 706 586 663 m 667 1196 l 833 1118 l 804 1076 q 965 938 874 1007 q 1158 809 1057 868 q 1354 710 1260 750 q 1284 638 1322 683 q 1224 556 1246 592 q 1046 664 1138 601 q 867 801 954 726 q 704 953 779 875 q 449 720 589 824 q 164 540 310 617 q 107 620 143 576 q 35 694 71 664 q 276 823 157 747 q 497 993 396 899 q 667 1196 599 1088 z "},"介":{"ha":1389,"x_min":22,"x_max":1374,"o":"m 878 608 l 1056 608 l 1056 -125 l 878 -125 l 878 608 m 354 606 l 531 606 l 531 447 q 521 301 531 378 q 481 149 511 225 q 389 2 450 72 q 224 -126 328 -68 q 185 -83 210 -107 q 133 -37 160 -60 q 83 -1 106 -15 q 229 103 175 47 q 310 219 283 160 q 346 338 338 279 q 354 451 354 397 l 354 606 m 686 1199 l 822 1103 l 796 1065 q 948 929 858 993 q 1147 817 1038 865 q 1374 740 1256 768 q 1308 665 1343 713 q 1254 582 1274 618 q 944 726 1088 632 q 693 944 800 821 q 428 724 578 824 q 124 563 278 624 q 78 644 107 599 q 22 722 50 690 q 284 835 156 763 q 517 1003 413 908 q 686 1199 622 1097 z "},"仍":{"ha":1389,"x_min":19,"x_max":1304,"o":"m 458 1086 l 1142 1086 q 1103 893 1125 994 q 1060 701 1082 792 l 1304 701 q 1303 688 1304 701 q 1303 658 1303 675 q 1301 631 1303 642 q 1281 272 1292 410 q 1253 59 1269 133 q 1213 -46 1238 -15 q 1160 -91 1188 -78 q 1093 -111 1132 -104 q 1006 -115 1058 -115 q 897 -114 954 -115 q 881 -31 896 -78 q 844 47 867 15 q 947 42 900 43 q 1017 40 993 40 q 1048 44 1036 40 q 1072 61 1060 49 q 1099 131 1088 78 q 1120 287 1111 185 q 1136 550 1129 389 l 868 550 q 914 730 890 628 q 956 935 938 832 l 760 935 q 744 641 756 789 q 706 354 733 493 q 625 92 678 215 q 485 -131 572 -32 q 428 -65 464 -99 q 357 -11 392 -31 q 482 183 436 75 q 549 416 528 292 q 578 672 571 540 q 586 935 585 804 l 458 935 l 458 1086 m 290 1178 l 444 1132 q 396 995 422 1064 q 338 858 369 926 l 338 -124 l 179 -124 l 179 571 q 140 515 161 542 q 100 465 119 489 q 80 521 94 486 q 49 590 65 556 q 19 646 33 625 q 126 797 75 711 q 219 980 176 882 q 290 1178 261 1078 z "},"从":{"ha":1389,"x_min":33,"x_max":1354,"o":"m 325 1160 l 508 1154 q 495 918 503 1032 q 475 697 488 804 q 574 581 525 643 q 665 459 624 519 q 731 350 706 399 l 606 228 q 537 349 581 281 q 443 485 493 417 q 350 149 408 300 q 197 -117 292 -3 q 153 -79 183 -101 q 89 -35 122 -57 q 33 0 56 -12 q 205 290 144 115 q 292 685 265 464 q 325 1160 318 906 m 864 1161 l 1049 1153 q 1033 919 1043 1032 q 1008 703 1024 807 q 1056 526 1026 618 q 1126 345 1085 433 q 1225 182 1168 257 q 1354 56 1282 107 q 1312 13 1336 40 q 1265 -44 1288 -14 q 1229 -99 1243 -74 q 1058 113 1128 -12 q 943 371 989 238 q 838 100 901 222 q 681 -115 774 -22 q 636 -79 667 -101 q 573 -34 606 -57 q 517 1 540 -11 q 717 284 646 113 q 822 677 789 456 q 864 1161 854 899 z "},"仑":{"ha":1389,"x_min":40,"x_max":1368,"o":"m 682 1190 l 831 1122 l 800 1076 q 961 938 867 1007 q 1161 812 1056 869 q 1368 717 1267 754 q 1302 647 1338 690 q 1246 568 1267 603 q 1058 673 1154 611 q 872 808 963 735 q 707 960 782 882 q 541 802 631 875 q 354 669 451 729 l 475 669 l 475 424 q 743 531 615 472 q 958 650 871 589 l 1111 526 q 810 382 978 447 q 475 267 643 317 l 475 147 q 484 99 475 115 q 520 76 493 82 q 601 71 547 71 q 665 71 621 71 q 761 71 708 71 q 860 71 814 71 q 928 71 906 71 q 1002 86 978 71 q 1038 147 1026 101 q 1054 282 1049 193 q 1131 244 1083 263 q 1213 218 1178 225 q 1175 34 1201 100 q 1093 -58 1149 -32 q 938 -85 1038 -85 q 887 -85 922 -85 q 808 -85 851 -85 q 719 -85 764 -85 q 641 -85 675 -85 q 592 -85 607 -85 q 420 -65 482 -85 q 333 6 358 -44 q 308 146 308 56 l 308 643 q 232 601 271 621 q 154 564 193 582 q 104 638 136 597 q 40 707 72 678 q 288 826 167 756 q 512 990 410 897 q 682 1190 614 1082 z "},"仓":{"ha":1389,"x_min":29,"x_max":1363,"o":"m 660 1186 l 819 1118 l 790 1069 q 1053 850 910 939 q 1363 696 1196 761 q 1299 627 1331 668 q 1251 549 1267 586 q 1162 594 1206 571 q 1076 642 1118 617 l 1075 622 q 1064 426 1071 503 q 1046 304 1057 349 q 1017 238 1035 260 q 963 200 993 211 q 897 186 933 189 q 810 182 864 182 q 697 185 757 182 q 684 259 696 217 q 657 332 672 301 q 755 325 710 326 q 821 324 800 324 q 869 339 856 324 q 888 398 881 353 q 900 532 896 443 l 467 532 l 467 150 q 476 98 467 115 q 514 75 485 81 q 600 69 543 69 q 665 69 619 69 q 765 69 711 69 q 865 69 818 69 q 936 69 913 69 q 1012 83 986 69 q 1049 138 1038 97 q 1067 258 1060 178 q 1147 217 1097 236 q 1233 192 1196 199 q 1192 17 1221 79 q 1106 -71 1164 -46 q 947 -96 1049 -96 q 894 -96 931 -96 q 813 -96 858 -96 q 722 -96 767 -96 q 640 -96 676 -96 q 589 -96 604 -96 q 408 -75 474 -96 q 316 -1 343 -54 q 289 147 289 51 l 289 601 q 219 563 254 582 q 147 528 183 544 q 95 606 129 564 q 29 678 61 647 q 278 802 158 728 q 496 973 397 876 q 660 1186 594 1069 m 467 689 l 1001 689 q 846 805 921 742 q 700 946 771 868 q 571 808 640 872 q 424 689 501 744 l 467 689 z "},"仔":{"ha":1389,"x_min":29,"x_max":1347,"o":"m 336 1176 l 493 1128 q 430 974 465 1051 q 354 822 394 896 l 354 -124 l 196 -124 l 196 574 q 158 525 178 549 q 118 481 138 501 q 95 535 111 501 q 61 601 79 568 q 29 654 43 633 q 148 801 90 718 q 254 981 206 885 q 336 1176 303 1078 m 822 775 q 929 846 875 806 q 1031 929 983 886 l 533 929 l 533 1083 l 1181 1083 l 1214 1093 l 1326 1010 q 1170 852 1260 932 q 990 710 1081 772 l 990 583 l 1347 583 l 1347 422 l 990 422 l 990 72 q 973 -34 990 4 q 908 -92 956 -72 q 794 -115 863 -110 q 632 -119 725 -119 q 610 -35 626 -83 q 576 49 593 14 q 663 47 619 47 q 739 46 706 46 q 786 46 772 46 q 814 53 806 47 q 822 75 822 58 l 822 422 l 446 422 l 446 583 l 822 583 l 822 775 z "},"他":{"ha":1389,"x_min":19,"x_max":1354,"o":"m 544 1025 l 708 1025 l 708 760 l 843 813 l 843 1174 l 1000 1174 l 1000 874 l 1138 928 l 1161 944 l 1190 965 l 1304 922 l 1299 896 q 1295 592 1297 714 q 1286 425 1293 469 q 1263 344 1282 374 q 1208 299 1243 314 q 1133 281 1178 285 q 1050 279 1088 278 q 1039 360 1049 314 q 1014 432 1029 406 q 1063 430 1038 431 q 1100 429 1088 429 q 1122 435 1114 429 q 1135 461 1131 442 q 1140 551 1138 479 q 1143 760 1142 624 l 1000 703 l 1000 206 l 843 206 l 843 642 l 708 589 l 708 143 q 716 81 708 101 q 746 53 724 60 q 814 46 768 46 q 868 46 829 46 q 952 46 907 46 q 1037 46 997 46 q 1094 46 1076 46 q 1157 61 1136 46 q 1188 117 1178 76 q 1204 238 1199 158 q 1276 199 1232 218 q 1354 174 1319 181 q 1319 9 1343 69 q 1245 -78 1294 -51 q 1108 -104 1196 -104 q 1047 -104 1090 -104 q 953 -104 1004 -104 q 860 -104 903 -104 q 800 -104 817 -104 q 644 -83 700 -104 q 567 -7 589 -61 q 544 143 544 47 l 544 524 l 439 482 l 374 629 l 544 696 l 544 1025 m 336 1175 l 490 1125 q 431 984 464 1056 q 360 843 397 913 l 360 -122 l 196 -122 l 196 589 q 107 483 151 531 q 84 535 100 503 q 51 601 68 568 q 19 653 33 633 q 141 799 82 715 q 251 980 200 883 q 336 1175 301 1076 z "},"仗":{"ha":1389,"x_min":15,"x_max":1357,"o":"m 914 1165 l 1081 1165 l 1081 897 l 1342 897 l 1342 738 l 1081 738 q 1054 474 1079 611 q 951 211 1029 338 q 1357 22 1106 76 q 1299 -49 1329 -4 q 1251 -128 1268 -93 q 1025 -44 1125 -96 q 847 76 925 7 q 718 -32 792 19 q 549 -128 644 -83 q 517 -82 538 -108 q 474 -31 497 -56 q 433 10 451 -6 q 603 103 531 53 q 728 208 676 153 q 615 410 663 299 q 533 654 568 521 l 686 686 q 828 349 732 493 q 896 546 879 446 q 914 738 913 646 l 469 738 l 469 897 l 914 897 l 914 1165 m 369 1172 l 532 1121 q 469 981 504 1051 q 396 843 435 911 l 396 -122 l 232 -122 l 232 597 q 173 526 203 560 q 113 463 143 493 q 87 516 104 483 q 50 582 69 549 q 15 635 31 615 q 152 785 86 699 q 274 970 218 871 q 369 1172 331 1069 z "},"付":{"ha":1389,"x_min":36,"x_max":1344,"o":"m 550 543 l 697 611 q 765 502 729 561 q 835 387 801 443 q 888 289 868 331 l 729 207 q 681 308 713 250 q 615 428 650 367 q 550 543 581 490 m 1018 1164 l 1190 1164 l 1190 879 l 1344 879 l 1344 711 l 1190 711 l 1190 78 q 1169 -41 1190 -3 q 1099 -99 1149 -79 q 967 -122 1047 -117 q 771 -126 886 -128 q 746 -42 765 -90 q 707 39 726 7 q 816 36 761 38 q 913 35 871 35 q 971 36 954 36 q 1008 46 997 36 q 1018 78 1018 56 l 1018 711 l 488 711 l 488 879 l 1018 879 l 1018 1164 m 369 1172 l 535 1121 q 474 978 507 1050 q 401 838 440 907 l 401 -122 l 232 -122 l 232 579 q 183 519 208 549 q 133 465 158 490 q 107 519 125 486 q 70 586 89 553 q 36 639 51 619 q 165 788 103 703 q 280 972 228 874 q 369 1172 332 1071 z "},"仙":{"ha":1389,"x_min":29,"x_max":1286,"o":"m 335 1175 l 493 1126 q 431 976 465 1051 q 357 828 397 901 l 357 -124 l 199 -124 l 199 578 q 159 527 179 551 q 118 481 139 503 q 95 534 111 501 q 61 600 79 567 q 29 653 43 633 q 147 801 90 717 q 253 981 204 885 q 335 1175 301 1076 m 486 853 l 650 853 l 650 108 l 797 108 l 797 1156 l 964 1156 l 964 108 l 1118 108 l 1118 863 l 1286 863 l 1286 -122 l 1118 -122 l 1118 -47 l 486 -47 l 486 853 z "},"代":{"ha":1389,"x_min":13,"x_max":1356,"o":"m 994 1092 l 1119 1169 q 1194 1097 1156 1138 q 1267 1017 1233 1057 q 1319 944 1300 978 l 1185 860 q 1137 933 1168 892 q 1068 1015 1106 974 q 994 1092 1031 1057 m 732 1158 l 901 1158 q 908 958 904 1056 q 919 771 913 861 l 1317 824 l 1340 667 l 936 611 q 986 340 956 457 q 1060 156 1017 224 q 1160 81 1104 89 q 1197 133 1183 79 q 1219 303 1211 188 q 1262 266 1236 285 q 1314 231 1288 247 q 1356 207 1340 215 q 1309 1 1339 72 q 1242 -97 1279 -71 q 1167 -121 1206 -124 q 969 -22 1049 -110 q 843 221 890 65 q 769 589 796 376 l 496 551 l 472 711 l 754 749 q 740 946 746 843 q 732 1158 735 1049 m 394 1168 l 554 1117 q 424 861 499 986 l 424 -122 l 251 -122 l 251 611 q 180 528 217 568 q 106 454 143 489 q 82 507 99 475 q 47 572 65 539 q 13 624 28 604 q 160 776 89 689 q 292 963 232 863 q 394 1168 353 1064 z "},"令":{"ha":1389,"x_min":33,"x_max":1371,"o":"m 542 739 l 660 836 q 733 774 694 808 q 807 705 772 739 q 863 643 842 671 l 750 546 l 1076 546 l 1104 554 l 1231 481 q 1056 299 1153 397 q 861 106 958 200 q 940 56 903 79 q 1004 10 976 32 l 876 -133 q 780 -61 838 -101 q 656 22 722 -21 q 521 104 589 64 q 393 178 453 144 l 511 303 q 608 251 556 279 q 715 192 661 222 q 815 290 765 240 q 910 385 865 339 l 219 385 l 219 546 l 728 546 q 643 642 696 589 q 542 739 590 696 m 703 1193 l 856 1111 l 815 1063 q 979 941 886 1001 q 1174 831 1072 881 q 1371 746 1276 781 q 1326 701 1350 729 q 1281 645 1303 674 q 1244 594 1260 617 q 1061 691 1156 635 q 876 815 967 747 q 708 954 786 882 q 442 747 586 840 q 153 588 297 654 q 101 663 133 621 q 33 735 68 704 q 283 853 157 783 q 518 1010 408 924 q 703 1193 628 1096 z "},"以":{"ha":1389,"x_min":96,"x_max":1363,"o":"m 497 958 l 640 1036 q 721 931 681 988 q 794 819 761 875 q 849 719 828 764 l 696 628 q 647 731 679 672 q 575 849 614 789 q 497 958 536 908 m 1029 1121 l 1208 1113 q 1163 675 1196 869 q 1065 328 1131 481 q 1176 213 1119 274 q 1283 96 1233 153 q 1363 -8 1332 39 l 1215 -118 q 1116 20 1181 -58 q 982 175 1051 99 q 828 3 918 79 q 619 -131 739 -72 q 585 -85 608 -112 q 537 -29 563 -57 q 492 15 511 -1 q 750 177 649 79 q 910 411 851 275 q 994 724 968 547 q 1029 1121 1021 900 m 188 -10 q 164 35 181 10 q 129 85 147 61 q 96 124 111 110 q 140 160 115 138 q 181 215 164 183 q 199 283 199 246 l 199 1085 l 382 1085 l 382 307 l 646 440 q 666 357 653 404 q 689 282 679 310 q 448 152 540 203 q 304 72 356 101 q 228 24 253 42 q 188 -10 203 6 z "},"仪":{"ha":1389,"x_min":19,"x_max":1360,"o":"m 742 1089 l 872 1156 q 930 1067 901 1115 q 981 974 958 1019 q 1015 890 1004 928 l 876 815 q 844 899 865 851 q 796 996 822 946 q 742 1089 769 1046 m 1131 1094 l 1297 1068 q 1186 631 1256 836 q 992 257 1117 425 q 1156 119 1065 181 q 1360 17 1247 58 q 1296 -51 1331 -7 q 1242 -128 1261 -94 q 1038 -18 1129 -81 q 874 122 947 44 q 701 -15 797 49 q 485 -126 604 -78 q 438 -60 468 -99 q 383 3 407 -21 q 601 110 506 49 q 772 249 697 172 q 599 608 665 406 q 492 1054 533 811 l 650 1076 q 739 701 682 875 q 889 389 796 528 q 1044 717 989 538 q 1131 1094 1100 896 m 336 1175 l 493 1125 q 360 838 439 981 l 360 -122 l 201 -122 l 201 590 q 156 532 179 560 q 108 479 132 504 q 85 533 101 500 q 51 600 69 567 q 19 653 33 633 q 141 799 82 715 q 251 980 200 883 q 336 1175 301 1076 z "},"们":{"ha":1389,"x_min":32,"x_max":1299,"o":"m 499 1108 l 625 1182 q 689 1094 656 1142 q 751 1001 722 1047 q 797 919 781 956 l 661 836 q 619 919 646 872 q 560 1015 592 965 q 499 1108 529 1065 m 439 872 l 601 872 l 601 -122 l 439 -122 l 439 872 m 796 1135 l 1299 1135 l 1299 58 q 1284 -37 1299 -3 q 1229 -92 1269 -72 q 1133 -115 1190 -110 q 994 -121 1076 -121 q 974 -43 989 -89 q 943 33 960 3 q 1040 30 992 31 q 1104 31 1088 29 q 1133 60 1133 31 l 1133 985 l 796 985 l 796 1135 m 281 1175 l 435 1131 q 325 826 390 978 l 325 -124 l 167 -124 l 167 529 q 141 492 154 511 q 114 457 128 474 q 94 512 108 478 q 63 581 79 546 q 32 636 46 615 q 131 790 85 703 q 215 976 176 878 q 281 1175 254 1075 z "},"仰":{"ha":1389,"x_min":21,"x_max":1299,"o":"m 472 72 q 438 131 463 96 q 394 182 413 165 q 437 235 415 200 q 458 326 458 271 l 458 1029 q 623 1091 539 1056 q 765 1157 707 1126 l 872 1033 q 744 985 813 1008 q 607 943 675 963 l 607 299 l 793 360 q 797 287 793 328 q 807 219 801 246 q 650 159 711 183 q 554 119 589 135 q 501 92 519 103 q 472 72 483 82 m 839 1007 l 1299 1007 l 1299 264 q 1288 177 1299 213 q 1243 121 1276 142 q 1168 95 1211 101 q 1065 89 1125 89 q 1045 170 1061 124 q 1013 247 1029 217 q 1078 246 1049 246 q 1121 247 1108 246 q 1140 268 1140 247 l 1140 861 l 999 861 l 999 -125 l 839 -125 l 839 1007 m 294 1181 l 449 1135 q 400 997 426 1067 q 342 860 374 928 l 342 -124 l 183 -124 l 183 572 q 143 515 164 542 q 101 463 122 488 q 81 517 96 483 q 51 586 67 551 q 21 643 35 621 q 128 794 78 708 q 222 980 179 881 q 294 1181 265 1079 z "},"仲":{"ha":1389,"x_min":25,"x_max":1308,"o":"m 335 1176 l 492 1128 q 430 977 464 1053 q 356 828 396 901 l 356 -124 l 197 -124 l 197 579 q 157 528 178 553 q 115 481 136 504 q 92 534 108 501 q 58 600 76 567 q 25 654 40 633 q 145 801 88 717 q 251 981 203 885 q 335 1176 300 1078 m 793 1163 l 960 1163 l 960 901 l 1308 901 l 1308 246 l 1144 246 l 1144 319 l 960 319 l 960 -122 l 793 -122 l 793 319 l 614 319 l 614 235 l 457 235 l 457 901 l 793 901 l 793 1163 m 614 474 l 793 474 l 793 747 l 614 747 l 614 474 m 1144 474 l 1144 747 l 960 747 l 960 474 l 1144 474 z "},"件":{"ha":1389,"x_min":25,"x_max":1342,"o":"m 439 507 l 815 507 l 815 747 l 646 747 q 605 650 626 696 q 560 567 583 604 q 517 594 543 579 q 463 624 490 610 q 415 646 436 638 q 484 776 453 701 q 540 934 515 850 q 579 1103 564 1018 l 740 1071 q 722 991 732 1031 q 701 911 713 951 l 815 911 l 815 1163 l 983 1163 l 983 911 l 1275 911 l 1275 747 l 983 747 l 983 507 l 1342 507 l 1342 344 l 983 344 l 983 -124 l 815 -124 l 815 344 l 439 344 l 439 507 m 336 1175 l 494 1125 q 432 975 467 1050 q 357 826 397 900 l 357 -122 l 199 -122 l 199 579 q 115 479 157 525 q 92 533 108 500 q 58 599 76 567 q 25 653 40 632 q 145 799 88 715 q 252 980 203 883 q 336 1175 301 1076 z "},"价":{"ha":1389,"x_min":33,"x_max":1361,"o":"m 972 619 l 1144 619 l 1144 -122 l 972 -122 l 972 619 m 592 617 l 761 617 l 761 425 q 752 290 761 363 q 719 143 743 218 q 647 -3 694 68 q 524 -136 600 -75 q 468 -74 504 -108 q 400 -19 432 -40 q 505 88 467 29 q 562 207 543 146 q 586 325 581 268 q 592 426 592 382 l 592 617 m 342 1179 l 499 1131 q 438 983 472 1057 q 365 836 404 908 l 365 689 q 572 835 486 754 q 715 1005 658 915 q 804 1183 772 1094 l 979 1154 l 951 1090 q 1063 937 997 1011 q 1205 800 1128 863 q 1361 696 1282 738 q 1300 633 1335 674 q 1246 561 1265 593 q 1044 724 1140 626 q 871 938 947 822 q 696 724 799 825 q 450 543 593 624 q 414 606 439 571 q 365 665 389 640 l 365 -124 l 197 -124 l 197 574 q 160 526 179 549 q 122 483 142 504 q 99 538 115 504 q 65 603 83 571 q 33 657 47 636 q 152 803 94 719 q 258 984 210 888 q 342 1179 307 1081 z "},"任":{"ha":1389,"x_min":19,"x_max":1340,"o":"m 369 1175 l 533 1124 q 511 1069 524 1097 q 486 1013 499 1040 q 739 1051 611 1028 q 982 1101 867 1074 q 1183 1161 1097 1129 l 1306 1019 q 1155 977 1235 997 q 990 939 1075 957 l 990 600 l 1340 600 l 1340 439 l 990 439 l 990 83 l 1325 83 l 1325 -76 l 500 -76 l 500 83 l 822 83 l 822 439 l 443 439 l 443 600 l 822 600 l 822 910 q 675 888 749 897 q 532 869 601 878 q 512 940 526 900 q 483 1008 497 981 q 442 923 464 965 q 397 840 421 881 l 397 -122 l 232 -122 l 232 592 q 176 524 204 557 q 118 463 147 490 q 92 517 110 483 q 55 583 75 550 q 19 638 35 617 q 156 788 90 701 q 276 973 221 874 q 369 1175 331 1072 z "},"份":{"ha":1389,"x_min":22,"x_max":1371,"o":"m 329 1175 l 486 1126 q 428 981 460 1054 q 358 839 396 908 l 358 -124 l 193 -124 l 193 576 q 153 526 174 550 q 113 479 133 501 q 90 533 106 500 q 56 599 74 567 q 22 653 38 632 q 141 799 83 715 q 247 980 199 883 q 329 1175 296 1076 m 1081 1153 q 1147 940 1108 1031 q 1239 782 1185 850 q 1371 657 1293 714 q 1308 592 1340 631 q 1260 515 1276 554 q 1231 540 1244 528 q 1203 565 1217 553 q 1186 238 1196 364 q 1163 45 1176 113 q 1128 -49 1150 -22 q 1079 -92 1106 -79 q 1019 -110 1053 -104 q 946 -115 990 -115 q 851 -114 901 -115 q 838 -35 850 -79 q 806 39 825 8 q 883 34 847 35 q 938 33 918 33 q 964 37 953 33 q 985 53 975 40 q 1006 116 997 68 q 1023 257 1015 164 q 1036 497 1031 350 l 853 497 q 748 115 826 268 q 510 -129 669 -37 q 481 -89 500 -112 q 439 -42 461 -65 q 399 -6 417 -19 q 606 190 540 64 q 688 497 671 315 l 561 497 l 561 579 q 522 538 542 558 q 479 500 501 518 q 453 549 471 519 q 416 607 436 578 q 381 653 396 636 q 557 863 485 735 q 665 1142 629 990 l 829 1107 q 742 863 794 979 q 619 651 689 747 l 1124 651 q 1007 856 1053 742 q 929 1125 961 971 l 1081 1153 z "},"仿":{"ha":1389,"x_min":25,"x_max":1346,"o":"m 788 1149 l 953 1189 q 993 1081 972 1140 q 1024 981 1014 1021 l 882 942 l 1346 942 l 1346 778 l 838 778 l 829 632 l 1269 632 q 1269 606 1269 632 q 1267 565 1268 581 q 1247 240 1258 365 q 1222 49 1236 115 q 1185 -46 1207 -18 q 1128 -89 1158 -76 q 1058 -106 1099 -101 q 973 -112 1026 -111 q 863 -111 919 -112 q 846 -31 860 -75 q 810 44 832 13 q 909 38 863 39 q 979 38 956 38 q 1033 57 1014 36 q 1059 117 1049 71 q 1078 251 1069 164 q 1092 478 1086 339 l 814 478 q 761 247 797 357 q 660 42 725 136 q 493 -126 596 -53 q 439 -62 474 -97 q 372 -7 404 -28 q 524 146 468 60 q 607 333 579 232 q 644 547 635 435 q 658 778 654 660 l 447 778 l 447 942 l 846 942 q 819 1042 836 985 q 788 1149 803 1100 m 336 1183 l 496 1132 q 433 981 468 1057 q 358 831 399 904 l 358 -122 l 197 -122 l 197 581 q 158 531 178 554 q 117 485 138 507 q 93 539 110 506 q 58 606 76 572 q 25 661 40 640 q 145 808 88 725 q 252 988 203 892 q 336 1183 301 1085 z "},"企":{"ha":1389,"x_min":25,"x_max":1367,"o":"m 256 550 l 419 550 l 419 64 l 615 64 l 615 779 l 792 779 l 792 492 l 1165 492 l 1165 343 l 792 343 l 792 64 l 1292 64 l 1292 -86 l 104 -86 l 104 64 l 256 64 l 256 550 m 671 1193 l 821 1119 l 790 1079 q 1074 856 928 936 q 1367 724 1219 776 q 1306 657 1336 697 q 1261 579 1276 617 q 1071 672 1165 621 q 883 794 976 724 q 694 965 790 865 q 435 746 578 843 q 139 579 292 649 q 89 651 121 611 q 25 721 57 692 q 272 840 150 769 q 498 999 394 910 q 671 1193 601 1089 z "},"伊":{"ha":1389,"x_min":17,"x_max":1343,"o":"m 1096 622 l 899 622 l 899 571 q 894 458 899 515 l 1096 458 l 1096 622 m 504 458 l 731 458 q 735 572 735 517 l 735 622 l 432 622 l 432 776 l 735 776 l 735 938 l 517 938 l 517 1092 l 1258 1092 l 1258 776 l 1343 776 l 1343 622 l 1258 622 l 1258 238 l 1096 238 l 1096 303 l 871 303 q 763 65 840 178 q 531 -131 685 -49 q 480 -66 514 -104 q 417 -4 446 -28 q 608 133 542 53 q 701 303 674 214 l 504 303 l 504 458 m 1096 776 l 1096 938 l 899 938 l 899 776 l 1096 776 m 354 1176 l 508 1126 q 449 991 482 1060 q 378 857 415 922 l 378 -122 l 219 -122 l 219 617 q 104 485 164 544 q 81 538 97 506 q 48 603 65 571 q 17 656 31 636 q 146 801 83 718 q 263 981 208 885 q 354 1176 317 1078 z "},"伍":{"ha":1389,"x_min":26,"x_max":1349,"o":"m 440 82 l 615 82 q 683 486 649 263 l 508 486 l 508 642 l 706 642 q 725 784 717 714 q 742 922 733 854 l 500 922 l 500 1078 l 1301 1078 l 1301 922 l 913 922 l 875 642 l 1085 642 l 1113 647 l 1236 639 q 1219 368 1231 515 q 1192 82 1207 221 l 1349 82 l 1349 -74 l 440 -74 l 440 82 m 851 486 q 819 273 836 376 q 786 82 801 169 l 1025 82 q 1045 290 1036 183 q 1060 486 1054 396 l 851 486 m 347 1178 l 501 1128 q 379 858 451 994 l 379 -125 l 217 -125 l 217 600 q 165 533 190 565 q 111 474 139 501 q 89 528 104 494 q 57 594 74 561 q 26 649 40 628 q 150 797 90 713 q 260 980 210 882 q 347 1178 311 1078 z "},"伏":{"ha":1389,"x_min":29,"x_max":1350,"o":"m 1006 1082 l 1133 1153 q 1192 1074 1163 1117 q 1249 989 1222 1031 q 1290 914 1275 947 l 1154 833 q 1116 910 1140 867 q 1063 998 1092 953 q 1006 1082 1033 1043 m 347 1181 l 507 1131 q 447 985 481 1058 q 376 843 414 913 l 376 -124 l 208 -124 l 208 579 q 119 474 164 521 q 96 528 113 494 q 61 596 79 563 q 29 650 43 629 q 152 799 93 714 q 262 983 211 885 q 347 1181 313 1081 m 771 1178 l 940 1178 l 940 824 l 940 793 l 1324 793 l 1324 628 l 960 628 q 1049 383 994 499 q 1178 176 1103 268 q 1350 25 1253 85 q 1283 -43 1319 0 q 1225 -121 1246 -86 q 1024 88 1107 -37 q 883 369 940 214 q 767 112 844 239 q 558 -126 690 -15 q 495 -69 535 -99 q 421 -17 456 -39 q 609 191 539 82 q 714 411 679 300 q 761 628 749 522 l 442 628 l 442 793 l 771 793 l 771 825 l 771 1178 z "},"伐":{"ha":1389,"x_min":32,"x_max":1356,"o":"m 935 1082 l 1044 1172 q 1121 1113 1079 1146 q 1201 1047 1163 1079 q 1265 989 1240 1014 l 1151 886 q 1090 947 1128 913 q 1012 1017 1053 981 q 935 1082 971 1053 m 1132 663 l 1293 604 q 1165 405 1238 499 q 1008 232 1093 311 q 1076 94 1040 144 q 1151 44 1113 44 q 1190 103 1176 44 q 1210 296 1204 163 q 1280 242 1239 268 q 1356 203 1321 215 q 1317 -1 1343 71 q 1249 -99 1292 -72 q 1139 -125 1206 -125 q 987 -60 1054 -125 q 869 117 919 6 q 538 -75 717 3 q 508 -28 528 -56 q 466 26 488 -1 q 428 69 444 53 q 813 279 642 147 q 739 664 764 451 l 451 635 l 438 792 l 724 819 q 715 991 718 904 q 710 1164 711 1078 l 885 1164 q 886 998 883 1081 q 894 836 889 915 l 1304 876 l 1318 721 l 910 681 q 931 540 919 608 q 956 411 942 472 q 1132 663 1064 525 m 369 1179 l 529 1129 q 470 992 503 1061 q 400 854 438 922 l 400 -122 l 232 -122 l 232 596 q 180 532 206 563 q 126 474 154 501 q 101 526 118 494 q 66 591 85 558 q 32 643 47 624 q 162 793 99 707 q 278 978 225 879 q 369 1179 332 1078 z "},"休":{"ha":1389,"x_min":15,"x_max":1372,"o":"m 369 1172 l 535 1119 q 469 973 506 1047 q 392 828 433 899 l 392 175 q 524 313 461 232 q 642 488 588 393 q 736 681 696 582 l 446 681 l 446 842 l 801 842 l 801 1157 l 965 1157 l 965 842 l 1331 842 l 1331 681 l 1039 681 q 1130 488 1078 582 q 1244 313 1182 393 q 1372 175 1306 232 q 1305 114 1342 153 q 1247 40 1268 75 q 1094 238 1167 122 q 965 486 1022 354 l 965 -125 l 801 -125 l 801 457 q 665 222 740 331 q 504 33 589 113 q 452 97 485 61 q 392 156 419 132 l 392 -122 l 226 -122 l 226 588 q 113 461 171 517 q 87 516 104 482 q 50 583 69 550 q 15 638 31 617 q 152 786 86 701 q 274 970 218 871 q 369 1172 331 1069 z "},"众":{"ha":1389,"x_min":57,"x_max":1344,"o":"m 663 1194 l 828 1129 l 792 1063 q 933 911 849 982 q 1123 787 1018 840 q 1344 703 1228 733 q 1283 633 1317 676 q 1231 556 1250 589 q 937 708 1071 608 q 706 936 803 807 q 568 788 643 856 q 407 665 493 721 l 510 654 q 476 447 497 544 q 606 335 543 396 q 706 226 669 274 l 592 106 q 525 190 567 143 q 435 283 483 238 q 338 59 396 160 q 200 -115 281 -42 q 159 -81 186 -101 q 104 -42 132 -61 q 57 -11 76 -22 q 246 251 181 88 q 336 622 311 414 q 175 543 261 579 q 124 623 157 579 q 57 699 90 667 q 415 890 254 767 q 663 1194 575 1014 m 844 667 l 1014 649 q 1001 556 1008 601 q 983 465 993 510 q 1054 308 1010 390 q 1165 157 1099 226 q 1319 47 1231 88 q 1279 4 1301 31 q 1237 -51 1257 -22 q 1204 -103 1217 -79 q 1036 44 1107 -46 q 917 232 965 135 q 816 33 875 122 q 678 -122 757 -56 q 638 -88 664 -108 q 583 -48 611 -68 q 535 -17 556 -28 q 751 260 679 85 q 844 667 822 436 z "},"优":{"ha":1389,"x_min":32,"x_max":1349,"o":"m 868 621 l 1031 621 l 1031 117 q 1038 71 1031 81 q 1068 61 1044 61 q 1093 61 1075 61 q 1131 61 1111 61 q 1158 61 1150 61 q 1183 76 1175 61 q 1196 138 1192 92 q 1203 275 1200 183 q 1273 236 1228 254 q 1349 208 1318 218 q 1324 27 1342 93 q 1271 -65 1307 -39 q 1174 -92 1235 -92 q 1135 -92 1161 -92 q 1082 -92 1108 -92 q 1042 -92 1056 -92 q 935 -72 972 -92 q 883 -7 897 -53 q 868 117 868 39 l 868 621 m 969 1069 l 1085 1151 q 1151 1085 1117 1122 q 1217 1013 1186 1049 q 1268 949 1249 978 l 1151 861 l 1328 861 l 1328 704 l 846 704 q 797 378 833 532 q 685 96 760 224 q 479 -126 610 -32 q 425 -55 460 -93 q 358 6 390 -17 q 540 192 474 85 q 639 428 607 299 q 682 704 671 557 l 410 704 l 410 861 l 690 861 q 693 1009 693 933 q 693 1161 693 1085 l 858 1161 q 854 861 858 1007 l 1140 861 q 1094 926 1124 890 q 1033 1000 1065 963 q 969 1069 1000 1038 m 339 1175 l 496 1126 q 433 972 468 1050 q 357 821 397 894 l 357 -124 l 199 -124 l 199 572 q 160 524 181 547 q 121 481 140 501 q 98 534 114 501 q 64 600 82 567 q 32 653 46 633 q 150 801 93 717 q 256 981 207 885 q 339 1175 304 1076 z "},"伙":{"ha":1389,"x_min":24,"x_max":1364,"o":"m 1160 928 l 1343 883 q 1273 662 1311 774 q 1200 472 1235 550 l 1049 515 q 1091 642 1069 571 q 1131 788 1113 714 q 1160 928 1149 863 m 542 925 l 701 903 q 688 746 699 828 q 658 588 676 664 q 615 453 640 513 l 453 517 q 494 635 476 567 q 524 780 511 704 q 542 925 536 856 m 351 1181 l 511 1129 q 454 997 485 1064 q 388 865 424 931 l 388 -122 l 213 -122 l 213 597 q 164 538 189 567 q 114 483 139 508 q 91 538 107 504 q 57 606 75 572 q 24 661 39 640 q 151 807 89 724 q 264 986 213 890 q 351 1181 315 1082 m 801 1161 l 982 1161 q 979 888 981 1018 q 968 643 978 758 q 1035 374 990 494 q 1158 167 1079 253 q 1364 35 1238 81 q 1324 -9 1346 18 q 1283 -65 1301 -36 q 1251 -118 1264 -94 q 1031 40 1115 -60 q 896 278 946 139 q 760 48 849 149 q 524 -126 672 -53 q 472 -52 507 -94 q 407 14 438 -10 q 609 152 532 74 q 726 331 686 231 q 782 557 767 432 q 799 832 797 682 q 801 1161 801 982 z "},"会":{"ha":1389,"x_min":38,"x_max":1357,"o":"m 221 -100 q 206 -51 217 -82 q 185 13 196 -19 q 164 69 174 46 q 217 92 192 75 q 275 139 242 110 q 351 210 300 158 q 458 329 403 261 l 122 329 l 122 492 l 1276 492 l 1276 329 l 690 329 q 587 211 643 269 q 472 100 531 153 l 957 128 q 898 192 928 160 q 838 251 868 224 l 981 325 q 1101 209 1042 272 q 1211 83 1161 146 q 1293 -33 1261 19 l 1142 -124 q 1112 -73 1129 -100 q 1074 -18 1094 -46 q 727 -44 868 -33 q 496 -62 586 -54 q 353 -75 406 -69 q 271 -86 300 -81 q 221 -100 242 -92 m 689 1188 l 840 1115 l 794 1056 q 954 940 863 999 q 1150 833 1046 882 q 1357 750 1254 783 q 1294 681 1329 725 q 1239 604 1258 638 q 1130 654 1185 626 q 1022 713 1075 682 l 1022 608 l 371 608 l 371 701 q 266 643 319 671 q 157 590 213 615 q 125 640 146 611 q 81 695 104 668 q 38 739 57 722 q 294 860 171 789 q 520 1015 418 931 q 689 1188 622 1099 m 465 761 l 943 761 q 812 855 875 807 q 697 950 749 903 q 588 851 646 899 q 465 761 529 804 z "},"伞":{"ha":1389,"x_min":22,"x_max":1369,"o":"m 239 635 l 375 700 q 435 610 404 658 q 490 516 465 563 q 526 431 514 469 l 381 358 q 348 444 371 396 q 297 542 325 492 q 239 635 268 592 m 1000 697 l 1165 638 q 1070 490 1119 564 q 979 363 1021 415 l 849 417 q 903 503 875 454 q 958 603 932 551 q 1000 697 983 654 m 697 1197 l 832 1121 l 796 1079 q 1094 908 950 969 q 1369 810 1239 846 q 1306 739 1338 781 q 1258 657 1274 697 q 992 776 1132 706 q 688 975 851 847 q 422 791 567 872 q 136 653 278 710 q 85 732 117 689 q 22 807 54 775 q 274 903 147 846 q 510 1035 400 961 q 697 1197 621 1110 m 606 811 l 779 811 l 779 315 l 1325 315 l 1325 154 l 779 154 l 779 -125 l 606 -125 l 606 154 l 60 154 l 60 315 l 606 315 l 606 811 z "},"伟":{"ha":1389,"x_min":33,"x_max":1339,"o":"m 786 1181 l 946 1181 l 946 1007 l 1308 1007 l 1308 853 l 946 853 l 946 749 l 1258 749 l 1258 593 l 946 593 l 946 483 l 1339 483 q 1338 462 1339 483 q 1336 425 1338 440 q 1308 149 1324 239 q 1267 28 1293 58 q 1228 -4 1249 6 q 1185 -18 1208 -14 q 1130 -24 1163 -22 q 1060 -24 1097 -25 q 1049 51 1058 10 q 1022 121 1039 92 q 1071 117 1050 118 q 1104 115 1092 115 q 1142 131 1126 115 q 1162 190 1153 144 q 1179 328 1171 235 l 946 328 l 946 -124 l 786 -124 l 786 328 l 435 328 l 435 483 l 786 483 l 786 593 l 511 593 l 511 749 l 786 749 l 786 853 l 478 853 l 478 1007 l 786 1007 l 786 1181 m 339 1175 l 497 1125 q 368 839 444 981 l 368 -124 l 210 -124 l 210 586 q 166 530 188 557 q 122 479 144 503 q 99 533 115 500 q 65 599 83 567 q 33 653 47 632 q 151 800 94 717 q 257 980 208 883 q 339 1175 306 1076 z "},"传":{"ha":1389,"x_min":17,"x_max":1339,"o":"m 333 1175 l 492 1125 q 430 978 464 1053 q 356 833 396 904 l 356 -122 l 193 -122 l 193 582 q 149 528 171 554 q 106 479 128 503 q 83 533 99 500 q 49 600 67 567 q 17 653 31 633 q 140 799 81 715 q 249 980 199 883 q 333 1175 299 1076 m 624 160 l 739 261 q 798 228 768 246 q 858 192 828 210 q 935 269 897 231 q 1007 346 972 308 l 538 346 q 578 473 557 403 q 622 619 600 543 l 407 619 l 407 774 l 665 774 l 694 881 l 488 881 l 488 1033 l 732 1033 l 763 1165 l 929 1144 l 901 1033 l 1267 1033 l 1267 881 l 864 881 l 835 774 l 1339 774 l 1339 619 l 794 619 l 761 501 l 1158 501 l 1183 510 l 1300 436 q 1153 274 1233 361 q 990 104 1072 188 q 1065 48 1031 75 q 1126 -3 1100 21 l 1008 -128 q 904 -36 968 -87 q 767 67 840 15 q 624 160 693 118 z "},"伤":{"ha":1389,"x_min":19,"x_max":1297,"o":"m 336 1175 l 494 1126 q 430 976 465 1051 q 354 826 394 900 l 354 -122 l 196 -122 l 196 583 q 152 530 174 556 q 108 481 131 504 q 85 534 101 501 q 51 600 69 567 q 19 653 33 633 q 142 800 83 717 q 251 980 201 883 q 336 1175 301 1076 m 644 1176 l 807 1140 q 781 1062 794 1101 q 750 985 767 1022 l 1297 985 l 1297 828 l 671 828 q 608 731 640 776 q 539 649 575 685 q 500 682 525 663 q 449 720 475 701 q 403 750 422 739 q 547 938 485 824 q 644 1176 610 1051 m 749 785 l 915 785 q 911 694 914 739 q 906 604 908 649 l 1281 604 q 1281 578 1281 604 q 1279 538 1281 553 q 1268 226 1275 346 q 1249 44 1261 107 q 1217 -46 1238 -19 q 1165 -89 1193 -76 q 1101 -106 1138 -101 q 1015 -111 1068 -111 q 906 -110 963 -111 q 890 -32 904 -75 q 854 43 875 11 q 955 38 908 39 q 1024 36 1001 36 q 1055 40 1043 36 q 1076 54 1067 43 q 1103 164 1094 74 q 1118 451 1113 254 l 888 451 q 828 222 869 331 q 713 24 788 114 q 514 -132 638 -65 q 467 -66 499 -103 q 408 -7 436 -29 q 575 116 511 46 q 674 271 639 186 q 724 451 708 356 l 479 451 l 479 604 l 740 604 q 749 785 746 692 z "},"伦":{"ha":1389,"x_min":24,"x_max":1369,"o":"m 333 1181 l 490 1132 q 428 982 463 1057 q 354 833 394 907 l 354 681 q 564 837 472 751 q 722 1013 656 922 q 831 1189 789 1103 l 1008 1153 l 969 1082 q 1082 935 1017 1007 q 1222 801 1147 863 q 1369 697 1296 739 q 1307 635 1342 675 q 1253 564 1272 596 q 1055 731 1153 631 q 879 944 957 831 q 757 796 824 868 q 610 657 690 724 l 721 657 l 721 415 q 914 507 815 456 q 1085 607 1013 558 l 1190 464 q 1040 387 1121 425 q 878 314 960 349 q 721 253 796 279 l 721 124 q 737 67 721 79 q 813 54 753 54 q 856 54 825 54 q 925 54 888 54 q 996 54 963 54 q 1046 54 1029 54 q 1099 68 1081 54 q 1125 124 1117 82 q 1138 249 1133 167 q 1209 211 1164 229 q 1288 185 1254 193 q 1255 15 1278 76 q 1186 -71 1232 -46 q 1058 -96 1140 -96 q 1006 -96 1043 -96 q 926 -96 969 -96 q 846 -96 882 -96 q 794 -96 810 -96 q 648 -76 700 -96 q 575 -9 596 -57 q 554 124 554 39 l 554 614 q 508 579 532 596 q 458 546 483 563 q 412 613 443 575 q 354 674 381 651 l 354 -122 l 196 -122 l 196 585 q 156 534 176 558 q 114 486 135 510 q 90 540 106 507 q 56 606 74 572 q 24 658 38 639 q 144 806 86 722 q 251 986 201 890 q 333 1181 300 1082 z "},"伪":{"ha":1389,"x_min":19,"x_max":1308,"o":"m 339 1175 l 501 1125 l 469 1047 l 594 1104 q 665 1010 629 1063 q 718 918 700 958 l 565 847 q 522 935 551 883 q 461 1029 492 986 q 417 936 440 982 q 368 846 393 890 l 368 -122 l 208 -122 l 208 601 q 111 488 160 539 q 88 541 104 508 q 53 606 71 574 q 19 658 35 639 q 143 803 83 721 q 253 981 203 886 q 339 1175 304 1076 m 732 1158 l 904 1158 q 901 1001 903 1082 q 894 835 900 919 l 1308 835 q 1308 820 1308 835 q 1307 788 1307 806 q 1306 758 1307 769 q 1293 419 1300 558 q 1278 188 1286 279 q 1256 44 1269 96 q 1225 -33 1243 -8 q 1170 -84 1199 -69 q 1104 -106 1142 -99 q 1017 -111 1069 -111 q 907 -110 964 -111 q 890 -27 904 -74 q 856 54 876 19 q 953 48 908 49 q 1021 47 997 47 q 1074 69 1056 47 q 1101 153 1090 89 q 1120 344 1113 218 q 1133 671 1128 471 l 879 671 q 867 587 874 629 q 851 503 861 544 l 946 551 q 1005 474 975 517 q 1060 391 1035 432 q 1100 317 1086 350 l 953 233 q 904 329 936 274 q 836 436 872 385 q 716 128 796 274 q 497 -129 636 -18 q 440 -65 475 -99 q 369 -8 406 -31 q 552 185 483 76 q 658 417 621 293 q 711 671 696 542 l 450 671 l 450 835 l 725 835 q 730 1001 729 919 q 732 1158 731 1082 z "},"伯":{"ha":1389,"x_min":31,"x_max":1254,"o":"m 799 1181 l 996 1150 q 952 1039 975 1094 q 907 933 929 983 l 1254 933 l 1254 -111 l 1081 -111 l 1081 -54 l 679 -54 l 679 -121 l 514 -121 l 514 933 l 731 933 q 769 1059 751 993 q 799 1181 788 1125 m 679 363 l 679 113 l 1081 113 l 1081 363 l 679 363 m 679 526 l 1081 526 l 1081 775 l 679 775 l 679 526 m 354 1176 l 513 1139 q 456 968 488 1053 q 385 804 424 883 l 385 -126 l 219 -126 l 219 533 q 176 481 199 506 q 131 432 154 456 q 103 479 121 450 q 65 538 85 508 q 31 585 46 567 q 224 844 140 688 q 354 1176 307 1000 z "},"估":{"ha":1389,"x_min":19,"x_max":1347,"o":"m 336 1175 l 493 1125 q 430 976 465 1051 q 354 828 394 900 l 354 -122 l 196 -122 l 196 583 q 108 479 153 528 q 85 533 101 500 q 51 600 69 567 q 19 653 33 633 q 141 799 82 715 q 251 980 200 883 q 336 1175 301 1076 m 457 896 l 804 896 l 804 1181 l 978 1181 l 978 896 l 1347 896 l 1347 736 l 978 736 l 978 493 l 1269 493 l 1269 -119 l 1097 -119 l 1097 -65 l 685 -65 l 685 -125 l 519 -125 l 519 493 l 804 493 l 804 736 l 457 736 l 457 896 m 685 92 l 1097 92 l 1097 336 l 685 336 l 685 92 z "},"伴":{"ha":1389,"x_min":17,"x_max":1350,"o":"m 493 1058 l 633 1111 q 681 1013 658 1065 q 722 910 704 960 q 749 821 740 860 l 599 761 q 576 851 592 800 q 538 957 560 903 q 493 1058 517 1011 m 1150 1121 l 1321 1063 q 1244 903 1283 983 q 1171 767 1204 824 l 1035 821 q 1077 913 1056 861 q 1118 1020 1099 965 q 1150 1121 1138 1075 m 442 400 l 808 400 l 808 586 l 499 586 l 499 740 l 808 740 l 808 1161 l 976 1161 l 976 740 l 1293 740 l 1293 586 l 976 586 l 976 400 l 1350 400 l 1350 246 l 976 246 l 976 -125 l 808 -125 l 808 246 l 442 246 l 442 400 m 354 1176 l 508 1126 q 449 991 482 1060 q 378 857 415 922 l 378 -121 l 219 -121 l 219 617 q 104 485 164 544 q 81 538 97 506 q 48 603 65 571 q 17 656 31 636 q 146 801 83 718 q 263 981 208 885 q 354 1176 317 1078 z "},"伶":{"ha":1389,"x_min":19,"x_max":1350,"o":"m 722 708 l 853 779 q 931 697 892 743 q 992 619 969 651 l 857 535 q 797 619 835 569 q 722 708 758 668 m 819 1185 l 978 1131 l 951 1079 q 1066 935 1000 1007 q 1206 802 1132 864 q 1350 697 1279 740 q 1285 633 1321 674 q 1228 561 1250 593 q 1042 731 1136 629 q 874 947 949 833 q 694 730 794 829 q 475 554 594 631 q 444 596 464 572 q 401 643 424 619 q 360 681 379 667 l 360 -122 l 193 -122 l 193 579 q 151 528 172 553 q 108 479 131 503 q 85 533 101 500 q 51 600 69 567 q 19 653 33 633 q 141 799 82 715 q 251 980 200 883 q 336 1175 301 1076 l 493 1125 q 360 838 439 981 l 360 685 q 547 824 460 743 q 705 997 635 904 q 819 1185 775 1090 m 507 524 l 1133 524 l 1161 533 l 1282 454 q 1189 326 1243 392 q 1076 200 1135 261 q 961 88 1017 139 q 1038 35 1001 61 q 1100 -12 1074 10 l 978 -128 q 896 -62 944 -99 q 791 15 847 -25 q 678 93 735 54 q 572 165 621 132 l 686 265 l 822 178 q 922 269 871 218 q 1018 371 974 319 l 507 371 l 507 524 z "},"伸":{"ha":1389,"x_min":13,"x_max":1321,"o":"m 799 810 l 607 810 l 607 685 l 799 685 l 799 810 m 451 961 l 799 961 l 799 1174 l 963 1174 l 963 961 l 1321 961 l 1321 206 l 1157 206 l 1157 263 l 963 263 l 963 -124 l 799 -124 l 799 263 l 607 263 l 607 192 l 451 192 l 451 961 m 963 810 l 963 685 l 1157 685 l 1157 810 l 963 810 m 799 540 l 607 540 l 607 414 l 799 414 l 799 540 m 963 540 l 963 414 l 1157 414 l 1157 540 l 963 540 m 329 1175 l 486 1125 q 426 981 460 1053 q 354 839 393 908 l 354 -122 l 196 -122 l 196 592 q 149 533 174 561 q 101 479 125 504 q 78 533 94 500 q 44 600 63 567 q 13 653 26 633 q 135 799 76 715 q 244 980 194 883 q 329 1175 294 1076 z "},"伺":{"ha":1389,"x_min":19,"x_max":1304,"o":"m 468 864 l 1058 864 l 1058 719 l 468 719 l 468 864 m 486 1110 l 1304 1110 l 1304 74 q 1288 -34 1304 6 q 1228 -93 1271 -74 q 1122 -119 1186 -114 q 964 -125 1058 -125 q 942 -38 958 -89 q 908 46 926 13 q 1025 42 968 42 q 1103 42 1082 42 q 1129 50 1122 43 q 1136 75 1136 57 l 1136 960 l 486 960 l 486 1110 m 656 483 l 656 293 l 846 293 l 846 483 l 656 483 m 501 624 l 1000 624 l 1000 153 l 656 153 l 656 57 l 501 57 l 501 624 m 328 1175 l 482 1125 q 422 980 456 1053 q 351 838 389 907 l 351 -122 l 192 -122 l 192 583 q 149 529 171 556 q 106 479 128 503 q 83 533 99 500 q 50 600 67 567 q 19 653 33 633 q 138 799 81 715 q 245 980 196 883 q 328 1175 294 1076 z "},"似":{"ha":1389,"x_min":17,"x_max":1363,"o":"m 672 1003 l 811 1053 q 877 903 844 983 q 935 746 910 822 q 974 610 961 669 l 822 551 q 789 689 813 611 q 735 849 765 767 q 672 1003 704 931 m 1069 1144 l 1236 1142 q 1215 772 1231 944 q 1167 451 1199 599 q 1244 290 1206 375 q 1315 126 1283 206 q 1363 -15 1346 47 l 1208 -89 q 1165 56 1194 -28 q 1100 224 1136 139 q 1001 35 1058 122 q 864 -121 943 -51 q 828 -83 853 -106 q 775 -36 803 -60 q 728 0 747 -12 q 898 194 832 81 q 1000 452 964 307 q 1051 771 1036 597 q 1069 1144 1065 944 m 292 1178 l 446 1132 q 397 995 424 1064 q 339 860 371 926 l 339 -124 l 181 -124 l 181 572 q 139 513 160 542 q 96 460 118 485 q 76 515 90 481 q 45 583 61 549 q 17 640 29 618 q 124 792 72 706 q 218 977 175 878 q 292 1178 261 1076 m 488 1086 l 650 1086 l 650 278 l 847 401 q 873 327 857 368 q 903 261 889 286 q 695 121 771 174 q 581 38 619 68 q 525 -10 543 8 l 508 -29 q 485 19 501 -10 q 453 76 469 47 q 424 121 436 104 q 467 172 446 136 q 488 256 488 208 l 488 1086 z "},"佃":{"ha":1389,"x_min":15,"x_max":1289,"o":"m 800 124 l 800 454 l 644 454 l 644 124 l 800 124 m 961 124 l 1124 124 l 1124 454 l 961 454 l 961 124 m 486 1099 l 1289 1099 l 1289 -112 l 1124 -112 l 1124 -39 l 644 -39 l 644 -124 l 486 -124 l 486 1099 m 800 615 l 800 936 l 644 936 l 644 615 l 800 615 m 961 615 l 1124 615 l 1124 936 l 961 936 l 961 615 m 332 1175 l 486 1125 q 422 974 458 1050 q 346 825 386 899 l 346 -122 l 186 -122 l 186 582 q 144 531 165 556 q 101 483 124 506 q 79 535 94 503 q 47 601 64 568 q 15 653 29 633 q 137 800 78 717 q 247 980 196 883 q 332 1175 297 1076 z "},"但":{"ha":1389,"x_min":22,"x_max":1351,"o":"m 442 78 l 1351 78 l 1351 -78 l 442 -78 l 442 78 m 713 578 l 713 368 l 1069 368 l 1069 578 l 713 578 m 713 936 l 713 732 l 1069 732 l 1069 936 l 713 936 m 539 1092 l 1250 1092 l 1250 214 l 539 214 l 539 1092 m 350 1175 l 511 1122 q 375 835 454 975 l 375 -122 l 210 -122 l 210 583 q 162 526 186 553 q 114 474 138 499 q 91 529 107 494 q 56 599 75 564 q 22 654 38 633 q 149 800 88 717 q 262 980 210 883 q 350 1175 314 1076 z "},"位":{"ha":1389,"x_min":42,"x_max":1328,"o":"m 585 706 l 736 740 q 776 544 757 649 q 810 344 796 440 q 832 176 825 247 l 668 131 q 650 302 663 203 q 621 507 638 401 q 585 706 604 613 m 768 1161 l 926 1200 q 966 1091 946 1150 q 997 988 986 1032 l 851 946 l 1281 946 l 1281 785 l 504 785 l 504 946 l 831 946 q 803 1051 822 990 q 768 1161 785 1111 m 453 92 l 939 92 q 985 297 963 183 q 1025 527 1007 410 q 1051 746 1043 644 l 1226 718 q 1188 502 1210 614 q 1140 285 1165 390 q 1090 92 1115 179 l 1328 92 l 1328 -69 l 453 -69 l 453 92 m 360 1175 l 517 1125 q 458 985 490 1056 q 388 846 425 914 l 388 -122 l 219 -122 l 219 585 q 131 479 175 526 q 108 533 124 500 q 74 600 92 567 q 42 653 56 633 q 165 799 106 715 q 274 980 224 883 q 360 1175 325 1076 z "},"低":{"ha":1389,"x_min":29,"x_max":1363,"o":"m 786 193 l 904 229 q 950 130 926 183 q 994 26 974 76 q 1028 -61 1015 -24 l 903 -107 q 874 -17 893 -68 q 831 90 854 35 q 786 193 808 146 m 332 1175 l 489 1128 q 436 990 465 1060 q 375 853 407 921 l 375 -122 l 215 -122 l 215 572 q 167 506 192 538 q 118 446 143 474 q 95 500 111 467 q 62 567 79 533 q 29 621 44 600 q 147 778 90 689 q 251 969 204 867 q 332 1175 299 1071 m 510 -132 q 488 -62 504 -103 q 456 1 471 -21 q 493 31 475 11 q 511 93 511 51 l 513 1031 l 511 1032 q 753 1072 632 1049 q 984 1124 875 1096 q 1174 1182 1093 1151 l 1308 1047 q 1190 1012 1253 1029 q 1063 979 1128 994 q 1069 817 1065 897 q 1078 664 1072 738 l 1328 664 l 1328 510 l 1093 510 q 1125 290 1107 385 q 1165 142 1143 194 q 1207 88 1186 89 q 1231 131 1221 86 q 1246 257 1240 175 q 1282 222 1260 240 q 1327 189 1304 204 q 1363 167 1350 174 q 1319 -7 1346 54 q 1263 -90 1293 -68 q 1206 -112 1233 -112 q 1077 -35 1131 -111 q 989 181 1024 42 q 933 510 954 321 l 667 510 l 667 79 l 813 111 q 812 37 811 79 q 815 -32 813 -6 q 639 -81 700 -62 q 551 -111 578 -100 q 510 -132 524 -122 m 919 664 q 911 801 915 731 q 904 946 907 871 q 785 924 844 935 q 667 906 725 914 l 667 664 l 919 664 z "},"住":{"ha":1389,"x_min":31,"x_max":1351,"o":"m 450 78 l 821 78 l 821 357 l 526 357 l 526 514 l 821 514 l 821 760 l 482 760 l 482 918 l 856 918 q 815 1023 842 963 q 758 1135 789 1083 l 911 1186 q 975 1075 943 1136 q 1021 969 1007 1014 l 881 918 l 1331 918 l 1331 760 l 990 760 l 990 514 l 1292 514 l 1292 357 l 990 357 l 990 78 l 1351 78 l 1351 -81 l 450 -81 l 450 78 m 349 1175 l 510 1124 q 449 978 483 1051 q 376 833 415 904 l 376 -122 l 208 -122 l 208 575 q 166 524 188 549 q 122 475 144 499 q 99 530 115 496 q 64 598 82 564 q 31 653 46 632 q 153 799 94 715 q 263 980 213 883 q 349 1175 314 1076 z "},"佐":{"ha":1389,"x_min":17,"x_max":1349,"o":"m 354 1176 l 508 1126 q 449 991 482 1060 q 378 857 415 922 l 378 165 q 540 425 474 275 q 649 753 606 575 l 436 753 l 436 910 l 683 910 q 704 1035 694 971 q 722 1164 714 1099 l 893 1146 q 875 1026 885 1086 q 854 910 865 967 l 1349 910 l 1349 753 l 821 753 q 794 646 808 699 q 764 543 779 593 l 1317 543 l 1317 389 l 1076 389 l 1076 76 l 1349 76 l 1349 -81 l 604 -81 l 604 76 l 911 76 l 911 389 l 724 389 l 724 426 q 617 197 676 303 q 482 4 557 90 q 437 55 468 24 q 378 111 406 86 l 378 -121 l 219 -121 l 219 617 q 104 485 164 544 q 81 538 97 506 q 48 603 65 571 q 17 656 31 636 q 146 801 83 718 q 263 981 208 885 q 354 1176 317 1078 z "},"佑":{"ha":1389,"x_min":17,"x_max":1351,"o":"m 786 1174 l 961 1149 q 940 1031 951 1090 q 913 913 928 972 l 1351 913 l 1351 753 l 868 753 q 828 639 850 696 q 782 529 807 582 l 1299 529 l 1299 -104 l 1131 -104 l 1131 -39 l 804 -39 l 804 -117 l 644 -117 l 644 299 q 575 217 613 256 q 496 143 538 178 q 445 211 478 171 q 388 275 413 251 q 572 486 497 361 q 693 753 646 611 l 436 753 l 436 913 l 738 913 q 786 1174 769 1047 m 804 115 l 1131 115 l 1131 375 l 804 375 l 804 115 m 354 1178 l 508 1128 q 449 992 482 1061 q 378 858 415 924 l 378 -121 l 219 -121 l 219 618 q 104 486 164 546 q 81 540 97 507 q 48 605 65 572 q 17 657 31 638 q 146 803 83 719 q 263 983 208 886 q 354 1178 317 1079 z "},"体":{"ha":1389,"x_min":18,"x_max":1372,"o":"m 308 1175 l 465 1126 q 414 992 443 1060 q 353 858 385 924 l 353 -122 l 194 -122 l 194 588 q 153 530 174 557 q 110 479 132 503 q 87 533 103 500 q 52 599 71 565 q 18 653 33 632 q 131 801 76 717 q 231 981 185 885 q 308 1175 276 1076 m 433 932 l 786 932 l 786 1174 l 949 1174 l 949 932 l 1333 932 l 1333 774 l 1032 774 q 1124 562 1071 667 q 1241 367 1178 457 q 1372 214 1304 278 q 1306 155 1343 193 q 1247 85 1269 117 q 1136 232 1189 147 l 1136 110 l 949 110 l 949 -114 l 786 -114 l 786 110 l 603 110 l 603 238 q 479 81 544 149 q 423 147 458 110 q 360 207 388 185 q 496 361 431 271 q 615 558 561 451 q 708 774 669 664 l 433 774 l 433 932 m 786 258 l 786 610 q 617 258 714 415 l 786 258 m 949 258 l 1119 258 q 1028 432 1071 339 q 949 624 985 525 l 949 258 z "},"何":{"ha":1389,"x_min":33,"x_max":1349,"o":"m 488 1060 l 1349 1060 l 1349 901 l 1264 901 l 1264 72 q 1247 -38 1264 0 q 1185 -96 1229 -76 q 1068 -120 1139 -114 q 900 -125 997 -126 q 879 -40 896 -89 q 844 44 863 8 q 934 42 890 43 q 1012 40 978 40 q 1060 40 1046 40 q 1089 48 1081 40 q 1097 74 1097 56 l 1097 901 l 488 901 l 488 1060 m 661 607 l 661 389 l 815 389 l 815 607 l 661 607 m 504 750 l 969 750 l 969 244 l 661 244 l 661 154 l 504 154 l 504 750 m 344 1182 l 501 1132 q 449 1003 478 1068 q 386 876 419 939 l 386 -121 l 219 -121 l 219 610 q 172 549 196 578 q 122 493 147 519 q 99 547 115 514 q 66 613 83 579 q 33 667 49 646 q 153 812 96 729 q 260 990 211 894 q 344 1182 310 1085 z "},"佘":{"ha":1389,"x_min":21,"x_max":1375,"o":"m 328 308 l 486 258 q 359 81 435 168 q 210 -67 283 -7 q 170 -31 194 -51 q 120 8 146 -11 q 75 38 94 26 q 217 159 149 86 q 328 308 285 232 m 885 240 l 1022 311 q 1122 215 1069 268 q 1220 108 1174 161 q 1296 13 1267 56 l 1147 -68 q 1078 28 1122 -26 q 983 138 1033 82 q 885 240 932 194 m 149 501 l 1242 501 l 1242 354 l 779 354 l 779 36 q 764 -52 779 -21 q 707 -101 749 -83 q 610 -122 665 -118 q 482 -125 556 -125 q 458 -51 475 -92 q 424 21 440 -10 q 519 19 471 19 q 582 18 568 18 q 610 42 610 18 l 610 354 l 149 354 l 149 501 m 688 1199 l 818 1131 l 793 1096 q 1081 879 935 961 q 1375 742 1228 797 q 1313 674 1344 715 q 1264 594 1281 633 q 1132 660 1197 625 q 1001 736 1067 694 l 1001 601 l 392 601 l 392 728 q 263 651 328 686 q 132 585 197 615 q 83 658 114 618 q 21 728 53 699 q 274 847 149 776 q 507 1006 400 917 q 688 1199 614 1094 m 421 747 l 985 747 q 842 852 914 794 q 697 982 771 910 q 566 858 636 917 q 421 747 496 799 z "},"余":{"ha":1389,"x_min":19,"x_max":1374,"o":"m 872 201 l 1011 283 q 1117 196 1061 244 q 1222 99 1172 147 q 1303 11 1272 50 l 1153 -82 q 1078 7 1125 -43 q 976 108 1031 57 q 872 201 922 158 m 340 281 l 496 222 q 403 110 456 167 q 295 4 351 54 q 188 -83 239 -46 q 150 -47 174 -68 q 103 -4 126 -25 q 60 29 79 17 q 214 144 138 76 q 340 281 290 213 m 689 1194 l 817 1124 l 792 1093 q 1080 879 933 960 q 1374 746 1226 799 q 1312 679 1343 719 q 1263 600 1281 639 q 1047 710 1156 647 l 1047 611 l 783 611 l 783 483 l 1260 483 l 1260 328 l 783 328 l 783 56 q 767 -42 783 -7 q 708 -97 751 -78 q 608 -121 665 -115 q 472 -126 550 -126 q 446 -44 467 -90 q 406 35 425 3 q 509 33 458 33 q 576 32 560 32 q 600 39 593 33 q 607 58 607 44 l 607 328 l 146 328 l 146 483 l 607 483 l 607 611 l 331 611 l 331 700 q 132 589 228 636 q 82 662 113 622 q 19 732 51 701 q 267 851 142 781 q 502 1009 392 922 q 689 1194 613 1096 m 424 761 l 965 761 q 831 860 899 806 q 692 983 763 915 q 564 867 632 924 q 424 761 496 811 z "},"佛":{"ha":1389,"x_min":13,"x_max":1328,"o":"m 661 1164 l 807 1164 l 807 975 l 903 975 l 903 1163 l 1049 1163 l 1049 975 l 1288 975 l 1288 561 l 1049 561 l 1049 435 l 1328 435 q 1328 416 1328 435 q 1326 382 1328 397 q 1317 144 1325 222 q 1290 39 1310 65 q 1256 8 1274 18 q 1214 -6 1238 -1 q 1160 -11 1193 -10 q 1090 -11 1128 -12 q 1080 61 1089 22 q 1057 126 1071 100 q 1101 123 1081 124 q 1132 122 1121 122 q 1164 135 1151 121 q 1176 181 1172 146 q 1181 293 1179 217 l 1049 293 l 1049 -124 l 903 -124 l 903 293 l 794 293 q 749 124 782 203 q 653 -21 715 44 q 490 -133 592 -86 q 444 -76 475 -110 q 390 -24 414 -42 q 568 114 511 32 q 644 293 625 196 l 392 293 q 416 418 404 349 q 438 562 428 488 q 456 703 449 636 l 661 703 l 661 833 l 438 833 l 438 975 l 661 975 l 661 1164 m 582 561 l 564 435 l 660 435 l 661 490 l 661 561 l 582 561 m 903 561 l 807 561 l 807 490 l 806 435 l 903 435 l 903 561 m 903 833 l 807 833 l 807 703 l 903 703 l 903 833 m 1049 833 l 1049 703 l 1142 703 l 1142 833 l 1049 833 m 329 1175 l 486 1125 q 426 981 460 1053 q 354 839 393 908 l 354 -122 l 196 -122 l 196 592 q 149 533 174 561 q 101 479 125 504 q 78 533 94 500 q 44 600 63 567 q 13 653 26 633 q 135 799 76 715 q 244 980 194 883 q 329 1175 294 1076 z "},"作":{"ha":1389,"x_min":31,"x_max":1350,"o":"m 717 1167 l 876 1125 q 845 1039 863 1082 q 808 953 828 996 l 1350 953 l 1350 794 l 954 794 l 954 649 l 1315 649 l 1315 497 l 954 497 l 954 340 l 1333 340 l 1333 185 l 954 185 l 954 -124 l 782 -124 l 782 794 l 731 794 q 642 647 688 717 q 547 524 596 578 q 511 561 535 539 q 463 606 488 583 q 419 640 438 628 q 538 788 482 703 q 639 969 593 872 q 717 1167 685 1067 m 349 1175 l 510 1124 q 449 978 483 1051 q 376 833 415 904 l 376 -122 l 208 -122 l 208 575 q 166 524 188 549 q 122 475 144 499 q 99 530 115 496 q 64 598 82 564 q 31 653 46 632 q 153 799 94 715 q 263 980 213 883 q 349 1175 314 1076 z "},"你":{"ha":1389,"x_min":13,"x_max":1349,"o":"m 588 558 l 750 525 q 669 267 719 392 q 560 57 619 143 q 519 88 544 71 q 466 122 493 106 q 418 147 439 138 q 521 332 478 221 q 588 558 564 443 m 1032 522 l 1181 572 q 1247 419 1217 501 q 1301 259 1278 338 q 1333 118 1324 181 l 1174 63 q 1145 205 1167 125 q 1094 368 1124 285 q 1032 522 1065 451 m 626 1175 l 790 1138 q 760 1033 776 1086 q 724 931 743 981 l 1204 931 l 1231 936 l 1349 914 q 1319 740 1336 829 q 1288 588 1303 650 l 1146 614 q 1157 688 1151 646 q 1168 776 1163 731 l 982 776 l 982 61 q 969 -35 982 1 q 918 -93 957 -72 q 831 -119 882 -112 q 713 -125 781 -125 q 691 -40 707 -89 q 656 42 675 8 q 740 40 700 40 q 793 40 779 40 q 817 64 817 40 l 817 776 l 656 776 q 592 661 625 715 q 524 563 560 607 q 485 599 510 578 q 434 640 460 619 q 389 672 408 660 q 530 896 468 761 q 626 1175 592 1031 m 329 1175 l 486 1125 q 426 981 460 1053 q 354 839 393 908 l 354 -122 l 196 -122 l 196 592 q 149 533 174 561 q 101 479 125 504 q 78 533 94 500 q 44 600 63 567 q 13 653 26 633 q 135 799 76 715 q 244 980 194 883 q 329 1175 294 1076 z "},"佣":{"ha":1389,"x_min":13,"x_max":1306,"o":"m 329 1175 l 486 1125 q 426 981 460 1053 q 354 839 393 908 l 354 -24 q 445 164 417 60 q 481 376 474 268 q 489 581 489 485 l 489 1074 l 1306 1074 l 1306 49 q 1294 -41 1306 -7 q 1249 -94 1283 -75 q 1167 -118 1215 -112 q 1051 -124 1118 -124 q 1035 -47 1049 -92 q 1007 29 1022 -1 q 1078 27 1043 28 q 1125 26 1113 26 q 1147 51 1147 26 l 1147 293 l 969 293 l 969 -107 l 813 -107 l 813 293 l 629 293 q 579 67 614 178 q 479 -129 544 -44 q 444 -94 467 -114 q 397 -57 421 -75 q 354 -29 372 -39 l 354 -122 l 196 -122 l 196 592 q 149 533 174 561 q 101 479 125 504 q 78 533 94 500 q 44 600 63 567 q 13 653 26 633 q 135 799 76 715 q 244 980 194 883 q 329 1175 294 1076 m 647 925 l 647 757 l 813 757 l 813 925 l 647 925 m 1147 925 l 969 925 l 969 757 l 1147 757 l 1147 925 m 647 610 l 647 581 q 643 439 647 514 l 813 439 l 813 610 l 647 610 m 1147 610 l 969 610 l 969 439 l 1147 439 l 1147 610 z "},"佩":{"ha":1389,"x_min":21,"x_max":1361,"o":"m 442 1113 l 1228 1113 q 1223 776 1225 938 q 1221 480 1221 615 q 1224 243 1221 344 q 1235 86 1226 142 q 1258 31 1243 31 q 1268 59 1264 31 q 1276 135 1272 88 q 1279 236 1279 182 q 1319 176 1296 208 q 1361 125 1343 144 q 1327 -64 1351 -6 q 1244 -122 1303 -122 q 1147 -42 1181 -122 q 1100 186 1113 39 q 1086 533 1088 333 q 1086 972 1085 733 l 578 972 l 578 754 q 573 551 578 664 q 554 319 568 439 q 513 85 540 199 q 442 -124 486 -29 q 409 -94 431 -111 q 365 -61 388 -76 q 326 -39 342 -46 q 390 151 367 49 q 424 360 413 254 q 438 568 435 467 q 442 754 442 669 l 442 1113 m 617 636 l 757 636 l 757 754 l 617 754 l 617 883 l 1035 883 l 1035 754 l 900 754 l 900 636 l 1042 636 l 1042 171 q 1035 118 1042 140 q 1011 82 1029 96 q 970 65 993 68 q 919 61 947 61 q 905 113 915 83 q 883 161 894 142 q 913 161 900 161 q 931 161 925 161 q 940 172 940 161 l 940 546 l 881 546 l 881 -112 l 776 -112 l 776 546 l 715 546 l 715 63 l 617 63 l 617 636 m 265 1175 l 414 1133 q 369 994 394 1065 q 315 854 344 924 l 315 -122 l 169 -122 l 169 564 q 97 458 133 504 q 78 513 92 479 q 49 582 65 547 q 21 638 33 617 q 163 881 99 738 q 265 1175 226 1024 z "},"佳":{"ha":1389,"x_min":29,"x_max":1347,"o":"m 336 1175 l 493 1126 q 434 982 467 1054 q 364 839 401 910 l 364 -124 l 199 -124 l 199 578 q 118 481 158 524 q 95 534 111 501 q 61 599 79 567 q 29 653 43 632 q 148 799 90 715 q 254 980 206 883 q 336 1175 303 1076 m 801 1181 l 971 1181 l 971 1025 l 1258 1025 l 1258 871 l 971 871 l 971 725 l 1322 725 l 1322 567 l 458 567 l 458 725 l 801 725 l 801 871 l 524 871 l 524 1025 l 801 1025 l 801 1181 m 801 528 l 971 528 l 971 404 l 1286 404 l 1286 247 l 971 247 l 971 81 l 1347 81 l 1347 -79 l 417 -79 l 417 81 l 801 81 l 801 247 l 496 247 l 496 404 l 801 404 l 801 528 z "},"使":{"ha":1389,"x_min":18,"x_max":1368,"o":"m 356 1183 l 510 1133 l 471 1043 l 811 1043 l 811 1171 l 976 1171 l 976 1043 l 1346 1043 l 1346 893 l 976 893 l 976 794 l 1310 794 l 1310 386 l 968 386 q 941 260 960 321 q 889 143 922 199 q 1107 68 986 97 q 1368 26 1228 39 q 1313 -44 1342 0 q 1269 -122 1285 -89 q 792 25 986 -85 q 670 -58 740 -21 q 506 -124 600 -96 q 478 -80 496 -106 q 441 -28 461 -54 q 403 14 421 -3 q 550 60 488 33 q 657 121 613 88 q 485 331 556 210 l 621 371 q 679 295 646 331 q 751 228 713 260 q 784 304 772 264 q 801 386 796 344 l 490 386 l 490 794 l 811 794 l 811 893 l 461 893 l 461 1022 q 422 942 443 982 q 378 861 401 901 l 378 -128 l 219 -128 l 219 622 q 106 492 164 550 q 83 545 99 513 q 49 610 67 578 q 18 663 32 643 q 147 808 85 725 q 264 988 210 892 q 356 1183 318 1085 m 642 660 l 642 522 l 811 522 l 811 539 l 811 660 l 642 660 m 976 660 l 976 538 l 976 522 l 1150 522 l 1150 660 l 976 660 z "},"侄":{"ha":1389,"x_min":31,"x_max":1344,"o":"m 813 553 l 981 553 l 981 404 l 1285 404 l 1285 256 l 981 256 l 981 71 l 1344 71 l 1344 -79 l 435 -79 l 435 71 l 813 71 l 813 256 l 515 256 l 515 404 l 813 404 l 813 553 m 507 550 q 493 602 503 571 q 472 663 483 633 q 453 711 461 693 q 506 727 476 717 q 554 758 535 738 q 593 805 568 772 q 648 879 618 838 q 703 958 678 921 l 485 958 l 485 1108 l 1314 1108 l 1314 958 l 894 958 q 819 847 860 907 q 742 735 779 788 l 1068 753 q 1032 811 1050 782 q 996 867 1014 840 l 1135 932 q 1212 818 1172 879 q 1285 699 1251 757 q 1339 593 1319 640 l 1189 517 q 1170 563 1181 538 q 1144 614 1160 588 q 885 595 990 603 q 713 582 781 588 q 606 572 646 576 q 544 562 567 567 q 507 550 522 557 m 324 1175 l 481 1128 q 423 982 454 1056 q 356 838 392 908 l 356 -122 l 190 -122 l 190 567 q 155 522 172 544 q 119 481 138 500 q 97 533 113 500 q 63 600 81 567 q 31 653 46 633 q 144 801 89 717 q 245 981 199 885 q 324 1175 292 1076 z "},"侈":{"ha":1389,"x_min":19,"x_max":1342,"o":"m 338 1175 l 497 1125 q 435 972 469 1049 q 360 819 400 894 l 360 -122 l 197 -122 l 197 563 q 153 506 175 533 q 107 454 131 479 q 84 510 100 475 q 51 579 68 544 q 19 635 33 614 q 142 787 83 700 q 252 973 201 874 q 338 1175 303 1072 m 710 243 l 838 325 q 905 287 869 308 q 971 243 940 265 q 1049 320 1014 279 q 1114 408 1085 361 l 857 408 q 546 199 728 292 q 497 263 528 226 q 438 318 465 300 q 661 445 565 374 q 821 590 757 517 q 663 528 744 556 q 499 479 582 500 q 463 546 486 507 q 415 608 439 585 q 583 653 500 626 q 743 714 667 679 q 689 752 717 733 q 635 785 661 771 l 767 864 q 826 831 794 850 q 885 793 857 813 q 966 855 928 822 q 1035 922 1004 888 l 763 922 q 521 754 661 832 q 471 816 503 782 q 413 868 439 850 q 646 1017 549 933 q 799 1181 743 1100 l 967 1144 q 932 1099 950 1122 q 894 1054 914 1076 l 1139 1054 l 1167 1061 l 1275 1001 q 1133 805 1219 890 q 939 654 1046 719 l 1051 631 q 989 547 1022 589 l 1200 547 l 1229 554 l 1342 500 q 1145 188 1272 313 q 850 -14 1018 63 q 488 -132 682 -90 q 452 -62 475 -100 q 406 3 429 -24 q 635 60 525 24 q 842 151 746 96 q 710 243 779 203 z "},"例":{"ha":1389,"x_min":26,"x_max":1301,"o":"m 925 1032 l 1071 1032 l 1071 232 l 925 232 l 925 1032 m 1147 1167 l 1301 1167 l 1301 76 q 1286 -27 1301 8 q 1232 -82 1271 -62 q 1129 -108 1193 -103 q 979 -114 1065 -114 q 959 -33 975 -81 q 928 49 943 14 q 1042 46 989 46 q 1114 46 1094 46 q 1140 53 1132 47 q 1147 78 1147 60 l 1147 1167 m 489 372 l 575 485 l 661 418 q 692 533 678 474 q 715 656 706 592 l 593 656 q 524 482 563 563 q 442 338 486 401 q 407 372 429 351 q 362 412 385 392 q 321 444 339 432 q 438 672 392 536 q 511 961 485 808 l 411 961 l 411 1115 l 886 1115 l 886 961 l 669 961 q 636 807 656 882 l 757 807 l 783 811 l 879 789 q 755 232 849 458 q 493 -122 661 6 q 448 -55 478 -93 q 392 6 418 -17 q 509 115 457 49 q 603 268 561 182 q 546 322 576 294 q 489 372 515 350 m 249 1178 l 397 1135 q 358 1010 379 1074 q 313 885 338 947 l 313 -122 l 157 -122 l 157 574 q 100 492 131 531 q 82 547 94 513 q 54 616 69 581 q 26 672 39 651 q 155 901 97 767 q 249 1178 213 1035 z "},"侍":{"ha":1389,"x_min":19,"x_max":1350,"o":"m 519 257 l 663 331 q 728 252 694 294 q 789 168 761 210 q 832 92 817 126 l 678 11 q 640 88 665 44 q 583 175 614 131 q 519 257 551 219 m 801 1174 l 972 1174 l 972 1022 l 1282 1022 l 1282 871 l 972 871 l 972 750 l 1350 750 l 1350 599 l 1168 599 l 1168 488 l 1338 488 l 1338 338 l 1168 338 l 1168 50 q 1153 -45 1168 -11 q 1094 -97 1138 -79 q 991 -119 1051 -115 q 849 -124 931 -124 q 828 -45 843 -89 q 796 32 813 -1 q 900 29 849 29 q 967 31 951 29 q 991 35 985 31 q 997 54 997 40 l 997 338 l 440 338 l 440 488 l 997 488 l 997 599 l 425 599 l 425 750 l 801 750 l 801 871 l 507 871 l 507 1022 l 801 1022 l 801 1174 m 336 1175 l 494 1125 q 430 974 465 1050 q 354 825 394 899 l 354 -122 l 196 -122 l 196 582 q 152 528 174 554 q 108 479 131 503 q 85 533 101 500 q 51 600 69 567 q 19 653 33 633 q 142 799 83 715 q 251 980 201 883 q 336 1175 301 1076 z "},"供":{"ha":1389,"x_min":21,"x_max":1344,"o":"m 664 253 l 819 204 q 691 26 768 113 q 540 -118 614 -61 q 503 -83 526 -103 q 454 -44 479 -64 q 410 -14 429 -25 q 552 106 483 35 q 664 253 621 178 m 968 181 l 1101 254 q 1192 158 1147 210 q 1274 57 1236 107 q 1338 -33 1313 7 l 1197 -122 q 1138 -27 1175 -81 q 1056 81 1100 26 q 968 181 1013 135 m 338 1178 l 494 1129 q 361 842 440 985 l 361 -122 l 197 -122 l 197 588 q 108 482 153 529 q 85 536 101 503 q 52 603 69 569 q 21 656 35 636 q 142 803 83 719 q 252 983 201 886 q 338 1178 303 1079 m 990 1172 l 1153 1172 l 1153 908 l 1333 908 l 1333 749 l 1153 749 l 1153 472 l 1344 472 l 1344 308 l 439 308 l 439 472 l 626 472 l 626 749 l 474 749 l 474 908 l 626 908 l 626 1169 l 789 1169 l 789 908 l 990 908 l 990 1172 m 789 749 l 789 472 l 990 472 l 990 749 l 789 749 z "},"依":{"ha":1389,"x_min":29,"x_max":1363,"o":"m 336 1176 l 493 1126 q 354 821 436 971 l 354 451 q 543 601 451 514 q 707 785 635 688 l 426 785 l 426 940 l 825 940 q 792 1035 814 981 q 747 1135 769 1089 l 897 1183 q 951 1078 925 1136 q 989 978 978 1019 l 885 940 l 1326 940 l 1326 785 l 918 785 q 1021 489 958 632 q 1125 583 1074 533 q 1213 676 1176 633 l 1336 560 q 1211 458 1276 510 q 1086 364 1146 406 q 1213 186 1143 267 q 1363 51 1282 106 q 1298 -12 1333 28 q 1242 -86 1263 -53 q 978 223 1086 32 q 801 644 871 414 q 761 594 782 619 q 718 546 740 569 l 718 101 l 938 169 q 946 94 939 136 q 958 25 953 53 q 768 -40 842 -14 q 653 -83 694 -67 q 590 -109 611 -99 q 556 -129 568 -119 q 534 -90 549 -112 q 502 -45 519 -67 q 471 -11 485 -24 q 525 47 496 8 q 554 140 554 85 l 554 388 q 495 340 525 363 q 436 296 465 317 q 401 347 424 315 q 354 404 378 378 l 354 -124 l 196 -124 l 196 574 q 158 525 178 549 q 118 481 138 501 q 95 534 111 501 q 61 600 79 567 q 29 654 43 633 q 148 801 90 718 q 254 981 206 885 q 336 1176 303 1078 z "},"侠":{"ha":1389,"x_min":21,"x_max":1369,"o":"m 499 783 l 636 828 q 692 709 665 774 q 728 599 718 644 l 582 547 q 550 661 574 594 q 499 783 526 728 m 1128 825 l 1289 771 q 1220 650 1254 711 q 1157 549 1186 589 l 1035 596 q 1086 708 1058 643 q 1128 825 1114 774 m 804 1164 l 974 1164 l 974 1001 l 1311 1001 l 1311 849 l 974 849 l 974 653 q 972 592 974 622 q 968 531 971 563 l 1336 531 l 1336 378 l 989 378 q 1139 157 1044 251 q 1369 14 1233 63 q 1309 -51 1342 -10 q 1257 -126 1276 -93 q 1043 19 1132 -72 q 893 233 954 111 q 750 35 843 128 q 503 -131 657 -58 q 472 -87 492 -112 q 428 -37 451 -62 q 386 3 406 -12 q 584 109 507 50 q 706 237 661 168 q 772 378 751 306 l 428 378 l 428 531 l 800 531 q 804 654 804 593 l 804 849 l 471 849 l 471 1001 l 804 1001 l 804 1164 m 331 1178 l 485 1129 q 428 989 460 1060 q 360 849 396 918 l 360 -128 l 199 -128 l 199 590 q 153 532 176 560 q 107 479 131 504 q 85 533 100 500 q 53 599 71 565 q 21 653 36 632 q 141 801 83 717 q 248 982 199 885 q 331 1178 297 1079 z "},"侣":{"ha":1389,"x_min":25,"x_max":1264,"o":"m 672 983 l 672 776 l 1054 776 l 1054 983 l 672 983 m 517 1129 l 1218 1129 l 1218 628 l 517 628 l 517 1129 m 301 1178 l 456 1132 q 409 1002 435 1068 q 354 871 383 936 l 354 -124 l 190 -124 l 190 572 q 149 513 169 542 q 106 460 128 485 q 85 515 100 481 q 55 583 71 549 q 25 640 39 618 q 133 792 82 706 q 228 977 185 878 q 301 1178 272 1076 m 454 494 l 1264 494 l 1264 -115 l 1090 -115 l 1090 -46 l 621 -46 l 621 -121 l 454 -121 l 454 494 m 621 106 l 1090 106 l 1090 343 l 621 343 l 621 106 z "},"侥":{"ha":1389,"x_min":22,"x_max":1353,"o":"m 1121 913 l 867 888 q 894 830 879 857 q 926 778 910 803 q 1035 840 985 807 q 1121 913 1085 874 m 628 1171 l 796 1171 q 804 1101 799 1136 q 818 1031 810 1065 l 1276 1074 l 1290 929 l 1147 915 l 1279 860 q 1163 758 1228 804 q 1025 671 1099 711 q 1149 624 1085 624 q 1188 645 1176 624 q 1206 726 1200 667 q 1267 687 1231 704 q 1335 661 1303 669 q 1299 543 1322 583 q 1238 488 1276 503 q 1142 474 1200 474 q 995 507 1065 474 q 864 599 925 540 q 678 536 774 564 q 486 489 582 508 q 461 533 478 507 q 426 585 444 560 q 393 626 408 611 q 588 663 492 642 q 772 715 683 685 q 730 790 750 751 q 694 871 710 828 l 426 844 l 413 993 l 651 1015 q 637 1092 643 1053 q 628 1171 631 1132 m 381 433 l 1311 433 l 1311 289 l 1085 289 l 1085 71 q 1090 36 1085 43 q 1111 29 1094 29 q 1141 29 1118 29 q 1174 29 1164 29 q 1197 51 1192 29 q 1206 149 1203 72 q 1275 116 1231 132 q 1353 93 1319 100 q 1306 -67 1342 -25 q 1193 -108 1269 -108 q 1135 -108 1172 -108 q 1079 -108 1099 -108 q 974 -92 1010 -108 q 924 -36 938 -75 q 911 69 911 3 l 911 289 l 782 289 q 740 108 772 188 q 638 -29 708 29 q 439 -128 567 -87 q 397 -56 426 -97 q 340 8 367 -15 q 497 73 442 35 q 578 165 553 111 q 611 289 603 218 l 381 289 l 381 433 m 294 1183 l 451 1135 q 400 997 429 1067 q 339 858 371 926 l 339 -122 l 181 -122 l 181 583 q 144 533 163 557 q 107 488 126 510 q 85 544 100 510 q 53 613 71 578 q 22 669 36 649 q 128 816 78 733 q 222 993 179 899 q 294 1183 265 1088 z "},"侦":{"ha":1389,"x_min":22,"x_max":1347,"o":"m 790 579 l 949 579 l 949 385 q 931 253 949 321 q 864 117 913 185 q 724 -11 815 50 q 489 -122 633 -72 q 445 -55 475 -94 q 388 8 415 -15 q 606 94 525 47 q 726 192 686 142 q 778 294 765 243 q 790 389 790 344 l 790 579 m 904 85 l 990 197 q 1117 138 1049 172 q 1247 69 1185 104 q 1347 3 1308 33 l 1256 -125 q 1158 -56 1218 -93 q 1031 19 1097 -18 q 904 85 964 57 m 485 793 l 756 793 l 756 1179 l 918 1179 l 918 1075 l 1306 1075 l 1306 925 l 918 925 l 918 793 l 1254 793 l 1254 206 l 1096 206 l 1096 646 l 636 646 l 636 201 l 485 201 l 485 793 m 340 1179 l 497 1131 q 360 835 440 982 l 360 -122 l 201 -122 l 201 590 q 111 483 158 532 q 88 538 104 504 q 55 604 72 571 q 22 657 38 638 q 145 803 86 719 q 255 984 204 888 q 340 1179 306 1081 z "},"侧":{"ha":1389,"x_min":26,"x_max":1297,"o":"m 651 117 l 749 182 q 817 106 782 147 q 882 26 851 65 q 929 -46 913 -14 l 826 -118 q 781 -45 810 -86 q 717 38 751 -4 q 651 117 683 81 m 381 1097 l 893 1097 l 893 200 l 760 200 l 760 981 l 510 981 l 510 192 l 381 192 l 381 1097 m 1161 1163 l 1297 1163 l 1297 44 q 1286 -43 1297 -11 q 1243 -92 1275 -75 q 1166 -115 1213 -110 q 1051 -121 1119 -121 q 1035 -52 1047 -93 q 1010 19 1024 -11 q 1088 18 1053 18 q 1138 18 1124 18 q 1161 43 1161 19 l 1161 1163 m 964 1050 l 1089 1050 l 1089 193 l 964 193 l 964 1050 m 574 911 l 694 911 l 694 394 q 685 252 694 325 q 647 109 675 179 q 565 -22 618 39 q 425 -128 513 -82 q 389 -77 415 -108 q 344 -32 363 -46 q 497 92 449 22 q 560 240 546 161 q 574 396 574 318 l 574 911 m 219 1179 l 361 1144 q 331 1027 347 1086 q 296 908 315 968 l 296 -119 l 163 -119 l 163 578 q 135 526 149 551 q 106 478 121 501 q 85 527 99 496 q 56 590 71 558 q 26 640 40 621 q 140 886 92 743 q 219 1179 189 1029 z "},"侨":{"ha":1389,"x_min":19,"x_max":1361,"o":"m 963 460 l 1096 460 q 1010 558 1050 506 q 938 664 969 610 l 824 664 q 656 460 754 546 l 769 460 l 769 394 q 749 219 769 314 q 676 34 729 125 q 524 -129 622 -57 q 488 -92 511 -114 q 440 -51 464 -71 q 397 -22 415 -32 q 536 114 490 40 q 597 261 582 188 q 611 397 611 335 l 611 424 q 454 328 542 371 q 430 372 446 346 q 395 424 414 399 q 361 465 376 450 q 633 664 532 536 l 413 664 l 413 814 l 724 814 q 751 881 739 846 q 772 951 763 915 q 656 944 714 947 q 543 939 599 942 q 527 1009 540 969 q 501 1076 514 1049 q 738 1094 617 1083 q 969 1122 858 1106 q 1163 1160 1079 1139 l 1256 1021 q 1106 990 1186 1003 q 940 968 1026 978 q 919 888 931 926 q 893 814 907 850 l 1315 814 l 1315 664 l 1106 664 q 1223 545 1156 600 q 1361 457 1290 490 q 1305 399 1336 435 q 1254 335 1274 363 q 1128 429 1188 374 l 1128 -121 l 963 -121 l 963 460 m 326 1175 l 478 1125 q 344 829 424 976 l 344 -124 l 192 -124 l 192 586 q 148 530 169 557 q 104 479 126 503 q 82 533 97 500 q 50 600 67 567 q 19 653 33 633 q 138 799 81 715 q 244 980 196 883 q 326 1175 293 1076 z "},"侮":{"ha":1389,"x_min":21,"x_max":1351,"o":"m 289 1178 l 443 1132 q 395 997 421 1065 q 339 860 369 928 l 339 -124 l 181 -124 l 181 567 q 142 510 163 538 q 101 460 121 483 q 81 515 94 481 q 51 583 67 549 q 21 640 35 618 q 126 792 76 706 q 218 977 176 878 q 289 1178 260 1076 m 785 626 l 829 657 l 713 657 l 696 525 l 890 525 q 841 578 869 551 q 785 626 813 604 m 599 1181 l 757 1142 q 739 1091 749 1117 q 718 1040 729 1065 l 1310 1040 l 1310 890 l 647 890 q 623 844 636 867 q 597 800 610 822 l 1264 800 q 1263 787 1264 800 q 1263 757 1263 774 q 1261 729 1263 740 l 1253 525 l 1351 525 l 1351 375 l 1243 375 l 1232 226 l 1317 226 l 1317 85 l 1214 85 q 1195 3 1206 33 q 1171 -44 1185 -28 q 1120 -91 1147 -78 q 1058 -110 1093 -104 q 981 -115 1028 -115 q 882 -112 933 -115 q 869 -44 881 -83 q 840 24 858 -4 q 925 19 886 19 q 985 18 964 18 q 1013 22 1001 18 q 1035 40 1024 26 q 1054 85 1047 54 l 475 85 q 500 220 488 146 q 524 375 513 294 l 400 375 l 400 525 l 544 525 q 558 644 551 585 q 569 758 564 703 q 541 716 556 736 q 511 678 526 696 q 471 708 496 692 q 419 741 446 725 q 372 767 392 757 q 503 953 443 842 q 599 1181 564 1065 m 747 340 l 796 375 l 678 375 l 657 226 l 869 226 q 813 286 846 256 q 747 340 779 317 m 910 657 q 965 606 939 633 q 1006 556 992 579 l 963 525 l 1100 525 l 1106 657 l 910 657 m 876 375 q 943 318 913 349 q 992 260 974 288 l 944 226 l 1078 226 q 1085 295 1082 258 q 1092 375 1089 332 l 876 375 z "},"侯":{"ha":1389,"x_min":39,"x_max":1360,"o":"m 535 1121 l 999 1121 l 1025 1128 l 1143 1114 q 1128 986 1138 1050 q 1108 864 1119 922 l 1328 864 l 1328 724 l 611 724 l 731 689 l 700 624 l 1254 624 l 1254 485 l 942 485 l 942 369 l 942 349 l 1324 349 l 1324 204 l 976 204 q 1104 96 1017 149 q 1360 15 1192 43 q 1308 -51 1333 -10 q 1272 -124 1283 -92 q 1012 -21 1107 -87 q 867 121 917 46 q 726 -14 818 51 q 481 -132 633 -79 q 433 -69 465 -106 q 374 -10 401 -32 q 614 90 531 35 q 733 204 697 146 l 408 204 l 408 349 l 776 349 l 776 374 l 776 485 l 617 485 q 572 422 594 451 q 526 368 549 392 q 464 413 504 388 q 396 453 424 439 q 499 576 450 504 q 579 724 549 649 l 417 724 l 417 864 l 947 864 l 965 982 l 535 982 l 535 1121 m 297 1175 l 451 1131 q 406 994 431 1063 q 351 858 381 925 l 351 -124 l 190 -124 l 190 553 q 155 502 172 526 q 119 456 138 478 q 99 510 114 476 q 69 579 85 544 q 39 635 53 614 q 188 880 119 736 q 297 1175 256 1024 z "},"侵":{"ha":1389,"x_min":24,"x_max":1336,"o":"m 436 590 l 1336 590 l 1336 354 l 1213 354 q 1131 205 1179 271 q 1021 88 1082 139 q 1169 42 1090 61 q 1333 11 1247 22 q 1280 -52 1307 -12 q 1238 -122 1253 -92 q 1048 -75 1138 -104 q 881 -4 958 -46 q 697 -78 796 -49 q 488 -126 597 -107 q 458 -56 478 -97 q 418 10 438 -15 q 588 40 507 21 q 742 86 669 58 q 583 260 649 160 l 647 282 l 575 282 l 575 354 l 436 354 l 436 590 m 575 408 l 1101 408 l 1126 414 l 1192 388 l 1192 474 l 575 474 l 575 408 m 574 951 l 1092 951 l 1092 1015 l 529 1015 l 529 1132 l 1247 1132 l 1247 649 l 529 649 l 529 767 l 1092 767 l 1092 832 l 574 832 l 574 951 m 1013 282 l 732 282 q 797 216 760 247 q 878 157 835 185 q 1013 282 958 208 m 340 1175 l 497 1125 q 363 835 443 978 l 363 -122 l 204 -122 l 204 589 q 159 531 182 558 q 113 479 136 504 q 90 533 106 500 q 56 600 74 567 q 24 653 38 633 q 145 799 86 715 q 255 980 204 883 q 340 1175 306 1076 z "},"便":{"ha":1389,"x_min":33,"x_max":1369,"o":"m 326 1175 l 483 1126 l 476 1108 l 1324 1108 l 1324 963 l 974 963 l 974 879 l 1290 879 l 1290 318 l 957 318 q 925 215 946 265 q 871 121 904 165 q 1099 67 974 86 q 1369 40 1225 47 q 1313 -34 1342 13 q 1268 -115 1283 -81 q 988 -74 1117 -103 q 753 3 860 -46 q 481 -126 650 -75 q 453 -81 471 -107 q 416 -31 436 -56 q 378 11 396 -6 q 606 86 517 40 q 438 250 508 154 l 583 299 q 726 183 642 231 q 768 248 753 214 q 793 318 783 282 l 488 318 l 488 879 l 810 879 l 810 963 l 469 963 l 469 1089 q 416 958 446 1024 q 354 828 386 892 l 354 -122 l 196 -122 l 196 568 q 124 479 160 519 q 100 533 117 500 q 65 599 83 567 q 33 653 47 632 q 147 801 92 717 q 248 981 201 885 q 326 1175 294 1076 m 642 543 l 642 440 l 808 440 l 810 494 l 810 543 l 642 543 m 974 543 l 974 493 l 972 440 l 1128 440 l 1128 543 l 974 543 m 642 758 l 642 657 l 810 657 l 810 758 l 642 758 m 974 758 l 974 657 l 1128 657 l 1128 758 l 974 758 z "},"促":{"ha":1389,"x_min":17,"x_max":1356,"o":"m 683 976 l 683 760 l 1085 760 l 1085 976 l 683 976 m 292 1178 l 446 1133 q 400 1005 425 1069 q 346 875 375 940 l 346 -124 l 181 -124 l 181 572 q 139 513 160 542 q 96 460 118 485 q 76 515 90 481 q 45 585 61 550 q 17 640 29 619 q 124 793 72 707 q 218 978 175 879 q 292 1178 261 1076 m 536 508 l 694 493 q 682 394 689 443 q 665 301 675 346 q 728 188 692 233 q 811 115 765 143 l 811 614 l 526 614 l 526 1121 l 1251 1121 l 1251 614 l 978 614 l 978 447 l 1272 447 l 1272 292 l 978 292 l 978 65 q 1075 61 1024 61 q 1131 61 1094 61 q 1210 61 1167 61 q 1292 62 1253 61 q 1356 63 1331 63 q 1325 -12 1340 36 q 1304 -93 1310 -60 l 1061 -93 q 881 -76 964 -93 q 731 -17 799 -60 q 611 104 664 26 q 552 -22 585 36 q 476 -126 519 -79 q 440 -94 464 -112 q 390 -57 415 -75 q 346 -29 364 -39 q 479 199 436 58 q 536 508 522 340 z "},"俄":{"ha":1389,"x_min":17,"x_max":1363,"o":"m 1101 1076 l 1224 1125 q 1270 1040 1247 1086 q 1312 951 1293 994 q 1340 874 1331 907 l 1211 815 q 1185 894 1203 850 q 1145 987 1167 939 q 1101 1076 1124 1035 m 1175 569 l 1321 532 q 1236 349 1285 436 q 1129 185 1188 263 q 1165 72 1146 113 q 1207 32 1185 32 q 1231 80 1222 32 q 1243 233 1240 128 q 1301 181 1267 207 q 1363 143 1335 156 q 1331 -22 1351 38 q 1276 -103 1311 -81 q 1186 -126 1242 -126 q 1085 -80 1128 -126 q 1011 49 1042 -33 q 933 -22 972 11 q 850 -83 893 -56 q 821 -46 840 -68 q 781 -1 801 -24 q 744 33 760 21 q 965 217 865 107 q 938 404 949 303 q 919 617 926 506 l 740 617 l 740 457 l 889 492 l 906 343 l 740 300 l 740 51 q 726 -42 740 -8 q 676 -94 713 -75 q 585 -118 640 -112 q 456 -124 531 -124 q 438 -47 451 -92 q 408 28 424 -3 q 499 26 456 26 q 556 28 542 26 q 577 33 571 28 q 583 54 583 39 l 583 260 l 407 215 l 368 376 q 468 397 413 385 q 583 421 524 408 l 583 617 l 372 617 l 372 760 l 583 760 l 583 919 q 499 901 540 910 q 418 885 458 892 q 407 927 415 904 q 388 972 399 950 q 364 916 376 944 q 339 860 351 888 l 339 -124 l 181 -124 l 181 572 q 139 513 160 542 q 96 460 118 485 q 76 515 90 481 q 45 583 61 549 q 17 640 29 618 q 124 792 72 706 q 218 977 175 878 q 292 1178 261 1076 l 446 1132 l 407 1021 q 616 1079 513 1046 q 792 1147 719 1113 l 907 1024 l 906 1160 l 1067 1160 q 1066 957 1065 1058 q 1069 760 1067 856 l 1319 760 l 1319 617 l 1076 617 q 1085 503 1081 558 q 1096 397 1090 447 q 1139 481 1119 438 q 1175 569 1158 525 m 740 961 l 740 760 l 913 760 q 909 888 911 824 q 907 1018 907 953 q 740 961 829 986 z "},"俊":{"ha":1389,"x_min":25,"x_max":1339,"o":"m 914 714 l 1028 793 q 1138 718 1079 760 q 1251 634 1197 676 q 1339 557 1304 592 l 1214 467 q 1133 545 1183 501 q 1024 633 1082 589 q 914 714 967 678 m 667 775 l 808 714 q 711 617 765 667 q 601 523 657 568 q 496 444 544 478 q 463 481 483 458 q 422 526 443 503 q 386 561 401 549 q 536 660 458 601 q 667 775 614 718 m 735 600 l 879 547 q 854 511 867 529 q 826 474 842 493 l 1096 474 l 1126 481 l 1235 429 q 1141 254 1197 332 q 1013 115 1085 176 q 1160 60 1081 85 q 1331 22 1239 36 q 1277 -45 1306 -3 q 1233 -119 1249 -87 q 1038 -62 1128 -97 q 872 18 947 -26 q 681 -67 783 -32 q 465 -126 578 -103 q 429 -52 453 -94 q 383 17 406 -10 q 568 58 479 32 q 735 121 657 83 q 618 249 667 181 q 570 207 594 226 q 522 169 546 188 q 489 206 510 185 q 446 247 468 226 q 407 281 424 268 q 589 424 500 338 q 735 600 678 510 m 1007 342 l 722 342 q 786 268 750 304 q 867 200 822 232 q 1007 342 951 261 m 492 756 q 479 797 488 771 q 461 851 471 824 q 443 899 451 879 q 526 950 481 907 q 577 1001 543 965 q 651 1084 611 1036 q 724 1185 692 1132 l 883 1136 q 799 1034 844 1085 q 707 939 754 983 l 1024 963 q 979 1017 1001 990 q 935 1069 957 1044 l 1058 1136 q 1148 1035 1101 1090 q 1235 927 1194 981 q 1300 831 1276 874 l 1167 754 q 1147 790 1158 771 q 1121 831 1135 810 q 865 807 968 817 q 694 790 761 797 q 589 778 628 783 q 528 767 550 772 q 492 756 507 763 m 339 1183 l 496 1135 q 358 836 439 982 l 358 -122 l 200 -122 l 200 589 q 158 537 179 563 q 115 488 138 511 q 92 542 108 508 q 58 608 76 575 q 25 661 40 642 q 147 808 88 725 q 255 988 206 892 q 339 1183 304 1085 z "},"俏":{"ha":1389,"x_min":33,"x_max":1329,"o":"m 1168 1149 l 1329 1090 q 1259 948 1296 1018 q 1190 828 1222 878 l 1046 882 q 1090 964 1067 918 q 1133 1058 1113 1010 q 1168 1149 1154 1107 m 476 1076 l 618 1139 q 699 1012 660 1082 q 754 889 738 942 l 603 818 q 574 898 594 853 q 529 990 554 943 q 476 1076 504 1036 m 675 394 l 675 290 l 1117 290 l 1117 394 l 675 394 m 675 535 l 1117 535 l 1117 638 l 675 638 l 675 535 m 815 1181 l 983 1181 l 983 792 l 1279 792 l 1279 56 q 1265 -39 1279 -4 q 1211 -93 1251 -74 q 1115 -117 1172 -112 q 979 -121 1058 -121 q 960 -42 975 -87 q 931 36 946 4 q 1025 33 978 33 q 1088 32 1072 32 q 1117 58 1117 33 l 1117 150 l 675 150 l 675 -122 l 511 -122 l 511 792 l 815 792 l 815 1181 m 331 1175 l 488 1126 q 429 981 461 1054 q 361 836 397 907 l 361 -122 l 203 -122 l 203 578 q 163 527 183 551 q 122 479 143 503 q 99 533 115 500 q 65 599 83 567 q 33 653 47 632 q 148 801 93 717 q 250 981 203 885 q 331 1175 297 1076 z "},"俐":{"ha":1389,"x_min":22,"x_max":1301,"o":"m 926 1011 l 1065 1011 l 1065 201 l 926 201 l 926 1011 m 1150 1160 l 1301 1160 l 1301 53 q 1288 -41 1301 -7 q 1239 -94 1275 -75 q 1151 -117 1204 -112 q 1021 -122 1097 -122 q 1005 -48 1018 -92 q 976 28 992 -4 q 1065 26 1022 26 q 1124 25 1107 25 q 1150 53 1150 25 l 1150 1160 m 292 1179 l 444 1135 l 411 1038 q 620 1088 517 1058 q 794 1149 724 1118 l 907 1029 q 817 998 864 1013 q 719 971 769 983 l 719 768 l 881 768 l 881 619 l 719 619 l 719 594 q 762 547 735 579 q 819 478 789 515 q 876 410 850 440 q 911 365 901 379 l 822 226 q 776 305 804 260 q 719 394 749 350 l 719 -104 l 568 -104 l 568 329 q 496 191 533 257 q 418 76 458 125 q 383 157 407 113 q 339 232 358 201 q 419 343 379 279 q 494 478 458 407 q 556 619 529 550 l 381 619 l 381 768 l 568 768 l 568 936 q 422 911 493 922 q 412 950 419 928 q 394 993 404 972 q 365 919 381 956 q 333 846 350 882 l 333 -124 l 181 -124 l 181 568 q 142 513 163 539 q 103 463 122 486 q 81 517 96 483 q 51 586 67 551 q 22 643 35 621 q 128 794 78 708 q 220 979 178 881 q 292 1179 263 1078 z "},"俗":{"ha":1389,"x_min":22,"x_max":1367,"o":"m 672 1165 l 828 1110 q 739 969 789 1040 q 636 833 689 897 q 535 721 583 769 q 495 756 519 736 q 444 794 471 775 q 399 826 418 814 q 500 924 450 868 q 595 1042 550 979 q 672 1165 640 1104 m 906 1083 l 1035 1168 q 1139 1060 1082 1119 q 1249 944 1196 1001 q 1336 843 1303 888 l 1197 742 q 1116 846 1167 786 q 1010 968 1065 906 q 906 1083 954 1031 m 332 1175 l 489 1125 q 429 979 463 1053 q 357 835 396 906 l 357 467 q 624 656 506 538 q 808 935 742 775 l 958 881 l 938 833 q 1130 611 1024 699 q 1367 458 1236 524 q 1306 394 1336 432 q 1260 319 1275 356 l 1188 365 l 1188 -115 l 1021 -115 l 1021 -71 l 678 -71 l 678 -125 l 519 -125 l 519 360 l 454 321 q 412 387 439 351 q 357 449 385 422 l 357 -122 l 199 -122 l 199 585 q 155 529 176 556 q 111 479 133 503 q 87 533 103 500 q 53 599 71 567 q 22 653 36 632 q 141 799 83 715 q 248 980 199 883 q 332 1175 297 1076 m 678 76 l 1021 76 l 1021 265 l 678 265 l 678 76 m 599 414 l 1118 414 q 980 538 1044 471 q 857 692 915 606 q 739 540 804 610 q 599 414 674 471 z "},"俘":{"ha":1389,"x_min":26,"x_max":1333,"o":"m 1197 1179 l 1296 1043 q 1050 994 1185 1014 q 774 965 915 975 q 500 949 632 954 q 485 1019 497 979 q 458 1086 472 1058 q 724 1105 589 1093 q 983 1135 860 1117 q 1197 1179 1106 1154 m 750 919 l 892 963 q 932 853 913 913 q 963 751 951 794 l 814 700 q 787 806 806 744 q 750 919 768 868 m 1126 990 l 1282 929 q 1214 805 1249 867 q 1149 696 1179 743 l 1153 697 l 1261 610 q 1131 488 1203 550 q 983 374 1058 425 l 983 367 l 1333 367 l 1333 215 l 983 215 l 983 32 q 971 -53 983 -22 q 921 -101 958 -83 q 835 -120 883 -117 q 721 -124 786 -124 q 701 -51 715 -92 q 671 19 686 -11 q 748 17 710 18 q 799 17 786 17 q 817 22 813 18 q 821 36 821 25 l 821 215 l 417 215 l 417 367 l 821 367 l 821 425 q 894 478 857 449 q 967 539 932 508 l 504 539 l 504 689 l 568 689 q 531 785 556 729 q 482 888 506 840 l 618 939 q 670 840 644 894 q 708 747 696 786 l 571 689 l 1118 689 l 1129 692 l 1013 742 q 1076 862 1043 792 q 1126 990 1108 932 m 317 1175 l 472 1126 q 418 985 449 1057 q 353 844 388 914 l 353 -122 l 192 -122 l 192 576 q 154 528 174 551 q 115 482 135 504 q 92 534 108 501 q 58 599 76 567 q 26 653 40 632 q 139 801 85 717 q 239 981 193 885 q 317 1175 285 1076 z "},"保":{"ha":1389,"x_min":25,"x_max":1378,"o":"m 693 972 l 693 786 l 1101 786 l 1101 972 l 693 972 m 536 1119 l 1269 1119 l 1269 640 l 976 640 l 976 514 l 1336 514 l 1336 364 l 1058 364 q 1204 191 1119 272 q 1378 58 1289 110 q 1315 -3 1350 36 q 1260 -74 1279 -43 q 1110 61 1183 -19 q 976 235 1038 142 l 976 -125 l 810 -125 l 810 229 q 669 60 746 138 q 508 -71 592 -18 q 456 -1 490 -40 q 393 63 421 39 q 576 191 488 111 q 728 364 664 271 l 443 364 l 443 514 l 810 514 l 810 640 l 536 640 l 536 1119 m 354 1176 l 508 1126 q 449 988 482 1058 q 378 851 415 918 l 378 -121 l 219 -121 l 219 608 q 167 543 193 574 q 114 485 142 513 q 91 538 107 506 q 58 603 75 571 q 25 656 40 636 q 151 801 90 718 q 265 981 213 885 q 354 1176 318 1078 z "},"信":{"ha":1389,"x_min":33,"x_max":1335,"o":"m 532 754 l 1232 754 l 1232 624 l 532 624 l 532 754 m 532 551 l 1232 551 l 1232 422 l 532 422 l 532 551 m 511 343 l 1250 343 l 1250 -118 l 1103 -118 l 1103 -79 l 653 -79 l 653 -122 l 511 -122 l 511 343 m 653 54 l 1103 54 l 1103 211 l 653 211 l 653 54 m 749 1129 l 890 1183 q 947 1088 918 1140 q 992 999 976 1036 l 910 963 l 1335 963 l 1335 828 l 435 828 l 435 963 l 835 963 q 796 1046 819 1000 q 749 1129 772 1092 m 326 1175 l 475 1129 q 427 1008 453 1069 q 372 885 401 946 l 372 -128 l 219 -128 l 219 619 q 169 551 194 585 q 118 489 144 518 q 96 540 111 508 q 64 602 81 571 q 33 653 47 633 q 147 801 92 717 q 248 981 201 885 q 326 1175 294 1076 z "},"俩":{"ha":1389,"x_min":28,"x_max":1329,"o":"m 264 1178 l 411 1136 l 400 1096 l 1329 1096 l 1329 940 l 1049 940 l 1049 790 l 1296 790 l 1296 60 q 1284 -26 1296 6 q 1236 -76 1272 -58 q 1150 -97 1201 -93 q 1028 -101 1099 -101 q 1013 -30 1025 -71 q 985 40 1000 11 q 1071 38 1029 39 q 1126 38 1113 38 q 1150 61 1150 38 l 1150 226 l 1081 163 q 1052 236 1071 194 q 1011 321 1033 278 q 963 182 993 249 q 888 58 933 115 q 844 110 872 81 q 790 156 815 139 q 847 246 825 196 q 882 351 868 296 l 803 264 q 767 335 789 296 q 714 201 746 267 q 635 79 682 136 q 606 113 624 94 q 568 150 588 132 l 568 -118 l 419 -118 l 419 790 l 672 790 l 672 940 l 397 940 l 397 1089 q 367 993 383 1042 q 331 896 350 944 l 331 -124 l 181 -124 l 181 579 q 107 468 146 519 q 86 520 100 488 q 56 585 72 553 q 28 639 40 618 q 164 883 103 740 q 264 1178 225 1026 m 815 940 l 815 790 l 913 790 l 913 940 l 815 940 m 1150 644 l 1049 644 q 1047 581 1049 614 q 1042 514 1044 549 q 1099 418 1071 468 q 1150 324 1128 368 l 1150 644 m 568 225 q 631 360 610 288 q 661 507 653 433 q 671 644 669 581 l 568 644 l 568 225 m 814 644 q 801 494 813 574 q 849 426 826 461 q 886 365 872 392 q 906 510 901 438 q 913 644 911 582 l 814 644 z "},"俭":{"ha":1389,"x_min":21,"x_max":1364,"o":"m 472 489 l 600 525 q 639 415 621 474 q 672 300 657 356 q 696 200 688 244 l 560 157 q 540 260 554 203 q 508 377 526 317 q 472 489 490 438 m 756 531 l 888 553 q 929 391 910 478 q 958 239 949 304 l 821 213 q 806 310 817 256 q 783 423 796 365 q 756 531 769 481 m 824 968 q 723 852 776 908 q 613 747 669 796 l 1089 747 q 949 856 1017 799 q 824 968 881 913 m 297 1179 l 450 1133 q 399 992 428 1064 q 339 850 371 919 l 339 751 q 517 867 432 800 q 674 1017 603 935 q 792 1190 744 1100 l 936 1139 l 908 1090 q 1041 975 965 1033 q 1201 867 1117 917 q 1364 783 1285 817 q 1319 706 1342 753 q 1285 624 1296 658 q 1136 714 1214 663 l 1136 607 l 563 607 l 563 706 q 490 653 528 678 q 417 606 453 628 q 383 663 407 628 q 339 724 360 697 l 339 -122 l 181 -122 l 181 565 q 101 461 142 510 q 81 516 94 482 q 51 585 67 550 q 21 642 35 619 q 129 793 78 707 q 224 978 181 879 q 297 1179 267 1078 m 404 82 l 928 82 q 997 224 963 146 q 1060 385 1031 303 q 1111 536 1090 467 l 1268 500 q 1176 284 1226 396 q 1076 82 1125 172 l 1299 82 l 1299 -69 l 404 -69 l 404 82 z "},"修":{"ha":1389,"x_min":21,"x_max":1364,"o":"m 961 539 l 1082 489 q 921 374 1017 424 q 728 293 825 325 q 688 344 713 317 q 639 389 663 371 q 758 427 697 404 q 873 478 819 450 q 961 539 926 507 m 1096 404 l 1217 356 q 1003 202 1133 265 q 729 103 874 139 q 693 156 715 126 q 649 207 671 186 q 822 253 736 225 q 978 320 907 282 q 1096 404 1050 358 m 1197 250 l 1340 192 q 1164 46 1268 107 q 933 -56 1060 -15 q 663 -124 806 -97 q 626 -56 650 -93 q 578 7 601 -19 q 826 57 707 25 q 1042 137 946 89 q 1197 250 1138 185 m 417 785 l 554 785 l 554 597 q 701 639 629 614 q 836 697 772 664 q 779 754 806 725 q 731 813 753 783 q 644 722 689 763 q 586 773 624 743 q 521 819 549 803 q 668 979 603 883 q 771 1181 733 1075 l 922 1144 q 901 1092 913 1118 q 876 1039 889 1065 l 1181 1039 l 1206 1046 l 1303 1000 q 1210 832 1265 907 q 1083 696 1154 757 q 1214 644 1144 667 q 1364 608 1283 622 q 1315 545 1342 585 q 1272 475 1288 506 q 1101 531 1181 497 q 956 607 1022 564 q 788 525 876 560 q 604 467 699 490 q 554 556 588 508 l 554 111 l 417 111 l 417 785 m 817 907 q 956 772 869 835 q 1092 907 1033 831 l 817 907 m 296 1175 l 450 1131 q 340 850 404 989 l 340 -124 l 182 -124 l 182 564 q 142 508 163 535 q 101 457 122 481 q 81 512 94 478 q 51 581 67 546 q 21 638 35 615 q 129 790 78 703 q 224 975 181 876 q 296 1175 267 1074 z "},"俯":{"ha":1389,"x_min":21,"x_max":1344,"o":"m 829 451 l 938 507 q 990 411 964 463 q 1039 312 1017 360 q 1075 226 1061 264 l 961 163 q 926 251 949 201 q 878 354 904 301 q 829 451 853 407 m 775 1157 l 925 1193 q 953 1125 939 1163 q 981 1056 968 1088 l 1344 1056 l 1344 911 l 567 911 l 567 553 l 567 488 q 638 610 607 540 q 690 755 668 681 q 722 896 711 829 l 858 864 q 830 763 846 814 q 794 663 814 713 l 794 -114 l 657 -114 l 657 399 q 637 372 647 385 q 615 346 626 358 q 594 405 608 369 q 565 467 579 440 q 555 264 564 371 q 524 56 546 157 q 464 -125 503 -46 q 428 -94 451 -111 q 379 -62 404 -78 q 336 -40 354 -47 q 394 146 376 43 q 415 355 411 249 q 419 553 419 461 l 419 1056 l 814 1056 l 775 1157 m 1090 874 l 1232 874 l 1232 707 l 1332 707 l 1332 569 l 1232 569 l 1232 44 q 1221 -40 1232 -8 q 1178 -87 1210 -71 q 1099 -109 1146 -104 q 986 -114 1051 -114 q 971 -45 982 -85 q 946 25 960 -6 q 1020 23 986 24 q 1068 24 1054 22 q 1085 29 1081 25 q 1090 46 1090 33 l 1090 569 l 839 569 l 839 707 l 1090 707 l 1090 874 m 285 1178 l 432 1135 q 383 991 410 1064 q 324 847 356 918 l 324 -122 l 168 -122 l 168 560 q 100 467 135 508 q 79 519 93 486 q 50 585 65 551 q 21 639 35 618 q 124 792 75 706 q 215 978 174 879 q 285 1178 256 1076 z "},"俱":{"ha":1389,"x_min":14,"x_max":1349,"o":"m 536 1128 l 1229 1128 l 1229 332 l 1333 332 l 1333 186 l 1086 186 q 1183 122 1133 157 q 1276 52 1232 86 q 1349 -11 1319 18 l 1235 -126 q 1159 -53 1207 -94 q 1056 28 1111 -12 q 953 103 1001 69 l 1039 186 l 715 186 l 819 111 q 674 -24 758 39 q 506 -126 590 -86 q 458 -65 488 -100 q 403 -7 429 -31 q 551 80 478 28 q 676 186 625 132 l 407 186 l 407 332 l 536 332 l 536 1128 m 694 332 l 1063 332 l 1063 417 l 694 417 l 694 332 m 694 804 l 694 724 l 1063 724 l 1063 804 l 694 804 m 694 917 l 1063 917 l 1063 996 l 694 996 l 694 917 m 694 611 l 694 528 l 1063 528 l 1063 611 l 694 611 m 331 1175 l 488 1126 q 427 983 461 1056 q 356 842 393 911 l 356 -122 l 196 -122 l 196 592 q 150 533 174 561 q 103 481 126 506 q 78 534 94 501 q 45 600 63 567 q 14 653 28 633 q 135 800 76 717 q 245 980 194 883 q 331 1175 296 1076 z "},"俺":{"ha":1389,"x_min":21,"x_max":1374,"o":"m 607 872 l 417 872 l 417 967 q 382 892 400 929 q 344 818 364 854 l 344 597 q 492 717 426 647 q 607 872 557 788 m 771 760 l 928 760 l 928 661 l 1068 661 q 1006 763 1035 710 q 953 872 976 817 l 789 872 q 658 661 733 757 l 771 661 l 771 760 m 321 1175 l 481 1125 l 439 1018 l 676 1018 q 726 1181 706 1096 l 889 1150 q 869 1083 879 1115 q 849 1018 860 1050 l 1344 1018 l 1344 872 l 1115 872 q 1228 713 1161 786 q 1374 594 1294 639 q 1315 535 1347 572 q 1264 468 1282 497 q 1234 489 1249 478 q 1204 513 1219 500 l 1204 151 q 1268 119 1229 135 q 1338 97 1307 104 q 1310 -31 1329 15 q 1253 -97 1290 -78 q 1154 -117 1217 -117 q 1115 -117 1142 -117 q 1058 -117 1089 -117 q 1002 -117 1028 -117 q 964 -117 976 -117 q 845 -99 888 -117 q 787 -38 803 -82 q 771 85 771 6 l 771 132 l 654 132 l 654 79 l 503 79 l 503 501 q 472 478 489 489 q 440 456 456 467 q 398 513 426 478 q 344 572 369 547 l 344 -122 l 185 -122 l 185 565 q 149 519 167 542 q 113 478 132 497 q 89 532 106 499 q 54 599 72 565 q 21 653 36 632 q 138 800 82 717 q 240 980 193 883 q 321 1175 288 1076 m 654 339 l 654 261 l 771 261 l 771 339 l 654 339 m 654 458 l 771 458 l 771 532 l 654 532 l 654 458 m 1051 339 l 928 339 l 928 261 l 1051 261 l 1051 339 m 1051 458 l 1051 532 l 928 532 l 928 458 l 1051 458 m 1199 132 l 928 132 l 928 86 q 938 32 928 43 q 986 21 949 21 q 1031 21 999 21 q 1095 21 1063 21 q 1142 21 1128 21 q 1182 42 1171 21 q 1199 132 1193 64 z "},"倍":{"ha":1389,"x_min":24,"x_max":1342,"o":"m 543 407 l 1228 407 l 1228 -118 l 1064 -118 l 1064 -75 l 699 -75 l 699 -124 l 543 -124 l 543 407 m 699 71 l 1064 71 l 1064 260 l 699 260 l 699 71 m 1042 882 l 715 882 q 760 776 740 833 q 788 676 779 718 l 685 644 l 957 644 q 1004 761 981 696 q 1042 882 1028 826 m 775 1168 l 929 1196 q 958 1111 944 1157 q 978 1028 971 1065 l 1293 1028 l 1293 882 l 1072 882 l 1201 851 q 1158 743 1181 797 q 1114 644 1136 689 l 1342 644 l 1342 496 l 432 496 l 432 644 l 638 644 q 613 744 631 689 q 575 844 594 799 l 704 882 l 486 882 l 486 1028 l 810 1028 q 795 1099 804 1063 q 775 1168 786 1136 m 335 1175 l 489 1126 q 428 978 463 1053 q 354 832 393 904 l 354 -124 l 196 -124 l 196 583 q 113 483 154 529 q 90 535 106 503 q 56 601 74 568 q 24 653 38 633 q 144 801 86 717 q 251 981 201 885 q 335 1175 300 1076 z "},"倒":{"ha":1389,"x_min":19,"x_max":1301,"o":"m 1153 1139 l 1301 1139 l 1301 64 q 1287 -29 1301 4 q 1235 -81 1272 -62 q 1141 -103 1197 -99 q 1003 -108 1085 -108 q 981 -35 997 -78 q 949 35 964 7 q 1055 33 1006 33 q 1121 33 1104 32 q 1146 41 1139 35 q 1153 64 1153 47 l 1153 1139 m 685 868 l 803 918 q 888 778 847 854 q 950 643 929 701 l 950 1058 l 1092 1058 l 1092 226 l 950 226 l 950 629 l 828 572 q 793 665 817 613 q 615 633 683 646 q 509 612 547 619 q 451 597 471 604 q 419 583 432 590 q 399 649 414 607 q 369 721 383 692 q 400 741 385 725 q 429 779 415 757 q 463 846 440 797 q 506 954 485 894 l 404 954 l 404 1093 l 906 1093 l 906 954 l 667 954 q 568 757 624 851 l 733 783 l 685 868 m 264 1179 l 415 1136 q 368 990 394 1064 q 311 843 342 915 l 311 -124 l 160 -124 l 160 547 q 128 501 144 524 q 97 457 113 478 q 78 514 92 479 q 49 583 64 549 q 19 640 33 618 q 160 885 96 742 q 264 1179 225 1028 m 343 115 l 554 147 l 554 315 l 382 315 l 382 451 l 554 451 l 554 581 l 708 581 l 708 451 l 901 451 l 901 315 l 708 315 l 708 174 l 915 208 l 925 75 q 632 19 779 46 q 368 -31 485 -8 l 343 115 z "},"倔":{"ha":1389,"x_min":32,"x_max":1303,"o":"m 314 1175 l 472 1128 q 420 987 449 1058 q 358 846 392 915 l 358 -122 l 200 -122 l 200 568 q 162 516 182 542 q 122 467 142 490 q 99 519 115 486 q 64 585 82 551 q 32 639 46 618 q 142 791 89 704 q 239 976 194 878 q 314 1175 283 1075 m 482 1125 l 1294 1125 l 1294 735 l 635 735 l 635 682 q 631 491 635 596 q 614 276 626 386 q 577 62 601 165 q 514 -125 553 -42 q 476 -93 500 -111 q 426 -59 451 -75 q 382 -36 400 -43 q 437 133 417 42 q 467 320 457 224 q 479 509 476 417 q 482 681 482 601 l 482 1125 m 635 988 l 635 872 l 1139 872 l 1139 988 l 635 988 m 674 271 l 806 271 l 806 54 l 915 54 l 915 329 l 693 329 l 693 650 l 824 650 l 824 460 l 915 460 l 915 699 l 1053 699 l 1053 460 l 1151 460 l 1151 651 l 1288 651 l 1288 329 l 1053 329 l 1053 54 l 1168 54 l 1168 269 l 1303 269 l 1303 -118 l 1168 -118 l 1168 -76 l 674 -76 l 674 271 z "},"倘":{"ha":1389,"x_min":31,"x_max":1290,"o":"m 442 1086 l 563 1147 q 663 1013 615 1086 q 733 882 710 939 l 604 810 q 565 897 590 849 q 507 995 539 946 q 442 1086 475 1044 m 1136 1147 l 1290 1097 q 1195 944 1246 1021 q 1101 813 1144 868 l 983 860 q 1040 949 1011 899 q 1094 1051 1068 999 q 1136 1147 1119 1103 m 292 1178 l 446 1133 q 340 850 401 990 l 340 -124 l 182 -124 l 182 554 q 113 460 149 506 q 92 515 106 481 q 61 583 78 549 q 31 639 44 618 q 181 883 113 739 q 292 1178 249 1026 m 446 769 l 776 769 l 776 1181 l 943 1181 l 943 769 l 1278 769 l 1278 51 q 1265 -41 1278 -7 q 1213 -94 1251 -75 q 1118 -117 1174 -112 q 985 -121 1063 -121 q 967 -44 981 -89 q 938 31 953 0 q 1031 28 985 29 q 1092 28 1076 28 q 1113 33 1107 28 q 1119 54 1119 39 l 1119 621 l 603 621 l 603 -125 l 446 -125 l 446 769 m 806 414 l 806 267 l 915 267 l 915 414 l 806 414 m 676 539 l 1047 539 l 1047 142 l 806 142 l 806 74 l 676 74 l 676 539 z "},"候":{"ha":1389,"x_min":29,"x_max":1371,"o":"m 407 901 l 551 901 l 551 153 l 407 153 l 407 901 m 654 1121 l 1097 1121 l 1122 1128 l 1238 1114 q 1206 875 1225 989 l 1332 875 l 1332 736 l 746 736 l 872 706 l 846 632 l 1300 632 l 1300 496 l 1050 496 l 1050 364 l 1339 364 l 1339 224 l 1068 224 q 1123 146 1088 185 q 1219 74 1158 107 q 1371 18 1279 40 q 1318 -44 1344 -4 q 1278 -117 1292 -85 q 1085 -21 1157 -81 q 972 106 1013 39 q 845 -17 926 42 q 632 -125 764 -76 q 584 -63 615 -99 q 525 -6 553 -28 q 758 101 682 40 q 861 224 833 161 l 592 224 l 592 364 l 888 364 l 888 496 l 781 496 q 737 427 760 460 q 690 367 714 394 q 628 412 668 386 q 561 451 589 438 q 655 580 613 504 q 721 736 697 656 l 589 736 l 589 875 l 1049 875 l 1065 985 l 654 985 l 654 1121 m 289 1175 l 442 1131 q 394 988 419 1060 q 336 846 368 915 l 336 -124 l 178 -124 l 178 550 q 144 501 161 525 q 110 457 128 478 q 90 512 104 478 q 59 581 75 546 q 29 636 43 615 q 132 790 83 703 q 221 976 181 878 q 289 1175 261 1075 z "},"倚":{"ha":1389,"x_min":15,"x_max":1349,"o":"m 818 1164 l 989 1164 q 976 1046 985 1103 l 1311 1046 l 1311 907 l 942 907 l 938 897 q 1069 846 1000 875 q 1201 788 1138 817 q 1307 733 1264 758 l 1219 622 l 1349 622 l 1349 478 l 1239 478 l 1239 38 q 1224 -55 1239 -22 q 1167 -104 1208 -87 q 1063 -124 1124 -121 q 919 -126 1003 -126 q 901 -53 915 -94 q 871 18 886 -12 q 942 16 906 17 q 1006 16 978 15 q 1046 17 1035 17 q 1070 23 1064 18 q 1076 42 1076 28 l 1076 478 l 411 478 l 411 622 l 501 622 q 467 686 490 651 q 422 743 443 721 q 640 809 563 769 q 756 907 717 849 l 474 907 l 474 1046 l 806 1046 q 818 1164 814 1100 m 1185 622 q 1036 701 1125 658 q 861 779 947 744 q 735 689 813 728 q 542 622 657 650 l 1185 622 m 640 286 l 640 183 l 800 183 l 800 286 l 640 286 m 496 401 l 949 401 l 949 67 l 640 67 l 640 -15 l 496 -15 l 496 401 m 332 1175 l 489 1125 q 354 836 432 976 l 354 -122 l 196 -122 l 196 589 q 150 532 174 560 q 103 479 126 504 q 80 533 96 500 q 47 600 64 567 q 15 653 29 633 q 137 799 78 715 q 247 980 196 883 q 332 1175 297 1076 z "},"借":{"ha":1389,"x_min":13,"x_max":1353,"o":"m 978 1168 l 1143 1168 l 1143 1018 l 1317 1018 l 1317 875 l 1143 875 l 1143 740 l 1353 740 l 1353 590 l 415 590 l 415 740 l 629 740 l 629 875 l 465 875 l 465 1018 l 629 1018 l 629 1168 l 792 1168 l 792 1018 l 978 1018 l 978 1168 m 792 875 l 792 740 l 978 740 l 978 875 l 792 875 m 704 156 l 704 57 l 1082 57 l 1082 156 l 704 156 m 704 281 l 1082 281 l 1082 375 l 704 375 l 704 281 m 544 511 l 1249 511 l 1249 -124 l 1082 -124 l 1082 -79 l 704 -79 l 704 -131 l 544 -131 l 544 511 m 329 1175 l 486 1125 q 426 981 460 1053 q 354 839 393 908 l 354 -122 l 196 -122 l 196 592 q 149 533 174 561 q 101 479 125 504 q 78 533 94 500 q 44 600 63 567 q 13 653 26 633 q 135 799 76 715 q 244 980 194 883 q 329 1175 294 1076 z "},"倡":{"ha":1389,"x_min":22,"x_max":1286,"o":"m 669 804 l 669 719 l 1051 719 l 1051 804 l 669 804 m 669 1006 l 669 922 l 1051 922 l 1051 1006 l 669 1006 m 506 1132 l 1224 1132 l 1224 593 l 506 593 l 506 1132 m 614 158 l 614 67 l 1113 67 l 1113 158 l 614 158 m 614 293 l 1113 293 l 1113 378 l 614 378 l 614 293 m 447 518 l 1286 518 l 1286 -117 l 1113 -117 l 1113 -74 l 614 -74 l 614 -122 l 447 -122 l 447 518 m 315 1175 l 479 1125 q 419 972 453 1049 q 347 821 386 894 l 347 -122 l 185 -122 l 185 557 q 113 468 149 508 q 90 525 106 490 q 56 595 74 560 q 22 653 38 631 q 136 800 82 717 q 237 980 190 883 q 315 1175 283 1076 z "},"倦":{"ha":1389,"x_min":25,"x_max":1333,"o":"m 411 672 l 671 672 q 694 722 683 696 q 715 775 706 749 l 496 775 l 496 906 l 626 906 q 572 993 607 942 q 508 1088 538 1044 l 619 1156 q 689 1065 651 1115 q 746 981 726 1015 l 635 906 l 756 906 q 806 1181 789 1033 l 968 1164 q 947 1031 958 1096 q 919 906 935 967 l 1099 906 q 1042 936 1075 921 q 986 961 1010 951 q 1046 1047 1017 999 q 1094 1142 1075 1096 l 1229 1104 q 1175 1000 1207 1054 q 1115 906 1143 946 l 1240 906 l 1240 775 l 883 775 q 865 723 874 749 q 846 672 856 697 l 1329 672 l 1329 540 l 1157 540 q 1237 444 1192 489 q 1333 372 1282 400 q 1277 316 1307 351 q 1229 253 1247 281 q 1166 303 1196 275 q 1108 365 1136 332 l 1108 238 q 1099 165 1108 193 q 1060 122 1089 138 q 990 104 1029 107 q 897 101 950 101 q 881 165 893 131 q 857 225 869 199 q 912 224 886 224 q 947 225 938 224 q 964 240 964 225 l 964 318 l 731 318 l 731 88 q 746 43 731 53 q 819 33 761 33 q 863 33 832 33 q 930 33 893 33 q 999 33 967 33 q 1049 33 1032 33 q 1094 42 1079 33 q 1117 80 1110 51 q 1126 164 1124 108 q 1193 131 1151 146 q 1265 108 1235 115 q 1235 -24 1257 24 q 1173 -89 1214 -71 q 1061 -107 1132 -107 q 1011 -107 1047 -107 q 933 -107 975 -107 q 854 -107 890 -107 q 804 -107 818 -107 q 668 -90 717 -107 q 599 -31 619 -74 q 579 86 579 11 l 579 290 q 539 256 560 272 q 494 225 518 240 q 465 267 485 242 q 422 317 444 292 q 382 357 400 342 q 589 540 504 428 l 411 540 l 411 672 m 731 449 l 1050 449 q 1024 494 1036 471 q 1001 540 1013 517 l 782 540 q 724 449 756 493 l 731 449 m 332 1175 l 489 1126 q 428 976 463 1051 q 354 826 394 900 l 354 -122 l 196 -122 l 196 576 q 156 526 176 550 q 115 479 136 501 q 92 533 108 500 q 58 599 76 567 q 25 653 40 632 q 144 799 86 715 q 250 980 201 883 q 332 1175 299 1076 z "},"债":{"ha":1389,"x_min":31,"x_max":1332,"o":"m 781 367 l 935 367 l 935 268 q 919 172 935 224 q 858 67 904 121 q 724 -36 813 14 q 488 -128 635 -86 q 443 -69 472 -103 q 386 -14 414 -36 q 605 53 525 17 q 722 130 685 90 q 770 206 760 169 q 781 272 781 243 l 781 367 m 901 39 l 979 144 q 1102 103 1036 128 q 1230 51 1168 78 q 1332 1 1292 25 l 1250 -117 q 1153 -65 1213 -93 q 1026 -9 1093 -36 q 901 39 960 18 m 488 539 l 1247 539 l 1247 143 l 1090 143 l 1090 431 l 638 431 l 638 143 l 488 143 l 488 539 m 786 1179 l 940 1179 l 940 1071 l 1261 1071 l 1261 947 l 940 947 l 940 889 l 1224 889 l 1224 775 l 940 775 l 940 710 l 1322 710 l 1322 593 l 422 593 l 422 710 l 786 710 l 786 775 l 503 775 l 503 889 l 786 889 l 786 947 l 460 947 l 460 1071 l 786 1071 l 786 1179 m 292 1175 l 450 1128 q 406 1002 431 1065 q 354 876 382 939 l 354 -122 l 196 -122 l 196 582 q 159 528 178 554 q 121 479 140 503 q 98 533 114 500 q 64 599 82 565 q 31 653 46 632 q 133 801 85 717 q 223 982 182 886 q 292 1175 264 1078 z "},"值":{"ha":1389,"x_min":28,"x_max":1344,"o":"m 813 1178 l 989 1172 l 968 1053 l 1313 1053 l 1313 911 l 940 911 l 917 815 l 1238 815 l 1238 42 l 1344 42 l 1344 -99 l 404 -99 l 404 42 l 525 42 l 525 815 l 765 815 l 782 911 l 465 911 l 465 1053 l 801 1053 q 808 1117 806 1086 q 813 1178 811 1149 m 671 42 l 1085 42 l 1085 121 l 671 121 l 671 42 m 671 503 l 671 425 l 1085 425 l 1085 503 l 671 503 m 671 617 l 1085 617 l 1085 693 l 671 693 l 671 617 m 671 313 l 671 235 l 1085 235 l 1085 313 l 671 313 m 328 1176 l 482 1126 q 420 973 454 1050 q 346 822 386 896 l 346 -124 l 192 -124 l 192 575 q 154 526 174 550 q 115 481 135 503 q 92 534 108 501 q 59 600 76 567 q 28 654 42 633 q 144 801 88 718 q 247 981 200 885 q 328 1176 294 1078 z "},"倾":{"ha":1389,"x_min":15,"x_max":1353,"o":"m 946 674 l 1075 674 l 1075 393 q 1065 252 1075 325 q 1021 110 1054 179 q 919 -22 988 40 q 733 -131 850 -83 q 694 -80 719 -108 q 644 -33 669 -51 q 800 58 740 4 q 892 170 860 111 q 935 288 924 229 q 946 394 946 346 l 946 674 m 1015 86 l 1099 186 q 1190 125 1142 160 q 1283 56 1239 90 q 1353 -8 1326 21 l 1264 -122 q 1197 -56 1239 -93 q 1106 18 1154 -19 q 1015 86 1058 56 m 260 1178 l 408 1133 q 367 1007 390 1071 q 318 881 344 943 l 318 -125 l 169 -125 l 169 586 q 130 526 150 556 q 89 471 110 497 q 70 526 83 492 q 42 594 57 560 q 15 651 28 629 q 156 890 92 750 q 260 1178 219 1029 m 426 72 q 403 147 421 103 q 367 217 385 190 q 399 250 385 228 q 413 313 413 272 l 413 1021 l 553 1021 l 553 772 l 696 772 l 696 632 l 553 632 l 553 311 l 693 371 q 687 295 688 338 q 688 226 686 253 q 536 147 589 176 q 460 101 483 118 q 426 72 438 85 m 743 858 l 904 858 q 918 911 911 883 q 931 965 925 939 l 679 965 l 679 1106 l 1343 1106 l 1343 965 l 1100 965 l 1054 858 l 1289 858 l 1289 199 l 1140 199 l 1140 715 l 885 715 l 885 193 l 743 193 l 743 858 z "},"假":{"ha":1389,"x_min":28,"x_max":1361,"o":"m 871 1126 l 1278 1126 l 1278 650 l 871 650 l 871 790 l 1125 790 l 1125 986 l 871 986 l 871 1126 m 258 1178 l 415 1140 q 377 1003 399 1072 q 331 867 356 933 l 331 -124 l 172 -124 l 172 547 q 141 503 157 525 q 108 461 125 481 q 89 516 103 482 q 58 584 75 550 q 28 639 42 618 q 167 880 108 738 q 258 1178 225 1022 m 429 1126 l 829 1126 l 829 646 l 583 646 l 583 540 l 806 540 l 806 404 l 583 404 l 583 285 l 824 285 l 824 147 l 583 147 l 583 -122 l 429 -122 l 429 1126 m 1128 444 l 974 444 q 1008 352 989 397 q 1051 267 1026 307 q 1094 351 1075 307 q 1128 444 1114 396 m 838 579 l 1181 579 l 1207 583 l 1301 557 q 1240 325 1279 428 q 1144 142 1200 222 q 1361 -1 1236 46 q 1309 -60 1338 -24 q 1264 -126 1281 -97 q 1050 32 1140 -71 q 932 -59 996 -19 q 794 -129 868 -99 q 757 -65 781 -101 q 711 -7 733 -29 q 963 150 858 42 q 846 426 890 272 l 928 444 l 838 444 l 838 579 m 583 990 l 583 783 l 686 783 l 686 990 l 583 990 z "},"偎":{"ha":1389,"x_min":31,"x_max":1358,"o":"m 528 1132 l 1249 1132 l 1249 593 l 528 593 l 528 1132 m 336 1175 l 494 1125 q 432 974 467 1050 q 357 824 397 897 l 357 -125 l 197 -125 l 197 572 q 159 524 179 547 q 119 479 139 500 q 97 533 113 500 q 63 599 81 567 q 31 653 44 632 q 149 800 92 717 q 254 980 206 883 q 336 1175 303 1076 m 1215 350 l 1314 240 q 1224 184 1271 211 q 1133 133 1176 157 q 1235 54 1179 89 q 1358 -3 1290 19 q 1302 -65 1332 -25 q 1256 -136 1272 -106 q 990 61 1090 -69 q 832 374 889 192 l 717 374 l 717 71 l 910 106 q 904 30 906 72 q 904 -39 903 -12 q 742 -76 804 -61 q 642 -100 679 -90 q 586 -117 606 -110 q 554 -132 567 -125 q 541 -79 550 -110 q 520 -19 532 -49 q 496 28 508 10 q 539 64 518 39 q 560 135 560 89 l 560 374 l 433 374 l 433 518 l 1344 518 l 1344 374 l 982 374 q 1014 301 997 336 q 1053 233 1031 265 q 1140 292 1094 260 q 1215 350 1185 324 m 671 807 l 671 717 l 813 717 l 813 807 l 671 807 m 954 807 l 954 717 l 1099 717 l 1099 807 l 954 807 m 671 1008 l 671 921 l 813 921 l 813 1008 l 671 1008 m 954 1008 l 954 921 l 1099 921 l 1099 1008 l 954 1008 z "},"偏":{"ha":1389,"x_min":21,"x_max":1297,"o":"m 483 1038 l 811 1038 q 790 1094 801 1065 q 768 1146 779 1122 l 922 1182 q 957 1110 940 1150 q 985 1038 974 1071 l 1278 1038 l 1278 644 l 635 644 l 632 583 l 1297 583 l 1297 25 q 1290 -42 1297 -14 q 1258 -87 1282 -69 q 1205 -108 1235 -103 q 1135 -112 1175 -112 q 1122 -57 1132 -87 q 1100 0 1111 -26 l 1100 -82 l 996 -82 l 996 179 l 926 179 l 926 -85 l 825 -85 l 825 179 l 757 179 l 757 -121 l 631 -121 l 631 544 q 610 320 625 438 q 567 91 594 203 q 493 -112 539 -21 q 456 -78 481 -97 q 407 -41 432 -58 q 365 -15 382 -24 q 431 169 407 69 q 465 372 454 269 q 480 573 476 475 q 483 751 483 671 l 483 1038 m 343 1175 l 497 1125 q 436 979 471 1053 q 361 835 401 906 l 361 -122 l 203 -122 l 203 592 q 156 534 181 561 q 108 482 132 507 q 86 534 101 501 q 53 600 71 567 q 21 653 35 633 q 145 799 85 715 q 256 980 206 883 q 343 1175 307 1076 m 636 903 l 636 781 l 1117 781 l 1117 903 l 636 903 m 1168 457 l 1100 457 l 1100 306 l 1168 306 l 1168 457 m 757 306 l 825 306 l 825 457 l 757 457 l 757 306 m 926 457 l 926 306 l 996 306 l 996 457 l 926 457 m 1168 179 l 1100 179 l 1100 14 l 1156 13 q 1168 26 1168 13 l 1168 179 z "},"做":{"ha":1389,"x_min":17,"x_max":1351,"o":"m 958 1179 l 1107 1154 q 1087 1038 1097 1096 q 1063 922 1076 979 l 1347 922 l 1347 783 l 1282 783 q 1235 481 1265 619 q 1154 231 1206 343 q 1239 108 1190 164 q 1351 11 1288 51 q 1300 -49 1331 -10 q 1254 -119 1269 -89 q 1154 -26 1199 -78 q 1074 85 1110 25 q 864 -119 990 -35 q 837 -84 856 -106 q 798 -41 818 -62 q 763 -7 778 -19 q 791 10 778 1 q 818 29 804 19 l 554 29 l 554 -69 l 411 -69 l 411 550 l 550 550 l 550 778 l 390 778 l 390 928 l 550 928 l 550 1163 l 707 1163 l 707 928 l 853 928 l 853 778 l 707 778 l 707 550 l 813 550 l 779 596 q 894 856 851 701 q 958 1179 936 1011 m 554 408 l 554 171 l 697 171 l 697 408 l 554 408 m 842 506 l 842 47 q 1000 236 940 126 q 953 381 974 307 q 919 531 933 456 q 896 491 908 510 q 871 454 883 472 l 842 506 m 1024 783 l 1011 742 q 1036 581 1021 664 q 1076 419 1051 499 q 1115 591 1100 500 q 1140 783 1131 682 l 1024 783 m 292 1178 l 446 1132 q 394 990 424 1063 q 333 847 365 918 l 333 -124 l 181 -124 l 181 574 q 139 515 160 543 q 96 461 118 486 q 76 516 90 482 q 45 585 61 550 q 17 642 29 619 q 124 793 72 707 q 218 978 175 879 q 292 1178 261 1076 z "},"停":{"ha":1389,"x_min":29,"x_max":1342,"o":"m 692 774 l 692 700 l 1074 700 l 1074 774 l 692 774 m 539 885 l 1235 885 l 1235 588 l 539 588 l 539 885 m 326 1175 l 476 1126 l 457 1074 l 808 1074 q 792 1113 800 1093 q 774 1150 783 1132 l 926 1192 q 958 1133 942 1165 q 985 1074 975 1101 l 1329 1074 l 1329 938 l 456 938 l 456 1071 q 342 819 407 940 l 342 -124 l 190 -124 l 190 574 q 153 525 172 549 q 115 481 135 501 q 93 534 108 501 q 60 600 78 567 q 29 653 43 633 q 144 801 89 717 q 246 981 199 885 q 326 1175 293 1076 m 424 532 l 1342 532 l 1342 279 l 1194 279 l 1194 199 l 975 199 l 975 39 q 960 -49 975 -17 q 900 -99 944 -82 q 797 -117 857 -114 q 658 -119 738 -119 q 639 -46 653 -86 q 610 25 625 -6 q 678 24 643 25 q 740 24 713 24 q 779 24 768 24 q 807 44 807 24 l 807 199 l 567 199 l 567 279 l 424 279 l 424 532 m 567 329 l 1193 329 l 1193 401 l 567 401 l 567 329 z "}}}
